M48
; DRILL file {KiCad 9.0.7} date 2026-03-18T19:49:27+0100
; FORMAT={-:-/ absolute / metric / decimal}
; #@! TF.CreationDate,2026-03-18T19:49:27+01:00
; #@! TF.GenerationSoftware,Kicad,Pcbnew,9.0.7
; #@! TF.FileFunction,Plated,1,2,PTH
FMAT,2
METRIC
; #@! TA.AperFunction,Plated,PTH,ViaDrill
T1C0.300
; #@! TA.AperFunction,Plated,PTH,ComponentDrill
T2C1.000
%
G90
G05
T1
X67.945Y-94.488
X67.996Y-109.804
X70.891Y-102.794
X76.175Y-59.487
X76.175Y-61.9
X76.2Y-64.618
X76.2Y-74.498
X76.2Y-77.216
X76.2Y-79.756
X76.2Y-82.296
X76.2Y-84.836
X76.2Y-87.122
X76.2Y-89.916
X76.2Y-92.456
X81.077Y-107.34
X86.233Y-70.866
X87.63Y-89.916
X89.154Y-68.453
X90.043Y-59.817
X90.043Y-82.677
X90.17Y-94.742
X90.17Y-100.584
X91.567Y-110.617
X92.304Y-64.745
X92.304Y-66.294
X92.314Y-70.47
X92.964Y-81.534
X92.964Y-97.401
X94.234Y-105.283
X94.742Y-84.328
X95.453Y-108.052
X95.504Y-72.644
X95.758Y-89.408
X97.536Y-83.033
X97.536Y-98.806
X99.568Y-59.944
X100.076Y-101.854
X100.762Y-85.877
X101.092Y-78.232
X101.346Y-66.396
X101.346Y-68.859
X101.346Y-93.853
X104.343Y-62.052
X105.664Y-73.025
X111.252Y-101.6
X111.252Y-106.934
X112.014Y-91.44
X112.014Y-100.965
X112.014Y-106.299
X112.776Y-100.322
X112.776Y-105.656
X113.284Y-74.676
X113.538Y-99.687
X113.538Y-105.021
X113.792Y-59.944
X113.919Y-80.391
X114.935Y-69.895
X115.062Y-93.218
X115.062Y-96.52
X115.062Y-99.822
X117.602Y-89.408
X117.907Y-92.304
X118.11Y-78.74
X119.38Y-67.31
X121.92Y-93.472
X124.333Y-67.691
X125.73Y-65.151
X127.0Y-62.611
X129.286Y-96.52
X129.286Y-105.918
X131.242Y-81.104
X131.318Y-71.628
X131.869Y-83.644
X132.496Y-86.184
X133.123Y-88.724
X133.75Y-91.264
X134.214Y-80.924
X134.925Y-83.312
X134.976Y-86.208
X135.128Y-58.166
X136.246Y-71.933
X136.685Y-89.738
X137.414Y-83.668
X137.566Y-73.508
X137.77Y-100.381
X137.82Y-76.302
X137.82Y-78.994
T2
X64.0Y-59.37
X64.0Y-61.91
X64.0Y-64.45
X64.0Y-66.99
X64.0Y-69.53
X64.0Y-72.07
X64.0Y-74.61
X64.0Y-77.15
X64.0Y-79.69
X64.0Y-82.23
X64.0Y-84.77
X64.0Y-87.31
X64.0Y-89.85
X64.0Y-92.39
X64.0Y-94.93
X64.0Y-97.47
X64.0Y-100.01
X64.0Y-102.55
X64.0Y-105.09
X64.0Y-107.63
X84.32Y-59.37
X84.32Y-61.91
X84.32Y-64.45
X84.32Y-66.99
X84.32Y-69.53
X84.32Y-72.07
X84.32Y-74.61
X84.32Y-77.15
X84.32Y-79.69
X84.32Y-82.23
X84.32Y-84.77
X84.32Y-87.31
X84.32Y-89.85
X84.32Y-92.39
X84.32Y-94.93
X84.32Y-97.47
X84.32Y-100.01
X84.32Y-102.55
X84.32Y-105.09
X84.32Y-107.63
X120.65Y-70.944
X120.65Y-73.484
X120.65Y-76.024
X120.65Y-78.564
X120.65Y-81.104
X120.65Y-83.644
X120.65Y-86.184
X120.65Y-88.724
X120.65Y-91.264
X128.27Y-70.944
X128.27Y-73.484
X128.27Y-76.024
X128.27Y-78.564
X128.27Y-81.104
X128.27Y-83.644
X128.27Y-86.184
X128.27Y-88.724
X128.27Y-91.264
X139.954Y-61.214
X139.954Y-63.754
X139.954Y-66.294
X139.954Y-68.834
X139.954Y-71.374
X139.954Y-73.914
X139.954Y-76.454
X139.954Y-78.994
X139.954Y-81.534
X139.954Y-84.074
X139.954Y-86.614
X139.954Y-89.154
X139.954Y-91.694
X139.954Y-94.234
X139.954Y-96.774
X139.954Y-99.314
X139.954Y-101.854
X139.954Y-104.394
X139.954Y-106.934
M30
