%TF.GenerationSoftware,KiCad,Pcbnew,9.0.7*%
%TF.CreationDate,2026-03-18T19:49:24+01:00*%
%TF.ProjectId,Tang 41464 tester,54616e67-2034-4313-9436-342074657374,rev?*%
%TF.SameCoordinates,Original*%
%TF.FileFunction,Legend,Bot*%
%TF.FilePolarity,Positive*%
%FSLAX46Y46*%
G04 Gerber Fmt 4.6, Leading zero omitted, Abs format (unit mm)*
G04 Created by KiCad (PCBNEW 9.0.7) date 2026-03-18 19:49:24*
%MOMM*%
%LPD*%
G01*
G04 APERTURE LIST*
%ADD10C,0.150000*%
%ADD11C,0.120000*%
G04 APERTURE END LIST*
D10*
X94527666Y-67034580D02*
X94575285Y-67082200D01*
X94575285Y-67082200D02*
X94718142Y-67129819D01*
X94718142Y-67129819D02*
X94813380Y-67129819D01*
X94813380Y-67129819D02*
X94956237Y-67082200D01*
X94956237Y-67082200D02*
X95051475Y-66986961D01*
X95051475Y-66986961D02*
X95099094Y-66891723D01*
X95099094Y-66891723D02*
X95146713Y-66701247D01*
X95146713Y-66701247D02*
X95146713Y-66558390D01*
X95146713Y-66558390D02*
X95099094Y-66367914D01*
X95099094Y-66367914D02*
X95051475Y-66272676D01*
X95051475Y-66272676D02*
X94956237Y-66177438D01*
X94956237Y-66177438D02*
X94813380Y-66129819D01*
X94813380Y-66129819D02*
X94718142Y-66129819D01*
X94718142Y-66129819D02*
X94575285Y-66177438D01*
X94575285Y-66177438D02*
X94527666Y-66225057D01*
X93622904Y-66129819D02*
X94099094Y-66129819D01*
X94099094Y-66129819D02*
X94146713Y-66606009D01*
X94146713Y-66606009D02*
X94099094Y-66558390D01*
X94099094Y-66558390D02*
X94003856Y-66510771D01*
X94003856Y-66510771D02*
X93765761Y-66510771D01*
X93765761Y-66510771D02*
X93670523Y-66558390D01*
X93670523Y-66558390D02*
X93622904Y-66606009D01*
X93622904Y-66606009D02*
X93575285Y-66701247D01*
X93575285Y-66701247D02*
X93575285Y-66939342D01*
X93575285Y-66939342D02*
X93622904Y-67034580D01*
X93622904Y-67034580D02*
X93670523Y-67082200D01*
X93670523Y-67082200D02*
X93765761Y-67129819D01*
X93765761Y-67129819D02*
X94003856Y-67129819D01*
X94003856Y-67129819D02*
X94099094Y-67082200D01*
X94099094Y-67082200D02*
X94146713Y-67034580D01*
X94527666Y-69193580D02*
X94575285Y-69241200D01*
X94575285Y-69241200D02*
X94718142Y-69288819D01*
X94718142Y-69288819D02*
X94813380Y-69288819D01*
X94813380Y-69288819D02*
X94956237Y-69241200D01*
X94956237Y-69241200D02*
X95051475Y-69145961D01*
X95051475Y-69145961D02*
X95099094Y-69050723D01*
X95099094Y-69050723D02*
X95146713Y-68860247D01*
X95146713Y-68860247D02*
X95146713Y-68717390D01*
X95146713Y-68717390D02*
X95099094Y-68526914D01*
X95099094Y-68526914D02*
X95051475Y-68431676D01*
X95051475Y-68431676D02*
X94956237Y-68336438D01*
X94956237Y-68336438D02*
X94813380Y-68288819D01*
X94813380Y-68288819D02*
X94718142Y-68288819D01*
X94718142Y-68288819D02*
X94575285Y-68336438D01*
X94575285Y-68336438D02*
X94527666Y-68384057D01*
X94194332Y-68288819D02*
X93575285Y-68288819D01*
X93575285Y-68288819D02*
X93908618Y-68669771D01*
X93908618Y-68669771D02*
X93765761Y-68669771D01*
X93765761Y-68669771D02*
X93670523Y-68717390D01*
X93670523Y-68717390D02*
X93622904Y-68765009D01*
X93622904Y-68765009D02*
X93575285Y-68860247D01*
X93575285Y-68860247D02*
X93575285Y-69098342D01*
X93575285Y-69098342D02*
X93622904Y-69193580D01*
X93622904Y-69193580D02*
X93670523Y-69241200D01*
X93670523Y-69241200D02*
X93765761Y-69288819D01*
X93765761Y-69288819D02*
X94051475Y-69288819D01*
X94051475Y-69288819D02*
X94146713Y-69241200D01*
X94146713Y-69241200D02*
X94194332Y-69193580D01*
X119706819Y-95138642D02*
X119230628Y-94805309D01*
X119706819Y-94567214D02*
X118706819Y-94567214D01*
X118706819Y-94567214D02*
X118706819Y-94948166D01*
X118706819Y-94948166D02*
X118754438Y-95043404D01*
X118754438Y-95043404D02*
X118802057Y-95091023D01*
X118802057Y-95091023D02*
X118897295Y-95138642D01*
X118897295Y-95138642D02*
X119040152Y-95138642D01*
X119040152Y-95138642D02*
X119135390Y-95091023D01*
X119135390Y-95091023D02*
X119183009Y-95043404D01*
X119183009Y-95043404D02*
X119230628Y-94948166D01*
X119230628Y-94948166D02*
X119230628Y-94567214D01*
X119706819Y-96091023D02*
X119706819Y-95519595D01*
X119706819Y-95805309D02*
X118706819Y-95805309D01*
X118706819Y-95805309D02*
X118849676Y-95710071D01*
X118849676Y-95710071D02*
X118944914Y-95614833D01*
X118944914Y-95614833D02*
X118992533Y-95519595D01*
X118706819Y-96948166D02*
X118706819Y-96757690D01*
X118706819Y-96757690D02*
X118754438Y-96662452D01*
X118754438Y-96662452D02*
X118802057Y-96614833D01*
X118802057Y-96614833D02*
X118944914Y-96519595D01*
X118944914Y-96519595D02*
X119135390Y-96471976D01*
X119135390Y-96471976D02*
X119516342Y-96471976D01*
X119516342Y-96471976D02*
X119611580Y-96519595D01*
X119611580Y-96519595D02*
X119659200Y-96567214D01*
X119659200Y-96567214D02*
X119706819Y-96662452D01*
X119706819Y-96662452D02*
X119706819Y-96852928D01*
X119706819Y-96852928D02*
X119659200Y-96948166D01*
X119659200Y-96948166D02*
X119611580Y-96995785D01*
X119611580Y-96995785D02*
X119516342Y-97043404D01*
X119516342Y-97043404D02*
X119278247Y-97043404D01*
X119278247Y-97043404D02*
X119183009Y-96995785D01*
X119183009Y-96995785D02*
X119135390Y-96948166D01*
X119135390Y-96948166D02*
X119087771Y-96852928D01*
X119087771Y-96852928D02*
X119087771Y-96662452D01*
X119087771Y-96662452D02*
X119135390Y-96567214D01*
X119135390Y-96567214D02*
X119183009Y-96519595D01*
X119183009Y-96519595D02*
X119278247Y-96471976D01*
X126499580Y-90147333D02*
X126547200Y-90099714D01*
X126547200Y-90099714D02*
X126594819Y-89956857D01*
X126594819Y-89956857D02*
X126594819Y-89861619D01*
X126594819Y-89861619D02*
X126547200Y-89718762D01*
X126547200Y-89718762D02*
X126451961Y-89623524D01*
X126451961Y-89623524D02*
X126356723Y-89575905D01*
X126356723Y-89575905D02*
X126166247Y-89528286D01*
X126166247Y-89528286D02*
X126023390Y-89528286D01*
X126023390Y-89528286D02*
X125832914Y-89575905D01*
X125832914Y-89575905D02*
X125737676Y-89623524D01*
X125737676Y-89623524D02*
X125642438Y-89718762D01*
X125642438Y-89718762D02*
X125594819Y-89861619D01*
X125594819Y-89861619D02*
X125594819Y-89956857D01*
X125594819Y-89956857D02*
X125642438Y-90099714D01*
X125642438Y-90099714D02*
X125690057Y-90147333D01*
X125594819Y-91004476D02*
X125594819Y-90814000D01*
X125594819Y-90814000D02*
X125642438Y-90718762D01*
X125642438Y-90718762D02*
X125690057Y-90671143D01*
X125690057Y-90671143D02*
X125832914Y-90575905D01*
X125832914Y-90575905D02*
X126023390Y-90528286D01*
X126023390Y-90528286D02*
X126404342Y-90528286D01*
X126404342Y-90528286D02*
X126499580Y-90575905D01*
X126499580Y-90575905D02*
X126547200Y-90623524D01*
X126547200Y-90623524D02*
X126594819Y-90718762D01*
X126594819Y-90718762D02*
X126594819Y-90909238D01*
X126594819Y-90909238D02*
X126547200Y-91004476D01*
X126547200Y-91004476D02*
X126499580Y-91052095D01*
X126499580Y-91052095D02*
X126404342Y-91099714D01*
X126404342Y-91099714D02*
X126166247Y-91099714D01*
X126166247Y-91099714D02*
X126071009Y-91052095D01*
X126071009Y-91052095D02*
X126023390Y-91004476D01*
X126023390Y-91004476D02*
X125975771Y-90909238D01*
X125975771Y-90909238D02*
X125975771Y-90718762D01*
X125975771Y-90718762D02*
X126023390Y-90623524D01*
X126023390Y-90623524D02*
X126071009Y-90575905D01*
X126071009Y-90575905D02*
X126166247Y-90528286D01*
X125223404Y-93023819D02*
X125223404Y-93833342D01*
X125223404Y-93833342D02*
X125175785Y-93928580D01*
X125175785Y-93928580D02*
X125128166Y-93976200D01*
X125128166Y-93976200D02*
X125032928Y-94023819D01*
X125032928Y-94023819D02*
X124842452Y-94023819D01*
X124842452Y-94023819D02*
X124747214Y-93976200D01*
X124747214Y-93976200D02*
X124699595Y-93928580D01*
X124699595Y-93928580D02*
X124651976Y-93833342D01*
X124651976Y-93833342D02*
X124651976Y-93023819D01*
X123747214Y-93357152D02*
X123747214Y-94023819D01*
X123985309Y-92976200D02*
X124223404Y-93690485D01*
X124223404Y-93690485D02*
X123604357Y-93690485D01*
X92114666Y-105613580D02*
X92162285Y-105661200D01*
X92162285Y-105661200D02*
X92305142Y-105708819D01*
X92305142Y-105708819D02*
X92400380Y-105708819D01*
X92400380Y-105708819D02*
X92543237Y-105661200D01*
X92543237Y-105661200D02*
X92638475Y-105565961D01*
X92638475Y-105565961D02*
X92686094Y-105470723D01*
X92686094Y-105470723D02*
X92733713Y-105280247D01*
X92733713Y-105280247D02*
X92733713Y-105137390D01*
X92733713Y-105137390D02*
X92686094Y-104946914D01*
X92686094Y-104946914D02*
X92638475Y-104851676D01*
X92638475Y-104851676D02*
X92543237Y-104756438D01*
X92543237Y-104756438D02*
X92400380Y-104708819D01*
X92400380Y-104708819D02*
X92305142Y-104708819D01*
X92305142Y-104708819D02*
X92162285Y-104756438D01*
X92162285Y-104756438D02*
X92114666Y-104804057D01*
X91257523Y-105042152D02*
X91257523Y-105708819D01*
X91495618Y-104661200D02*
X91733713Y-105375485D01*
X91733713Y-105375485D02*
X91114666Y-105375485D01*
X92114666Y-102311580D02*
X92162285Y-102359200D01*
X92162285Y-102359200D02*
X92305142Y-102406819D01*
X92305142Y-102406819D02*
X92400380Y-102406819D01*
X92400380Y-102406819D02*
X92543237Y-102359200D01*
X92543237Y-102359200D02*
X92638475Y-102263961D01*
X92638475Y-102263961D02*
X92686094Y-102168723D01*
X92686094Y-102168723D02*
X92733713Y-101978247D01*
X92733713Y-101978247D02*
X92733713Y-101835390D01*
X92733713Y-101835390D02*
X92686094Y-101644914D01*
X92686094Y-101644914D02*
X92638475Y-101549676D01*
X92638475Y-101549676D02*
X92543237Y-101454438D01*
X92543237Y-101454438D02*
X92400380Y-101406819D01*
X92400380Y-101406819D02*
X92305142Y-101406819D01*
X92305142Y-101406819D02*
X92162285Y-101454438D01*
X92162285Y-101454438D02*
X92114666Y-101502057D01*
X91781332Y-101406819D02*
X91114666Y-101406819D01*
X91114666Y-101406819D02*
X91543237Y-102406819D01*
X97702666Y-99009580D02*
X97750285Y-99057200D01*
X97750285Y-99057200D02*
X97893142Y-99104819D01*
X97893142Y-99104819D02*
X97988380Y-99104819D01*
X97988380Y-99104819D02*
X98131237Y-99057200D01*
X98131237Y-99057200D02*
X98226475Y-98961961D01*
X98226475Y-98961961D02*
X98274094Y-98866723D01*
X98274094Y-98866723D02*
X98321713Y-98676247D01*
X98321713Y-98676247D02*
X98321713Y-98533390D01*
X98321713Y-98533390D02*
X98274094Y-98342914D01*
X98274094Y-98342914D02*
X98226475Y-98247676D01*
X98226475Y-98247676D02*
X98131237Y-98152438D01*
X98131237Y-98152438D02*
X97988380Y-98104819D01*
X97988380Y-98104819D02*
X97893142Y-98104819D01*
X97893142Y-98104819D02*
X97750285Y-98152438D01*
X97750285Y-98152438D02*
X97702666Y-98200057D01*
X96750285Y-99104819D02*
X97321713Y-99104819D01*
X97035999Y-99104819D02*
X97035999Y-98104819D01*
X97035999Y-98104819D02*
X97131237Y-98247676D01*
X97131237Y-98247676D02*
X97226475Y-98342914D01*
X97226475Y-98342914D02*
X97321713Y-98390533D01*
X97702666Y-83134580D02*
X97750285Y-83182200D01*
X97750285Y-83182200D02*
X97893142Y-83229819D01*
X97893142Y-83229819D02*
X97988380Y-83229819D01*
X97988380Y-83229819D02*
X98131237Y-83182200D01*
X98131237Y-83182200D02*
X98226475Y-83086961D01*
X98226475Y-83086961D02*
X98274094Y-82991723D01*
X98274094Y-82991723D02*
X98321713Y-82801247D01*
X98321713Y-82801247D02*
X98321713Y-82658390D01*
X98321713Y-82658390D02*
X98274094Y-82467914D01*
X98274094Y-82467914D02*
X98226475Y-82372676D01*
X98226475Y-82372676D02*
X98131237Y-82277438D01*
X98131237Y-82277438D02*
X97988380Y-82229819D01*
X97988380Y-82229819D02*
X97893142Y-82229819D01*
X97893142Y-82229819D02*
X97750285Y-82277438D01*
X97750285Y-82277438D02*
X97702666Y-82325057D01*
X97321713Y-82325057D02*
X97274094Y-82277438D01*
X97274094Y-82277438D02*
X97178856Y-82229819D01*
X97178856Y-82229819D02*
X96940761Y-82229819D01*
X96940761Y-82229819D02*
X96845523Y-82277438D01*
X96845523Y-82277438D02*
X96797904Y-82325057D01*
X96797904Y-82325057D02*
X96750285Y-82420295D01*
X96750285Y-82420295D02*
X96750285Y-82515533D01*
X96750285Y-82515533D02*
X96797904Y-82658390D01*
X96797904Y-82658390D02*
X97369332Y-83229819D01*
X97369332Y-83229819D02*
X96750285Y-83229819D01*
D11*
%TO.C,C5*%
X97797252Y-65863800D02*
X97274748Y-65863800D01*
X97797252Y-67333800D02*
X97274748Y-67333800D01*
%TO.C,C3*%
X97797252Y-67895800D02*
X97274748Y-67895800D01*
X97797252Y-69365800D02*
X97274748Y-69365800D01*
%TO.C,R16*%
X116867000Y-96008564D02*
X116867000Y-95554436D01*
X118337000Y-96008564D02*
X118337000Y-95554436D01*
%TO.C,C6*%
X123725000Y-90575252D02*
X123725000Y-90052748D01*
X125195000Y-90575252D02*
X125195000Y-90052748D01*
%TO.C,U4*%
X123726500Y-96629000D02*
X125196500Y-96629000D01*
X125060752Y-94409000D02*
X123726500Y-94409000D01*
X125351500Y-94399000D02*
X125211500Y-94209000D01*
X125491500Y-94209000D01*
X125351500Y-94399000D01*
G36*
X125351500Y-94399000D02*
G01*
X125211500Y-94209000D01*
X125491500Y-94209000D01*
X125351500Y-94399000D01*
G37*
%TO.C,C4*%
X92209252Y-106199000D02*
X91686748Y-106199000D01*
X92209252Y-107669000D02*
X91686748Y-107669000D01*
%TO.C,C7*%
X92209252Y-102897000D02*
X91686748Y-102897000D01*
X92209252Y-104367000D02*
X91686748Y-104367000D01*
%TO.C,C1*%
X97797252Y-99595000D02*
X97274748Y-99595000D01*
X97797252Y-101065000D02*
X97274748Y-101065000D01*
%TO.C,C2*%
X97797252Y-83720000D02*
X97274748Y-83720000D01*
X97797252Y-85190000D02*
X97274748Y-85190000D01*
%TD*%
M02*
