%TF.GenerationSoftware,KiCad,Pcbnew,9.0.7*%
%TF.CreationDate,2026-03-18T19:49:24+01:00*%
%TF.ProjectId,Tang 41464 tester,54616e67-2034-4313-9436-342074657374,rev?*%
%TF.SameCoordinates,Original*%
%TF.FileFunction,Soldermask,Top*%
%TF.FilePolarity,Negative*%
%FSLAX46Y46*%
G04 Gerber Fmt 4.6, Leading zero omitted, Abs format (unit mm)*
G04 Created by KiCad (PCBNEW 9.0.7) date 2026-03-18 19:49:24*
%MOMM*%
%LPD*%
G01*
G04 APERTURE LIST*
G04 Aperture macros list*
%AMRoundRect*
0 Rectangle with rounded corners*
0 $1 Rounding radius*
0 $2 $3 $4 $5 $6 $7 $8 $9 X,Y pos of 4 corners*
0 Add a 4 corners polygon primitive as box body*
4,1,4,$2,$3,$4,$5,$6,$7,$8,$9,$2,$3,0*
0 Add four circle primitives for the rounded corners*
1,1,$1+$1,$2,$3*
1,1,$1+$1,$4,$5*
1,1,$1+$1,$6,$7*
1,1,$1+$1,$8,$9*
0 Add four rect primitives between the rounded corners*
20,1,$1+$1,$2,$3,$4,$5,0*
20,1,$1+$1,$4,$5,$6,$7,0*
20,1,$1+$1,$6,$7,$8,$9,0*
20,1,$1+$1,$8,$9,$2,$3,0*%
G04 Aperture macros list end*
%ADD10R,1.700000X1.700000*%
%ADD11C,1.700000*%
%ADD12RoundRect,0.100000X-0.100000X0.637500X-0.100000X-0.637500X0.100000X-0.637500X0.100000X0.637500X0*%
%ADD13RoundRect,0.250000X-0.262500X-0.450000X0.262500X-0.450000X0.262500X0.450000X-0.262500X0.450000X0*%
%ADD14RoundRect,0.250000X-0.950000X-0.550000X0.950000X-0.550000X0.950000X0.550000X-0.950000X0.550000X0*%
%ADD15O,2.400000X1.600000*%
%ADD16RoundRect,0.243750X0.243750X0.456250X-0.243750X0.456250X-0.243750X-0.456250X0.243750X-0.456250X0*%
%ADD17RoundRect,0.250000X0.262500X0.450000X-0.262500X0.450000X-0.262500X-0.450000X0.262500X-0.450000X0*%
%ADD18R,2.000000X1.600000*%
%ADD19O,2.000000X1.600000*%
G04 APERTURE END LIST*
D10*
%TO.C,J3*%
X139954000Y-61214000D03*
D11*
X139954000Y-63754000D03*
X139954000Y-66294000D03*
X139954000Y-68834000D03*
X139954000Y-71374000D03*
X139954000Y-73914000D03*
X139954000Y-76454000D03*
X139954000Y-78994000D03*
X139954000Y-81534000D03*
X139954000Y-84074000D03*
X139954000Y-86614000D03*
X139954000Y-89154000D03*
X139954000Y-91694000D03*
X139954000Y-94234000D03*
X139954000Y-96774000D03*
X139954000Y-99314000D03*
X139954000Y-101854000D03*
X139954000Y-104394000D03*
X139954000Y-106934000D03*
%TD*%
D12*
%TO.C,U3*%
X100857000Y-64744600D03*
X100207000Y-64744600D03*
X99557000Y-64744600D03*
X98907000Y-64744600D03*
X98257000Y-64744600D03*
X97607000Y-64744600D03*
X96957000Y-64744600D03*
X96307000Y-64744600D03*
X95657000Y-64744600D03*
X95007000Y-64744600D03*
X94357000Y-64744600D03*
X93707000Y-64744600D03*
X93707000Y-70469600D03*
X94357000Y-70469600D03*
X95007000Y-70469600D03*
X95657000Y-70469600D03*
X96307000Y-70469600D03*
X96957000Y-70469600D03*
X97607000Y-70469600D03*
X98257000Y-70469600D03*
X98907000Y-70469600D03*
X99557000Y-70469600D03*
X100207000Y-70469600D03*
X100857000Y-70469600D03*
%TD*%
D13*
%TO.C,R23*%
X104394000Y-105410000D03*
X106219000Y-105410000D03*
%TD*%
%TO.C,R20*%
X107950000Y-101600000D03*
X109775000Y-101600000D03*
%TD*%
%TO.C,R13*%
X107950000Y-81915000D03*
X109775000Y-81915000D03*
%TD*%
%TO.C,R7*%
X104394000Y-83134200D03*
X106219000Y-83134200D03*
%TD*%
%TO.C,R14*%
X107950000Y-96520000D03*
X109775000Y-96520000D03*
%TD*%
%TO.C,R17*%
X104394000Y-97790000D03*
X106219000Y-97790000D03*
%TD*%
D14*
%TO.C,J2*%
X120650000Y-70944000D03*
D15*
X120650000Y-73484000D03*
X120650000Y-76024000D03*
X120650000Y-78564000D03*
X120650000Y-81104000D03*
X120650000Y-83644000D03*
X120650000Y-86184000D03*
X120650000Y-88724000D03*
X120650000Y-91264000D03*
X128270000Y-91264000D03*
X128270000Y-88724000D03*
X128270000Y-86184000D03*
X128270000Y-83644000D03*
X128270000Y-81104000D03*
X128270000Y-78564000D03*
X128270000Y-76024000D03*
X128270000Y-73484000D03*
X128270000Y-70944000D03*
%TD*%
D13*
%TO.C,R8*%
X107950000Y-84456700D03*
X109775000Y-84456700D03*
%TD*%
D12*
%TO.C,U2*%
X100207000Y-81534000D03*
X99557000Y-81534000D03*
X98907000Y-81534000D03*
X98257000Y-81534000D03*
X97607000Y-81534000D03*
X96957000Y-81534000D03*
X96307000Y-81534000D03*
X95657000Y-81534000D03*
X95007000Y-81534000D03*
X94357000Y-81534000D03*
X94357000Y-87259000D03*
X95007000Y-87259000D03*
X95657000Y-87259000D03*
X96307000Y-87259000D03*
X96957000Y-87259000D03*
X97607000Y-87259000D03*
X98257000Y-87259000D03*
X98907000Y-87259000D03*
X99557000Y-87259000D03*
X100207000Y-87259000D03*
%TD*%
%TO.C,U1*%
X100207000Y-97401000D03*
X99557000Y-97401000D03*
X98907000Y-97401000D03*
X98257000Y-97401000D03*
X97607000Y-97401000D03*
X96957000Y-97401000D03*
X96307000Y-97401000D03*
X95657000Y-97401000D03*
X95007000Y-97401000D03*
X94357000Y-97401000D03*
X94357000Y-103126000D03*
X95007000Y-103126000D03*
X95657000Y-103126000D03*
X96307000Y-103126000D03*
X96957000Y-103126000D03*
X97607000Y-103126000D03*
X98257000Y-103126000D03*
X98907000Y-103126000D03*
X99557000Y-103126000D03*
X100207000Y-103126000D03*
%TD*%
D16*
%TO.C,D1*%
X106219000Y-89408000D03*
X104344000Y-89408000D03*
%TD*%
D13*
%TO.C,R2*%
X107950000Y-93954600D03*
X109775000Y-93954600D03*
%TD*%
%TO.C,R22*%
X107950000Y-104140000D03*
X109775000Y-104140000D03*
%TD*%
D17*
%TO.C,R11*%
X109829600Y-63398400D03*
X108004600Y-63398400D03*
%TD*%
D13*
%TO.C,R1*%
X107950000Y-79375000D03*
X109775000Y-79375000D03*
%TD*%
%TO.C,R19*%
X104394000Y-100330000D03*
X106219000Y-100330000D03*
%TD*%
%TO.C,R15*%
X107950000Y-89408000D03*
X109775000Y-89408000D03*
%TD*%
%TO.C,R5*%
X107987500Y-68624800D03*
X109812500Y-68624800D03*
%TD*%
%TO.C,R10*%
X107950000Y-86996700D03*
X109775000Y-86996700D03*
%TD*%
%TO.C,R18*%
X107950000Y-99060000D03*
X109775000Y-99060000D03*
%TD*%
%TO.C,R6*%
X107987500Y-66032300D03*
X109812500Y-66032300D03*
%TD*%
%TO.C,R24*%
X107950000Y-106680000D03*
X109775000Y-106680000D03*
%TD*%
D17*
%TO.C,R12*%
X109829600Y-60858400D03*
X108004600Y-60858400D03*
%TD*%
D18*
%TO.C,J1*%
X64000000Y-59370000D03*
D19*
X64000000Y-61910000D03*
X64000000Y-64450000D03*
X64000000Y-66990000D03*
X64000000Y-69530000D03*
X64000000Y-72070000D03*
X64000000Y-74610000D03*
X64000000Y-77150000D03*
X64000000Y-79690000D03*
X64000000Y-82230000D03*
X64000000Y-84770000D03*
X64000000Y-87310000D03*
X64000000Y-89850000D03*
X64000000Y-92390000D03*
X64000000Y-94930000D03*
X64000000Y-97470000D03*
X64000000Y-100010000D03*
X64000000Y-102550000D03*
X64000000Y-105090000D03*
X64000000Y-107630000D03*
X84320000Y-107630000D03*
X84320000Y-105090000D03*
X84320000Y-102550000D03*
X84320000Y-100010000D03*
X84320000Y-97470000D03*
X84320000Y-94930000D03*
X84320000Y-92390000D03*
X84320000Y-89850000D03*
X84320000Y-87310000D03*
X84320000Y-84770000D03*
X84320000Y-82230000D03*
X84320000Y-79690000D03*
X84320000Y-77150000D03*
X84320000Y-74610000D03*
X84320000Y-72070000D03*
X84320000Y-69530000D03*
X84320000Y-66990000D03*
X84320000Y-64450000D03*
X84320000Y-61910000D03*
X84320000Y-59370000D03*
%TD*%
D13*
%TO.C,R3*%
X107987500Y-71164800D03*
X109812500Y-71164800D03*
%TD*%
%TO.C,R4*%
X104394000Y-69894800D03*
X106219000Y-69894800D03*
%TD*%
%TO.C,R9*%
X104394000Y-85726700D03*
X106219000Y-85726700D03*
%TD*%
%TO.C,R21*%
X104394000Y-102870000D03*
X106219000Y-102870000D03*
%TD*%
M02*
