%TF.GenerationSoftware,KiCad,Pcbnew,9.0.7*%
%TF.CreationDate,2026-03-18T19:49:24+01:00*%
%TF.ProjectId,Tang 41464 tester,54616e67-2034-4313-9436-342074657374,rev?*%
%TF.SameCoordinates,Original*%
%TF.FileFunction,Copper,L1,Top*%
%TF.FilePolarity,Positive*%
%FSLAX46Y46*%
G04 Gerber Fmt 4.6, Leading zero omitted, Abs format (unit mm)*
G04 Created by KiCad (PCBNEW 9.0.7) date 2026-03-18 19:49:24*
%MOMM*%
%LPD*%
G01*
G04 APERTURE LIST*
G04 Aperture macros list*
%AMRoundRect*
0 Rectangle with rounded corners*
0 $1 Rounding radius*
0 $2 $3 $4 $5 $6 $7 $8 $9 X,Y pos of 4 corners*
0 Add a 4 corners polygon primitive as box body*
4,1,4,$2,$3,$4,$5,$6,$7,$8,$9,$2,$3,0*
0 Add four circle primitives for the rounded corners*
1,1,$1+$1,$2,$3*
1,1,$1+$1,$4,$5*
1,1,$1+$1,$6,$7*
1,1,$1+$1,$8,$9*
0 Add four rect primitives between the rounded corners*
20,1,$1+$1,$2,$3,$4,$5,0*
20,1,$1+$1,$4,$5,$6,$7,0*
20,1,$1+$1,$6,$7,$8,$9,0*
20,1,$1+$1,$8,$9,$2,$3,0*%
G04 Aperture macros list end*
%TA.AperFunction,ComponentPad*%
%ADD10R,1.700000X1.700000*%
%TD*%
%TA.AperFunction,ComponentPad*%
%ADD11C,1.700000*%
%TD*%
%TA.AperFunction,SMDPad,CuDef*%
%ADD12RoundRect,0.100000X-0.100000X0.637500X-0.100000X-0.637500X0.100000X-0.637500X0.100000X0.637500X0*%
%TD*%
%TA.AperFunction,SMDPad,CuDef*%
%ADD13RoundRect,0.250000X-0.262500X-0.450000X0.262500X-0.450000X0.262500X0.450000X-0.262500X0.450000X0*%
%TD*%
%TA.AperFunction,ComponentPad*%
%ADD14RoundRect,0.250000X-0.950000X-0.550000X0.950000X-0.550000X0.950000X0.550000X-0.950000X0.550000X0*%
%TD*%
%TA.AperFunction,ComponentPad*%
%ADD15O,2.400000X1.600000*%
%TD*%
%TA.AperFunction,SMDPad,CuDef*%
%ADD16RoundRect,0.243750X0.243750X0.456250X-0.243750X0.456250X-0.243750X-0.456250X0.243750X-0.456250X0*%
%TD*%
%TA.AperFunction,SMDPad,CuDef*%
%ADD17RoundRect,0.250000X0.262500X0.450000X-0.262500X0.450000X-0.262500X-0.450000X0.262500X-0.450000X0*%
%TD*%
%TA.AperFunction,ComponentPad*%
%ADD18R,2.000000X1.600000*%
%TD*%
%TA.AperFunction,ComponentPad*%
%ADD19O,2.000000X1.600000*%
%TD*%
%TA.AperFunction,ViaPad*%
%ADD20C,0.600000*%
%TD*%
%TA.AperFunction,Conductor*%
%ADD21C,0.254000*%
%TD*%
%TA.AperFunction,Conductor*%
%ADD22C,0.381000*%
%TD*%
%TA.AperFunction,Conductor*%
%ADD23C,0.508000*%
%TD*%
%TA.AperFunction,Conductor*%
%ADD24C,0.200000*%
%TD*%
G04 APERTURE END LIST*
D10*
%TO.P,J3,1,Pin_1*%
%TO.N,/OE*%
X139954000Y-61214000D03*
D11*
%TO.P,J3,2,Pin_2*%
%TO.N,Net-(J2-Pin_2)*%
X139954000Y-63754000D03*
%TO.P,J3,3,Pin_3*%
%TO.N,Net-(J2-Pin_3)*%
X139954000Y-66294000D03*
%TO.P,J3,4,Pin_4*%
%TO.N,/WE*%
X139954000Y-68834000D03*
%TO.P,J3,5,Pin_5*%
%TO.N,/RAS*%
X139954000Y-71374000D03*
%TO.P,J3,6,Pin_6*%
%TO.N,/ADDR6*%
X139954000Y-73914000D03*
%TO.P,J3,7,Pin_7*%
%TO.N,/ADDR5*%
X139954000Y-76454000D03*
%TO.P,J3,8,Pin_8*%
%TO.N,/ADDR4*%
X139954000Y-78994000D03*
%TO.P,J3,9,Pin_9*%
%TO.N,Net-(D1-A)*%
X139954000Y-81534000D03*
%TO.P,J3,10,Pin_10*%
%TO.N,/ADDR7*%
X139954000Y-84074000D03*
%TO.P,J3,11,Pin_11*%
%TO.N,/ADDR3*%
X139954000Y-86614000D03*
%TO.P,J3,12,Pin_12*%
%TO.N,/ADDR2*%
X139954000Y-89154000D03*
%TO.P,J3,13,Pin_13*%
%TO.N,/ADDR1*%
X139954000Y-91694000D03*
%TO.P,J3,14,Pin_14*%
%TO.N,/ADDR0*%
X139954000Y-94234000D03*
%TO.P,J3,15,Pin_15*%
%TO.N,Net-(J2-Pin_15)*%
X139954000Y-96774000D03*
%TO.P,J3,16,Pin_16*%
%TO.N,/CAS*%
X139954000Y-99314000D03*
%TO.P,J3,17,Pin_17*%
%TO.N,Net-(J2-Pin_17)*%
X139954000Y-101854000D03*
%TO.P,J3,18,Pin_18*%
%TO.N,GND*%
X139954000Y-104394000D03*
%TO.P,J3,19,Pin_19*%
%TO.N,/OSCILLOSCOPE TRIGGER*%
X139954000Y-106934000D03*
%TD*%
D12*
%TO.P,U3,1,V_{CCA}*%
%TO.N,+3V3*%
X100857000Y-64744600D03*
%TO.P,U3,2,DIR*%
%TO.N,/DRAM I{slash}O1..4 CHIP DIR*%
X100207000Y-64744600D03*
%TO.P,U3,3,A1*%
%TO.N,/DRAM I{slash}O1*%
X99557000Y-64744600D03*
%TO.P,U3,4,A2*%
%TO.N,/DRAM I{slash}O2*%
X98907000Y-64744600D03*
%TO.P,U3,5,A3*%
%TO.N,/DRAM I{slash}O3*%
X98257000Y-64744600D03*
%TO.P,U3,6,A4*%
%TO.N,/DRAM I{slash}O4*%
X97607000Y-64744600D03*
%TO.P,U3,7,A5*%
%TO.N,GND*%
X96957000Y-64744600D03*
%TO.P,U3,8,A6*%
X96307000Y-64744600D03*
%TO.P,U3,9,A7*%
X95657000Y-64744600D03*
%TO.P,U3,10,A8*%
X95007000Y-64744600D03*
%TO.P,U3,11,GND*%
X94357000Y-64744600D03*
%TO.P,U3,12,GND*%
X93707000Y-64744600D03*
%TO.P,U3,13,GND*%
X93707000Y-70469600D03*
%TO.P,U3,14,B8*%
X94357000Y-70469600D03*
%TO.P,U3,15,B7*%
X95007000Y-70469600D03*
%TO.P,U3,16,B6*%
X95657000Y-70469600D03*
%TO.P,U3,17,B5*%
X96307000Y-70469600D03*
%TO.P,U3,18,B4*%
%TO.N,/I{slash}O4*%
X96957000Y-70469600D03*
%TO.P,U3,19,B3*%
%TO.N,/I{slash}O3*%
X97607000Y-70469600D03*
%TO.P,U3,20,B2*%
%TO.N,/I{slash}O2*%
X98257000Y-70469600D03*
%TO.P,U3,21,B1*%
%TO.N,/I{slash}O1*%
X98907000Y-70469600D03*
%TO.P,U3,22,~{OE}*%
%TO.N,/DRAM I{slash}O1..4 CHIP OE*%
X99557000Y-70469600D03*
%TO.P,U3,23,V_{CCB}*%
%TO.N,+5V*%
X100207000Y-70469600D03*
%TO.P,U3,24,V_{CCB}*%
X100857000Y-70469600D03*
%TD*%
D13*
%TO.P,R23,1*%
%TO.N,Net-(U1-B6)*%
X104394000Y-105410000D03*
%TO.P,R23,2*%
%TO.N,/ADDR6*%
X106219000Y-105410000D03*
%TD*%
%TO.P,R20,1*%
%TO.N,Net-(U1-B3)*%
X107950000Y-101600000D03*
%TO.P,R20,2*%
%TO.N,/ADDR3*%
X109775000Y-101600000D03*
%TD*%
%TO.P,R13,1*%
%TO.N,/DRAM OE{slash}WE{slash}RAS{slash}CAS CHIP CE*%
X107950000Y-81915000D03*
%TO.P,R13,2*%
%TO.N,+3V3*%
X109775000Y-81915000D03*
%TD*%
%TO.P,R7,1*%
%TO.N,Net-(U2-B0)*%
X104394000Y-83134200D03*
%TO.P,R7,2*%
%TO.N,/OE*%
X106219000Y-83134200D03*
%TD*%
%TO.P,R14,1*%
%TO.N,/DRAM ADDR CHIP CE*%
X107950000Y-96520000D03*
%TO.P,R14,2*%
%TO.N,+3V3*%
X109775000Y-96520000D03*
%TD*%
%TO.P,R17,1*%
%TO.N,Net-(U1-B0)*%
X104394000Y-97790000D03*
%TO.P,R17,2*%
%TO.N,/ADDR0*%
X106219000Y-97790000D03*
%TD*%
D14*
%TO.P,J2,1,Pin_1*%
%TO.N,/OE*%
X120650000Y-70944000D03*
D15*
%TO.P,J2,2,Pin_2*%
%TO.N,Net-(J2-Pin_2)*%
X120650000Y-73484000D03*
%TO.P,J2,3,Pin_3*%
%TO.N,Net-(J2-Pin_3)*%
X120650000Y-76024000D03*
%TO.P,J2,4,Pin_4*%
%TO.N,/WE*%
X120650000Y-78564000D03*
%TO.P,J2,5,Pin_5*%
%TO.N,/RAS*%
X120650000Y-81104000D03*
%TO.P,J2,6,Pin_6*%
%TO.N,/ADDR6*%
X120650000Y-83644000D03*
%TO.P,J2,7,Pin_7*%
%TO.N,/ADDR5*%
X120650000Y-86184000D03*
%TO.P,J2,8,Pin_8*%
%TO.N,/ADDR4*%
X120650000Y-88724000D03*
%TO.P,J2,9,Pin_9*%
%TO.N,Net-(D1-A)*%
X120650000Y-91264000D03*
%TO.P,J2,10,Pin_10*%
%TO.N,/ADDR7*%
X128270000Y-91264000D03*
%TO.P,J2,11,Pin_11*%
%TO.N,/ADDR3*%
X128270000Y-88724000D03*
%TO.P,J2,12,Pin_12*%
%TO.N,/ADDR2*%
X128270000Y-86184000D03*
%TO.P,J2,13,Pin_13*%
%TO.N,/ADDR1*%
X128270000Y-83644000D03*
%TO.P,J2,14,Pin_14*%
%TO.N,/ADDR0*%
X128270000Y-81104000D03*
%TO.P,J2,15,Pin_15*%
%TO.N,Net-(J2-Pin_15)*%
X128270000Y-78564000D03*
%TO.P,J2,16,Pin_16*%
%TO.N,/CAS*%
X128270000Y-76024000D03*
%TO.P,J2,17,Pin_17*%
%TO.N,Net-(J2-Pin_17)*%
X128270000Y-73484000D03*
%TO.P,J2,18,Pin_18*%
%TO.N,GND*%
X128270000Y-70944000D03*
%TD*%
D13*
%TO.P,R8,1*%
%TO.N,Net-(U2-B1)*%
X107950000Y-84456700D03*
%TO.P,R8,2*%
%TO.N,/WE*%
X109775000Y-84456700D03*
%TD*%
D12*
%TO.P,U2,1,A->B*%
%TO.N,Net-(U2-A->B)*%
X100207000Y-81534000D03*
%TO.P,U2,2,A0*%
%TO.N,/DRAM OE*%
X99557000Y-81534000D03*
%TO.P,U2,3,A1*%
%TO.N,/DRAM WE*%
X98907000Y-81534000D03*
%TO.P,U2,4,A2*%
%TO.N,/DRAM RAS*%
X98257000Y-81534000D03*
%TO.P,U2,5,A3*%
%TO.N,/DRAM CAS*%
X97607000Y-81534000D03*
%TO.P,U2,6,A4*%
%TO.N,GND*%
X96957000Y-81534000D03*
%TO.P,U2,7,A5*%
X96307000Y-81534000D03*
%TO.P,U2,8,A6*%
X95657000Y-81534000D03*
%TO.P,U2,9,A7*%
X95007000Y-81534000D03*
%TO.P,U2,10,GND*%
X94357000Y-81534000D03*
%TO.P,U2,11,B7*%
%TO.N,unconnected-(U2-B7-Pad11)*%
X94357000Y-87259000D03*
%TO.P,U2,12,B6*%
%TO.N,unconnected-(U2-B6-Pad12)*%
X95007000Y-87259000D03*
%TO.P,U2,13,B5*%
%TO.N,unconnected-(U2-B5-Pad13)*%
X95657000Y-87259000D03*
%TO.P,U2,14,B4*%
%TO.N,unconnected-(U2-B4-Pad14)*%
X96307000Y-87259000D03*
%TO.P,U2,15,B3*%
%TO.N,Net-(U2-B3)*%
X96957000Y-87259000D03*
%TO.P,U2,16,B2*%
%TO.N,Net-(U2-B2)*%
X97607000Y-87259000D03*
%TO.P,U2,17,B1*%
%TO.N,Net-(U2-B1)*%
X98257000Y-87259000D03*
%TO.P,U2,18,B0*%
%TO.N,Net-(U2-B0)*%
X98907000Y-87259000D03*
%TO.P,U2,19,CE*%
%TO.N,/DRAM OE{slash}WE{slash}RAS{slash}CAS CHIP CE*%
X99557000Y-87259000D03*
%TO.P,U2,20,VCC*%
%TO.N,+5V*%
X100207000Y-87259000D03*
%TD*%
%TO.P,U1,1,A->B*%
%TO.N,Net-(U1-A->B)*%
X100207000Y-97401000D03*
%TO.P,U1,2,A0*%
%TO.N,/DRAM ADDR0*%
X99557000Y-97401000D03*
%TO.P,U1,3,A1*%
%TO.N,/DRAM ADDR1*%
X98907000Y-97401000D03*
%TO.P,U1,4,A2*%
%TO.N,/DRAM ADDR2*%
X98257000Y-97401000D03*
%TO.P,U1,5,A3*%
%TO.N,/DRAM ADDR3*%
X97607000Y-97401000D03*
%TO.P,U1,6,A4*%
%TO.N,/DRAM ADDR4*%
X96957000Y-97401000D03*
%TO.P,U1,7,A5*%
%TO.N,/DRAM ADDR5*%
X96307000Y-97401000D03*
%TO.P,U1,8,A6*%
%TO.N,/DRAM ADDR6*%
X95657000Y-97401000D03*
%TO.P,U1,9,A7*%
%TO.N,/DRAM ADDR7*%
X95007000Y-97401000D03*
%TO.P,U1,10,GND*%
%TO.N,GND*%
X94357000Y-97401000D03*
%TO.P,U1,11,B7*%
%TO.N,Net-(U1-B7)*%
X94357000Y-103126000D03*
%TO.P,U1,12,B6*%
%TO.N,Net-(U1-B6)*%
X95007000Y-103126000D03*
%TO.P,U1,13,B5*%
%TO.N,Net-(U1-B5)*%
X95657000Y-103126000D03*
%TO.P,U1,14,B4*%
%TO.N,Net-(U1-B4)*%
X96307000Y-103126000D03*
%TO.P,U1,15,B3*%
%TO.N,Net-(U1-B3)*%
X96957000Y-103126000D03*
%TO.P,U1,16,B2*%
%TO.N,Net-(U1-B2)*%
X97607000Y-103126000D03*
%TO.P,U1,17,B1*%
%TO.N,Net-(U1-B1)*%
X98257000Y-103126000D03*
%TO.P,U1,18,B0*%
%TO.N,Net-(U1-B0)*%
X98907000Y-103126000D03*
%TO.P,U1,19,CE*%
%TO.N,/DRAM ADDR CHIP CE*%
X99557000Y-103126000D03*
%TO.P,U1,20,VCC*%
%TO.N,+5V*%
X100207000Y-103126000D03*
%TD*%
D16*
%TO.P,D1,1,K*%
%TO.N,Net-(D1-K)*%
X106219000Y-89408000D03*
%TO.P,D1,2,A*%
%TO.N,Net-(D1-A)*%
X104344000Y-89408000D03*
%TD*%
D13*
%TO.P,R2,1*%
%TO.N,Net-(U1-A->B)*%
X107950000Y-93954600D03*
%TO.P,R2,2*%
%TO.N,+3V3*%
X109775000Y-93954600D03*
%TD*%
%TO.P,R22,1*%
%TO.N,Net-(U1-B5)*%
X107950000Y-104140000D03*
%TO.P,R22,2*%
%TO.N,/ADDR5*%
X109775000Y-104140000D03*
%TD*%
D17*
%TO.P,R11,1*%
%TO.N,+3V3*%
X109829600Y-63398400D03*
%TO.P,R11,2*%
%TO.N,/DRAM I{slash}O1..4 CHIP OE*%
X108004600Y-63398400D03*
%TD*%
D13*
%TO.P,R1,1*%
%TO.N,Net-(U2-A->B)*%
X107950000Y-79375000D03*
%TO.P,R1,2*%
%TO.N,+3V3*%
X109775000Y-79375000D03*
%TD*%
%TO.P,R19,1*%
%TO.N,Net-(U1-B2)*%
X104394000Y-100330000D03*
%TO.P,R19,2*%
%TO.N,/ADDR2*%
X106219000Y-100330000D03*
%TD*%
%TO.P,R15,1*%
%TO.N,Net-(D1-K)*%
X107950000Y-89408000D03*
%TO.P,R15,2*%
%TO.N,GND*%
X109775000Y-89408000D03*
%TD*%
%TO.P,R5,1*%
%TO.N,/I{slash}O2*%
X107987500Y-68624800D03*
%TO.P,R5,2*%
%TO.N,Net-(J2-Pin_3)*%
X109812500Y-68624800D03*
%TD*%
%TO.P,R10,1*%
%TO.N,Net-(U2-B3)*%
X107950000Y-86996700D03*
%TO.P,R10,2*%
%TO.N,/CAS*%
X109775000Y-86996700D03*
%TD*%
%TO.P,R18,1*%
%TO.N,Net-(U1-B1)*%
X107950000Y-99060000D03*
%TO.P,R18,2*%
%TO.N,/ADDR1*%
X109775000Y-99060000D03*
%TD*%
%TO.P,R6,1*%
%TO.N,/I{slash}O1*%
X107987500Y-66032300D03*
%TO.P,R6,2*%
%TO.N,Net-(J2-Pin_2)*%
X109812500Y-66032300D03*
%TD*%
%TO.P,R24,1*%
%TO.N,Net-(U1-B7)*%
X107950000Y-106680000D03*
%TO.P,R24,2*%
%TO.N,/ADDR7*%
X109775000Y-106680000D03*
%TD*%
D17*
%TO.P,R12,1*%
%TO.N,+3V3*%
X109829600Y-60858400D03*
%TO.P,R12,2*%
%TO.N,/DRAM I{slash}O1..4 CHIP DIR*%
X108004600Y-60858400D03*
%TD*%
D18*
%TO.P,J1,1,73_IOT40A*%
%TO.N,unconnected-(J1-73_IOT40A-Pad1)*%
X64000000Y-59370000D03*
D19*
%TO.P,J1,2,74_IOT34B*%
%TO.N,unconnected-(J1-74_IOT34B-Pad2)*%
X64000000Y-61910000D03*
%TO.P,J1,3,75_IOT34A*%
%TO.N,unconnected-(J1-75_IOT34A-Pad3)*%
X64000000Y-64450000D03*
%TO.P,J1,4,85_IOT4B*%
%TO.N,/DRAM I{slash}O1*%
X64000000Y-66990000D03*
%TO.P,J1,5,77_IOT30A*%
%TO.N,/DRAM I{slash}O2*%
X64000000Y-69530000D03*
%TO.P,J1,6,15_IOL46A*%
%TO.N,unconnected-(J1-15_IOL46A-Pad6)*%
X64000000Y-72070000D03*
%TO.P,J1,7,16_IOL47B*%
%TO.N,unconnected-(J1-16_IOL47B-Pad7)*%
X64000000Y-74610000D03*
%TO.P,J1,8,27_IOB8A*%
%TO.N,/DRAM OE*%
X64000000Y-77150000D03*
%TO.P,J1,9,28_IOB8B*%
%TO.N,/DRAM RAS*%
X64000000Y-79690000D03*
%TO.P,J1,10,25_IOB6A*%
%TO.N,/DRAM OE{slash}WE{slash}RAS{slash}CAS CHIP CE*%
X64000000Y-82230000D03*
%TO.P,J1,11,26_IOB6B*%
%TO.N,/DRAM ADDR1*%
X64000000Y-84770000D03*
%TO.P,J1,12,29_IOB14A*%
%TO.N,/DRAM ADDR3*%
X64000000Y-87310000D03*
%TO.P,J1,13,30_IOB14A*%
%TO.N,/DRAM ADDR5*%
X64000000Y-89850000D03*
%TO.P,J1,14,31_IOB29A*%
%TO.N,/DRAM ADDR6*%
X64000000Y-92390000D03*
%TO.P,J1,15,17_IOL49A*%
%TO.N,unconnected-(J1-17_IOL49A-Pad15)*%
X64000000Y-94930000D03*
%TO.P,J1,16,20_IOL51B*%
%TO.N,/DRAM POWER SW*%
X64000000Y-97470000D03*
%TO.P,J1,17,19_IOL51A*%
%TO.N,/OSCILLOSCOPE TRIGGER*%
X64000000Y-100010000D03*
%TO.P,J1,18,18_IOL49B*%
%TO.N,unconnected-(J1-18_IOL49B-Pad18)*%
X64000000Y-102550000D03*
%TO.P,J1,19,3V3*%
%TO.N,+3V3*%
X64000000Y-105090000D03*
%TO.P,J1,20,GND*%
%TO.N,GND*%
X64000000Y-107630000D03*
%TO.P,J1,21,52_IOR39A*%
%TO.N,/DRAM ADDR CHIP CE*%
X84320000Y-107630000D03*
%TO.P,J1,22,53_IOR38B*%
%TO.N,/DRAM ADDR7*%
X84320000Y-105090000D03*
%TO.P,J1,23,71_IOT44A*%
%TO.N,unconnected-(J1-71_IOT44A-Pad23)*%
X84320000Y-102550000D03*
%TO.P,J1,24,72_IOT40B*%
%TO.N,unconnected-(J1-72_IOT40B-Pad24)*%
X84320000Y-100010000D03*
%TO.P,J1,25,3V3*%
%TO.N,+3V3*%
X84320000Y-97470000D03*
%TO.P,J1,26,GND*%
%TO.N,GND*%
X84320000Y-94930000D03*
%TO.P,J1,27,79_IOT27B*%
%TO.N,unconnected-(J1-79_IOT27B-Pad27)*%
X84320000Y-92390000D03*
%TO.P,J1,28,86_IOT4A*%
%TO.N,unconnected-(J1-86_IOT4A-Pad28)*%
X84320000Y-89850000D03*
%TO.P,J1,29,49_IOR49A*%
%TO.N,/DRAM ADDR4*%
X84320000Y-87310000D03*
%TO.P,J1,30,55_IOR36B*%
%TO.N,/DRAM ADDR2*%
X84320000Y-84770000D03*
%TO.P,J1,31,48_IOR49B*%
%TO.N,/DRAM ADDR0*%
X84320000Y-82230000D03*
%TO.P,J1,32,51_IOR45A*%
%TO.N,/DRAM CAS*%
X84320000Y-79690000D03*
%TO.P,J1,33,54_IOR38A*%
%TO.N,/DRAM WE*%
X84320000Y-77150000D03*
%TO.P,J1,34,56_IOR36A*%
%TO.N,/DRAM I{slash}O1..4 CHIP DIR*%
X84320000Y-74610000D03*
%TO.P,J1,35,41_IOB43A*%
%TO.N,/DRAM I{slash}O1..4 CHIP OE*%
X84320000Y-72070000D03*
%TO.P,J1,36,42_IOB42B*%
%TO.N,/DRAM I{slash}O4*%
X84320000Y-69530000D03*
%TO.P,J1,37,80_IOT27A*%
%TO.N,/DRAM I{slash}O3*%
X84320000Y-66990000D03*
%TO.P,J1,38,76_IOT30B*%
%TO.N,unconnected-(J1-76_IOT30B-Pad38)*%
X84320000Y-64450000D03*
%TO.P,J1,39,GND*%
%TO.N,GND*%
X84320000Y-61910000D03*
%TO.P,J1,40,5V*%
%TO.N,+5V*%
X84320000Y-59370000D03*
%TD*%
D13*
%TO.P,R3,1*%
%TO.N,/I{slash}O4*%
X107987500Y-71164800D03*
%TO.P,R3,2*%
%TO.N,Net-(J2-Pin_17)*%
X109812500Y-71164800D03*
%TD*%
%TO.P,R4,1*%
%TO.N,/I{slash}O3*%
X104394000Y-69894800D03*
%TO.P,R4,2*%
%TO.N,Net-(J2-Pin_15)*%
X106219000Y-69894800D03*
%TD*%
%TO.P,R9,1*%
%TO.N,Net-(U2-B2)*%
X104394000Y-85726700D03*
%TO.P,R9,2*%
%TO.N,/RAS*%
X106219000Y-85726700D03*
%TD*%
%TO.P,R21,1*%
%TO.N,Net-(U1-B4)*%
X104394000Y-102870000D03*
%TO.P,R21,2*%
%TO.N,/ADDR4*%
X106219000Y-102870000D03*
%TD*%
D20*
%TO.N,GND*%
X90043000Y-82677000D03*
X67945000Y-94488000D03*
X86233000Y-70866000D03*
X89154000Y-68453000D03*
X87630000Y-89916000D03*
X76200000Y-89916000D03*
X76200000Y-87122000D03*
X76200000Y-84836000D03*
X76200000Y-82296000D03*
X76200000Y-79756000D03*
X76200000Y-77216000D03*
X67995800Y-109804200D03*
X81076800Y-107340400D03*
X70891400Y-102793800D03*
X76200000Y-92456000D03*
X76200000Y-74498200D03*
X76200000Y-64617600D03*
X76174600Y-61899800D03*
X76174600Y-59486800D03*
X91567000Y-110617000D03*
X137566400Y-73507600D03*
X92964000Y-97401000D03*
X127000000Y-62611000D03*
X90043000Y-59817000D03*
X92313600Y-70469600D03*
X137414000Y-83667600D03*
X90170000Y-100584000D03*
X94742000Y-84328000D03*
X113919000Y-80391000D03*
X105664000Y-73025000D03*
X135128000Y-58166000D03*
X92303600Y-64744600D03*
X104343200Y-62052200D03*
X92964000Y-81534000D03*
X129286000Y-96520000D03*
X117602000Y-89408000D03*
X95504000Y-72644000D03*
X112014000Y-91440000D03*
X124333000Y-67691000D03*
X115062000Y-96520000D03*
X134213600Y-80924400D03*
X95758000Y-89408000D03*
X134975600Y-86207600D03*
X121920000Y-93472000D03*
X113284000Y-74676000D03*
X115062000Y-99822000D03*
X99568000Y-59944000D03*
X129286000Y-105918000D03*
X137820400Y-76301600D03*
X119380000Y-67310000D03*
X90170000Y-94742000D03*
X94234000Y-105283000D03*
X101092000Y-78232000D03*
X117906800Y-92303600D03*
X113792000Y-59944000D03*
X101346000Y-93853000D03*
X115062000Y-93218000D03*
X95453200Y-108051600D03*
X125730000Y-65151000D03*
X137769600Y-100380800D03*
X134924800Y-83312000D03*
X136245600Y-71932800D03*
X137820400Y-78994000D03*
X131318000Y-71628000D03*
%TO.N,+5V*%
X100761800Y-85877400D03*
X100076000Y-101854000D03*
X101346000Y-68859400D03*
%TO.N,+3V3*%
X97536000Y-98806000D03*
X101346000Y-66395600D03*
X97536000Y-83032600D03*
%TO.N,/ADDR0*%
X113538000Y-99687000D03*
X113538000Y-105021000D03*
X131241800Y-81104000D03*
%TO.N,/ADDR1*%
X112776000Y-105656000D03*
X112776000Y-100322000D03*
X131868800Y-83644000D03*
%TO.N,/ADDR2*%
X132495800Y-86184000D03*
X112014000Y-106299000D03*
X112014000Y-100965000D03*
%TO.N,Net-(J2-Pin_17)*%
X136685400Y-89738200D03*
%TO.N,Net-(J2-Pin_15)*%
X114935000Y-69894800D03*
%TO.N,/OE*%
X118110000Y-78740000D03*
%TO.N,/ADDR7*%
X133749800Y-91264000D03*
%TO.N,/ADDR3*%
X111252000Y-106934000D03*
X111252000Y-101600000D03*
X133122800Y-88724000D03*
%TO.N,/DRAM I{slash}O1..4 CHIP DIR*%
X92303600Y-66294000D03*
%TD*%
D21*
%TO.N,/DRAM I{slash}O1*%
X99557000Y-63235000D02*
X99557000Y-64744600D01*
X88239600Y-61442600D02*
X97764600Y-61442600D01*
X72567800Y-60655200D02*
X87452200Y-60655200D01*
X97764600Y-61442600D02*
X99557000Y-63235000D01*
X66233000Y-66990000D02*
X72567800Y-60655200D01*
X87452200Y-60655200D02*
X88239600Y-61442600D01*
X64000000Y-66990000D02*
X66233000Y-66990000D01*
%TO.N,/DRAM I{slash}O2*%
X66233000Y-69530000D02*
X64000000Y-69530000D01*
X72567800Y-63195200D02*
X66233000Y-69530000D01*
X97510600Y-61950600D02*
X88290400Y-61950600D01*
X98907000Y-63347000D02*
X97510600Y-61950600D01*
X98907000Y-64744600D02*
X98907000Y-63347000D01*
X88290400Y-61950600D02*
X87045800Y-63195200D01*
X87045800Y-63195200D02*
X72567800Y-63195200D01*
%TO.N,/DRAM ADDR1*%
X67335400Y-83515200D02*
X66080600Y-84770000D01*
X87553800Y-83515200D02*
X67335400Y-83515200D01*
X98907600Y-94869000D02*
X87553800Y-83515200D01*
X98907600Y-96240600D02*
X98907600Y-94869000D01*
X98907000Y-96241200D02*
X98907600Y-96240600D01*
X98907000Y-97401000D02*
X98907000Y-96241200D01*
X66080600Y-84770000D02*
X64000000Y-84770000D01*
%TO.N,/DRAM ADDR0*%
X87056000Y-82230000D02*
X84320000Y-82230000D01*
X99557000Y-97401000D02*
X99557000Y-94731000D01*
X99557000Y-94731000D02*
X87056000Y-82230000D01*
%TO.N,/DRAM I{slash}O4*%
X92989400Y-63017400D02*
X86476800Y-69530000D01*
X97053400Y-63017400D02*
X92989400Y-63017400D01*
X97607000Y-63571000D02*
X97053400Y-63017400D01*
X86476800Y-69530000D02*
X84320000Y-69530000D01*
X97607000Y-64744600D02*
X97607000Y-63571000D01*
%TO.N,/DRAM I{slash}O1..4 CHIP OE*%
X99557000Y-69331000D02*
X99557000Y-70469600D01*
X98679000Y-68453000D02*
X99557000Y-69331000D01*
X90728800Y-68453000D02*
X98679000Y-68453000D01*
X87111800Y-72070000D02*
X90728800Y-68453000D01*
X84320000Y-72070000D02*
X87111800Y-72070000D01*
%TO.N,/DRAM ADDR6*%
X95657000Y-95530000D02*
X95657000Y-97401000D01*
X66055200Y-92390000D02*
X67310000Y-91135200D01*
X91262200Y-91135200D02*
X95657000Y-95530000D01*
X64000000Y-92390000D02*
X66055200Y-92390000D01*
X67310000Y-91135200D02*
X91262200Y-91135200D01*
%TO.N,/DRAM ADDR5*%
X67335400Y-88569800D02*
X66055200Y-89850000D01*
X96307000Y-97401000D02*
X96307000Y-95443400D01*
X96307000Y-95443400D02*
X89433400Y-88569800D01*
X89433400Y-88569800D02*
X67335400Y-88569800D01*
X66055200Y-89850000D02*
X64000000Y-89850000D01*
%TO.N,/DRAM ADDR3*%
X66080600Y-87310000D02*
X64000000Y-87310000D01*
X67411600Y-85979000D02*
X66080600Y-87310000D01*
X88442800Y-85979000D02*
X67411600Y-85979000D01*
X97607000Y-95143200D02*
X88442800Y-85979000D01*
X97607000Y-97401000D02*
X97607000Y-95143200D01*
%TO.N,/DRAM OE{slash}WE{slash}RAS{slash}CAS CHIP CE*%
X91287600Y-80975200D02*
X67335400Y-80975200D01*
X67335400Y-80975200D02*
X66080600Y-82230000D01*
X96418400Y-82956400D02*
X93268800Y-82956400D01*
X99557000Y-86095000D02*
X96418400Y-82956400D01*
X93268800Y-82956400D02*
X91287600Y-80975200D01*
X99557000Y-87259000D02*
X99557000Y-86095000D01*
X66080600Y-82230000D02*
X64000000Y-82230000D01*
%TO.N,/DRAM RAS*%
X96012000Y-78435200D02*
X67335400Y-78435200D01*
X98257000Y-81534000D02*
X98257000Y-80680200D01*
X98257000Y-80680200D02*
X96012000Y-78435200D01*
X67335400Y-78435200D02*
X66080600Y-79690000D01*
X66080600Y-79690000D02*
X64000000Y-79690000D01*
%TO.N,/DRAM OE*%
X66055200Y-77150000D02*
X64000000Y-77150000D01*
X95046800Y-75895200D02*
X67310000Y-75895200D01*
X99557000Y-80405400D02*
X95046800Y-75895200D01*
X67310000Y-75895200D02*
X66055200Y-77150000D01*
X99557000Y-81534000D02*
X99557000Y-80405400D01*
%TO.N,/DRAM ADDR4*%
X88973700Y-87310000D02*
X84320000Y-87310000D01*
X96957000Y-95293300D02*
X88973700Y-87310000D01*
X96957000Y-97401000D02*
X96957000Y-95293300D01*
%TO.N,/DRAM ADDR2*%
X88021200Y-84770000D02*
X84320000Y-84770000D01*
X98257000Y-95005800D02*
X88021200Y-84770000D01*
X98257000Y-97401000D02*
X98257000Y-95005800D01*
%TO.N,/OSCILLOSCOPE TRIGGER*%
X66202600Y-100010000D02*
X64000000Y-100010000D01*
X75082400Y-108889800D02*
X66202600Y-100010000D01*
X139954000Y-106934000D02*
X137998200Y-108889800D01*
X137998200Y-108889800D02*
X75082400Y-108889800D01*
%TO.N,/DRAM WE*%
X98907000Y-80530100D02*
X95526900Y-77150000D01*
X95526900Y-77150000D02*
X84320000Y-77150000D01*
X98907000Y-81534000D02*
X98907000Y-80530100D01*
%TO.N,/DRAM I{slash}O3*%
X85765600Y-66990000D02*
X84320000Y-66990000D01*
X97282000Y-62484000D02*
X90271600Y-62484000D01*
X98257000Y-63459000D02*
X97282000Y-62484000D01*
X98257000Y-64744600D02*
X98257000Y-63459000D01*
X90271600Y-62484000D02*
X85765600Y-66990000D01*
%TO.N,/DRAM CAS*%
X96500499Y-79690000D02*
X84320000Y-79690000D01*
X97607000Y-80796501D02*
X96500499Y-79690000D01*
X97607000Y-81534000D02*
X97607000Y-80796501D01*
D22*
%TO.N,GND*%
X96957000Y-64744600D02*
X92303600Y-64744600D01*
X96957000Y-81534000D02*
X92964000Y-81534000D01*
X96307000Y-70469600D02*
X92313600Y-70469600D01*
X94357000Y-97401000D02*
X92964000Y-97401000D01*
%TO.N,+5V*%
X100857000Y-69348400D02*
X101346000Y-68859400D01*
D23*
X100076000Y-101854000D02*
X100212000Y-101990000D01*
D22*
X100207000Y-87259000D02*
X100203000Y-87255000D01*
X100207000Y-86432200D02*
X100207000Y-87259000D01*
X100207000Y-69592000D02*
X100939600Y-68859400D01*
X100761800Y-85877400D02*
X100207000Y-86432200D01*
X100939600Y-68859400D02*
X101346000Y-68859400D01*
X100857000Y-70469600D02*
X100857000Y-69348400D01*
X100207000Y-70469600D02*
X100207000Y-69592000D01*
D23*
X100212000Y-101990000D02*
X100212000Y-103126000D01*
D22*
%TO.N,+3V3*%
X109775000Y-80946000D02*
X109775000Y-81915000D01*
X109524800Y-95250000D02*
X109775000Y-95500200D01*
X103835200Y-95250000D02*
X109524800Y-95250000D01*
X109626400Y-62128400D02*
X109829600Y-61925200D01*
X97536000Y-98806000D02*
X100279200Y-98806000D01*
X109775000Y-80394800D02*
X109775000Y-79375000D01*
X109775000Y-94999800D02*
X109775000Y-93954600D01*
X102539800Y-66395600D02*
X106807000Y-62128400D01*
X100609400Y-83032600D02*
X102971600Y-80670400D01*
X109524800Y-95250000D02*
X109775000Y-94999800D01*
X101346000Y-65233600D02*
X101346000Y-66395600D01*
X102971600Y-80670400D02*
X109499400Y-80670400D01*
X109775000Y-95500200D02*
X109775000Y-96520000D01*
X109829600Y-61925200D02*
X109829600Y-60858400D01*
X100857000Y-64744600D02*
X101346000Y-65233600D01*
X109499400Y-80670400D02*
X109775000Y-80946000D01*
X109626400Y-62128400D02*
X109829600Y-62331600D01*
X109829600Y-62331600D02*
X109829600Y-63398400D01*
X109499400Y-80670400D02*
X109775000Y-80394800D01*
X106807000Y-62128400D02*
X109626400Y-62128400D01*
X100279200Y-98806000D02*
X103835200Y-95250000D01*
X97536000Y-83032600D02*
X100609400Y-83032600D01*
X101346000Y-66395600D02*
X102539800Y-66395600D01*
%TO.N,Net-(D1-A)*%
X117968471Y-91264000D02*
X120650000Y-91264000D01*
X116776471Y-92456000D02*
X117968471Y-91264000D01*
X104344000Y-89408000D02*
X107392000Y-92456000D01*
X120650000Y-91264000D02*
X120220000Y-91694000D01*
X107392000Y-92456000D02*
X116776471Y-92456000D01*
%TO.N,Net-(D1-K)*%
X107950000Y-89408000D02*
X106219000Y-89408000D01*
D21*
%TO.N,/ADDR0*%
X106219000Y-97790000D02*
X111641000Y-97790000D01*
X133273800Y-93903800D02*
X136906000Y-93903800D01*
X125906000Y-81104000D02*
X128270000Y-81104000D01*
X137236200Y-94234000D02*
X139954000Y-94234000D01*
X113538000Y-105021000D02*
X121801000Y-105021000D01*
X124460000Y-82550000D02*
X125906000Y-81104000D01*
X111641000Y-97790000D02*
X113538000Y-99687000D01*
X136906000Y-93903800D02*
X137236200Y-94234000D01*
X131241800Y-81104000D02*
X131241800Y-91871800D01*
X124460000Y-102362000D02*
X124460000Y-82550000D01*
X121801000Y-105021000D02*
X124460000Y-102362000D01*
X131241800Y-91871800D02*
X133273800Y-93903800D01*
%TO.N,/ADDR1*%
X111514000Y-99060000D02*
X112776000Y-100322000D01*
X131868800Y-91736800D02*
X133350000Y-93218000D01*
X136779000Y-93218000D02*
X138303000Y-91694000D01*
X138303000Y-91694000D02*
X139954000Y-91694000D01*
X124968000Y-102616000D02*
X124968000Y-85090000D01*
X121928000Y-105656000D02*
X124968000Y-102616000D01*
X133350000Y-93218000D02*
X136779000Y-93218000D01*
X131868800Y-83644000D02*
X131868800Y-91736800D01*
X112776000Y-105656000D02*
X121928000Y-105656000D01*
X124968000Y-85090000D02*
X126414000Y-83644000D01*
X109775000Y-99060000D02*
X111514000Y-99060000D01*
X126414000Y-83644000D02*
X128270000Y-83644000D01*
%TO.N,/ADDR2*%
X112014000Y-106299000D02*
X122047000Y-106299000D01*
X122047000Y-106299000D02*
X125476000Y-102870000D01*
X132495800Y-86184000D02*
X132495800Y-91627200D01*
X106219000Y-100330000D02*
X111379000Y-100330000D01*
X132495800Y-91627200D02*
X133426200Y-92557600D01*
X126541000Y-86184000D02*
X128270000Y-86184000D01*
X136550400Y-92557600D02*
X139954000Y-89154000D01*
X133426200Y-92557600D02*
X136550400Y-92557600D01*
X111379000Y-100330000D02*
X112014000Y-100965000D01*
X125476000Y-102870000D02*
X125476000Y-87249000D01*
X125476000Y-87249000D02*
X126541000Y-86184000D01*
%TO.N,/ADDR4*%
X109266158Y-103112000D02*
X121424000Y-103112000D01*
X108470842Y-103124000D02*
X109254158Y-103124000D01*
X108458842Y-103112000D02*
X108470842Y-103124000D01*
X106473000Y-103124000D02*
X107429158Y-103124000D01*
X121424000Y-103112000D02*
X122936000Y-101600000D01*
X107441158Y-103112000D02*
X108458842Y-103112000D01*
X122936000Y-89662000D02*
X121998000Y-88724000D01*
X106219000Y-102870000D02*
X106473000Y-103124000D01*
X109254158Y-103124000D02*
X109266158Y-103112000D01*
X121998000Y-88724000D02*
X120650000Y-88724000D01*
X107429158Y-103124000D02*
X107441158Y-103112000D01*
X122936000Y-101600000D02*
X122936000Y-89662000D01*
%TO.N,/RAS*%
X118364000Y-82702400D02*
X119962400Y-81104000D01*
X118364000Y-84861400D02*
X118364000Y-82702400D01*
X119962400Y-81104000D02*
X120650000Y-81104000D01*
X117498700Y-85726700D02*
X118364000Y-84861400D01*
X106219000Y-85726700D02*
X117498700Y-85726700D01*
%TO.N,Net-(J2-Pin_17)*%
X126287000Y-73484000D02*
X128270000Y-73484000D01*
X122453400Y-77317600D02*
X126287000Y-73484000D01*
X114827400Y-71164800D02*
X115849400Y-72186800D01*
X117297200Y-77317600D02*
X122453400Y-77317600D01*
X115849400Y-72186800D02*
X115849400Y-75869800D01*
X135333000Y-73484000D02*
X128270000Y-73484000D01*
X136685400Y-89738200D02*
X136685400Y-74836400D01*
X109812500Y-71164800D02*
X114827400Y-71164800D01*
X136685400Y-74836400D02*
X135333000Y-73484000D01*
X115849400Y-75869800D02*
X117297200Y-77317600D01*
%TO.N,Net-(J2-Pin_15)*%
X130606800Y-92024200D02*
X133146800Y-94564200D01*
X129724000Y-78564000D02*
X130606800Y-79446800D01*
X128270000Y-78564000D02*
X129724000Y-78564000D01*
X133146800Y-94564200D02*
X136728200Y-94564200D01*
X106219000Y-69894800D02*
X114935000Y-69894800D01*
X136728200Y-94564200D02*
X137668000Y-95504000D01*
X130606800Y-79446800D02*
X130606800Y-92024200D01*
X138684000Y-95504000D02*
X139954000Y-96774000D01*
X137668000Y-95504000D02*
X138684000Y-95504000D01*
%TO.N,/CAS*%
X129616200Y-79832200D02*
X129997200Y-80213200D01*
X126619000Y-79121000D02*
X127330200Y-79832200D01*
X126414000Y-76024000D02*
X128270000Y-76024000D01*
X135864600Y-95224600D02*
X139954000Y-99314000D01*
X118209900Y-86996700D02*
X118897400Y-86309200D01*
X127330200Y-79832200D02*
X129616200Y-79832200D01*
X128270000Y-76024000D02*
X128270000Y-76327000D01*
X123952000Y-80391000D02*
X123952000Y-78486000D01*
X119481600Y-82346800D02*
X121996200Y-82346800D01*
X118897400Y-86309200D02*
X118897400Y-82931000D01*
X118897400Y-82931000D02*
X119481600Y-82346800D01*
X132994400Y-95224600D02*
X135864600Y-95224600D01*
X129997200Y-80213200D02*
X129997200Y-92227400D01*
X129364000Y-76024000D02*
X128270000Y-76024000D01*
X126619000Y-77978000D02*
X126619000Y-79121000D01*
X109775000Y-86996700D02*
X118209900Y-86996700D01*
X129997200Y-92227400D02*
X132994400Y-95224600D01*
X128270000Y-76327000D02*
X126619000Y-77978000D01*
X123952000Y-78486000D02*
X126414000Y-76024000D01*
X121996200Y-82346800D02*
X123952000Y-80391000D01*
%TO.N,Net-(J2-Pin_2)*%
X116916200Y-67513200D02*
X116916200Y-72288400D01*
X118111800Y-73484000D02*
X120650000Y-73484000D01*
X120650000Y-73484000D02*
X122428000Y-71706000D01*
X122428000Y-71706000D02*
X122428000Y-66700400D01*
X125374400Y-63754000D02*
X139954000Y-63754000D01*
X116916200Y-72288400D02*
X118111800Y-73484000D01*
X115435300Y-66032300D02*
X116916200Y-67513200D01*
X109812500Y-66032300D02*
X115435300Y-66032300D01*
X122428000Y-66700400D02*
X125374400Y-63754000D01*
%TO.N,/OE*%
X106219000Y-83134200D02*
X115239800Y-83134200D01*
X121843800Y-66014600D02*
X126644400Y-61214000D01*
X121843800Y-69750200D02*
X121843800Y-66014600D01*
X126644400Y-61214000D02*
X139954000Y-61214000D01*
X120650000Y-70944000D02*
X121843800Y-69750200D01*
X118110000Y-80264000D02*
X118110000Y-78740000D01*
X115239800Y-83134200D02*
X118110000Y-80264000D01*
%TO.N,/ADDR5*%
X122252000Y-86184000D02*
X120650000Y-86184000D01*
X110386500Y-103759000D02*
X121539000Y-103759000D01*
X123444000Y-101854000D02*
X123444000Y-87376000D01*
X121539000Y-103759000D02*
X123444000Y-101854000D01*
X123444000Y-87376000D02*
X122252000Y-86184000D01*
X109775000Y-104140000D02*
X110005500Y-104140000D01*
X110005500Y-104140000D02*
X110386500Y-103759000D01*
%TO.N,/ADDR7*%
X138455400Y-84074000D02*
X139954000Y-84074000D01*
X110791000Y-107696000D02*
X111633000Y-107696000D01*
X137312400Y-90017600D02*
X137312400Y-85217000D01*
X111760000Y-107569000D02*
X122301000Y-107569000D01*
X136066000Y-91264000D02*
X137312400Y-90017600D01*
X126492000Y-94361000D02*
X128270000Y-92583000D01*
X122301000Y-107569000D02*
X126492000Y-103378000D01*
X137312400Y-85217000D02*
X138455400Y-84074000D01*
X128270000Y-92583000D02*
X128270000Y-91264000D01*
X133749800Y-91264000D02*
X136066000Y-91264000D01*
X109775000Y-106680000D02*
X110791000Y-107696000D01*
X126492000Y-103378000D02*
X126492000Y-94361000D01*
X111633000Y-107696000D02*
X111760000Y-107569000D01*
%TO.N,/ADDR6*%
X106219000Y-105410000D02*
X110041842Y-105410000D01*
X123952000Y-85090000D02*
X122506000Y-83644000D01*
X110041842Y-105410000D02*
X111057842Y-104394000D01*
X121666000Y-104394000D02*
X123952000Y-102108000D01*
X123952000Y-102108000D02*
X123952000Y-85090000D01*
X122506000Y-83644000D02*
X120650000Y-83644000D01*
X111057842Y-104394000D02*
X121666000Y-104394000D01*
%TO.N,/ADDR3*%
X125984000Y-103124000D02*
X125984000Y-89535000D01*
X111252000Y-106934000D02*
X122174000Y-106934000D01*
X125984000Y-89535000D02*
X126795000Y-88724000D01*
X133520273Y-91922600D02*
X136334500Y-91922600D01*
X136334500Y-91922600D02*
X137947400Y-90309700D01*
X133122800Y-91002873D02*
X133121800Y-91003873D01*
X138607800Y-86614000D02*
X139954000Y-86614000D01*
X137947400Y-87274400D02*
X138607800Y-86614000D01*
X126795000Y-88724000D02*
X128270000Y-88724000D01*
X122174000Y-106934000D02*
X125984000Y-103124000D01*
X133121800Y-91524127D02*
X133520273Y-91922600D01*
X137947400Y-90309700D02*
X137947400Y-87274400D01*
X133121800Y-91003873D02*
X133121800Y-91524127D01*
X109775000Y-101600000D02*
X111252000Y-101600000D01*
X133122800Y-88724000D02*
X133122800Y-91002873D01*
%TO.N,/WE*%
X117856000Y-83616800D02*
X117856000Y-81358000D01*
X117016100Y-84456700D02*
X117856000Y-83616800D01*
X109775000Y-84456700D02*
X117016100Y-84456700D01*
X117856000Y-81358000D02*
X120650000Y-78564000D01*
%TO.N,Net-(J2-Pin_3)*%
X123012200Y-73661800D02*
X123012200Y-67360800D01*
X123012200Y-67360800D02*
X124079000Y-66294000D01*
X116382800Y-74244200D02*
X118162600Y-76024000D01*
X109812500Y-68624800D02*
X115335400Y-68624800D01*
X115335400Y-68624800D02*
X116382800Y-69672200D01*
X120650000Y-76024000D02*
X123012200Y-73661800D01*
X124079000Y-66294000D02*
X139954000Y-66294000D01*
X118162600Y-76024000D02*
X120650000Y-76024000D01*
X116382800Y-69672200D02*
X116382800Y-74244200D01*
%TO.N,Net-(U2-A->B)*%
X102366000Y-79375000D02*
X100207000Y-81534000D01*
X107950000Y-79375000D02*
X102366000Y-79375000D01*
D24*
%TO.N,Net-(U1-A->B)*%
X100871400Y-97401000D02*
X100207000Y-97401000D01*
X107950000Y-93954600D02*
X104317800Y-93954600D01*
X104317800Y-93954600D02*
X100871400Y-97401000D01*
D21*
%TO.N,/I{slash}O4*%
X98679000Y-73583800D02*
X96957000Y-71861800D01*
X96957000Y-71861800D02*
X96957000Y-70469600D01*
X107987500Y-71164800D02*
X104603200Y-71164800D01*
X102184200Y-73583800D02*
X98679000Y-73583800D01*
X104603200Y-71164800D02*
X102184200Y-73583800D01*
%TO.N,/I{slash}O3*%
X104394000Y-69894800D02*
X104394000Y-70612000D01*
X97607000Y-71775200D02*
X97607000Y-70469600D01*
X98907600Y-73075800D02*
X97607000Y-71775200D01*
X101930200Y-73075800D02*
X98907600Y-73075800D01*
X104394000Y-70612000D02*
X101930200Y-73075800D01*
%TO.N,/I{slash}O2*%
X101676200Y-72567800D02*
X99161600Y-72567800D01*
X103714200Y-68624800D02*
X102997000Y-69342000D01*
X102997000Y-69342000D02*
X102997000Y-71247000D01*
X102997000Y-71247000D02*
X101676200Y-72567800D01*
X98257000Y-71663200D02*
X98257000Y-70469600D01*
X99161600Y-72567800D02*
X98257000Y-71663200D01*
X107987500Y-68624800D02*
X103714200Y-68624800D01*
%TO.N,/I{slash}O1*%
X99415600Y-72059800D02*
X98907000Y-71551200D01*
X101422200Y-72059800D02*
X99415600Y-72059800D01*
X98907000Y-71551200D02*
X98907000Y-70469600D01*
X104706500Y-66032300D02*
X102362000Y-68376800D01*
X102362000Y-68376800D02*
X102362000Y-71120000D01*
X102362000Y-71120000D02*
X101422200Y-72059800D01*
X107987500Y-66032300D02*
X104706500Y-66032300D01*
%TO.N,Net-(U2-B0)*%
X103073200Y-83134200D02*
X104394000Y-83134200D01*
X99136200Y-88671400D02*
X100812600Y-88671400D01*
X100812600Y-88671400D02*
X101981000Y-87503000D01*
X101981000Y-84226400D02*
X103073200Y-83134200D01*
X98907000Y-87259000D02*
X98907000Y-88442200D01*
X98907000Y-88442200D02*
X99136200Y-88671400D01*
X101981000Y-87503000D02*
X101981000Y-84226400D01*
%TO.N,Net-(U2-B1)*%
X98933000Y-89154000D02*
X98257000Y-88478000D01*
X102514400Y-87731600D02*
X101092000Y-89154000D01*
X102514400Y-85217000D02*
X102514400Y-87731600D01*
X107926300Y-84480400D02*
X103251000Y-84480400D01*
X101092000Y-89154000D02*
X98933000Y-89154000D01*
X107950000Y-84456700D02*
X107926300Y-84480400D01*
X98257000Y-88478000D02*
X98257000Y-87259000D01*
X103251000Y-84480400D02*
X102514400Y-85217000D01*
%TO.N,Net-(U2-B2)*%
X103047800Y-87960200D02*
X101346000Y-89662000D01*
X98755200Y-89662000D02*
X97607000Y-88513800D01*
X104394000Y-85726700D02*
X103528700Y-85726700D01*
X103528700Y-85726700D02*
X103047800Y-86207600D01*
X101346000Y-89662000D02*
X98755200Y-89662000D01*
X104394000Y-85843533D02*
X104394000Y-85726700D01*
X97607000Y-88513800D02*
X97607000Y-87259000D01*
X103047800Y-86207600D02*
X103047800Y-87960200D01*
%TO.N,Net-(U2-B3)*%
X107950000Y-86996700D02*
X104087500Y-86996700D01*
X103555800Y-87528400D02*
X103555800Y-88214200D01*
X96957000Y-88575000D02*
X96957000Y-87259000D01*
X98552000Y-90170000D02*
X96957000Y-88575000D01*
X103555800Y-88214200D02*
X101600000Y-90170000D01*
X101600000Y-90170000D02*
X98552000Y-90170000D01*
X104087500Y-86996700D02*
X103555800Y-87528400D01*
%TO.N,Net-(U1-B0)*%
X98907000Y-103863499D02*
X99235001Y-104191500D01*
X103378000Y-97790000D02*
X104394000Y-97790000D01*
X99235001Y-104191500D02*
X100487054Y-104191500D01*
X101092000Y-103586554D02*
X101092000Y-100076000D01*
X98907000Y-103126000D02*
X98907000Y-103863499D01*
X101092000Y-100076000D02*
X103378000Y-97790000D01*
X100487054Y-104191500D02*
X101092000Y-103586554D01*
%TO.N,Net-(U1-B1)*%
X103378000Y-99060000D02*
X107950000Y-99060000D01*
X99046534Y-104646500D02*
X100675522Y-104646500D01*
X98257000Y-103126000D02*
X98257000Y-103856966D01*
X101600000Y-103722022D02*
X101600000Y-100838000D01*
X101600000Y-100838000D02*
X103378000Y-99060000D01*
X98257000Y-103856966D02*
X99046534Y-104646500D01*
X100675522Y-104646500D02*
X101600000Y-103722022D01*
%TO.N,Net-(U1-B2)*%
X97607000Y-103126000D02*
X97607000Y-103863499D01*
X98845001Y-105101500D02*
X100863990Y-105101500D01*
X97607000Y-103863499D02*
X98845001Y-105101500D01*
X103505000Y-100330000D02*
X104394000Y-100330000D01*
X102108000Y-101727000D02*
X103505000Y-100330000D01*
X102108000Y-103857490D02*
X102108000Y-101727000D01*
X100863990Y-105101500D02*
X102108000Y-103857490D01*
%TO.N,Net-(U1-B3)*%
X101052458Y-105556500D02*
X102563000Y-104045957D01*
X103632000Y-101600000D02*
X107950000Y-101600000D01*
X102563000Y-104045957D02*
X102563000Y-102669000D01*
X98650001Y-105556500D02*
X101052458Y-105556500D01*
X96957000Y-103126000D02*
X96957000Y-103863499D01*
X96957000Y-103863499D02*
X98650001Y-105556500D01*
X102563000Y-102669000D02*
X103632000Y-101600000D01*
%TO.N,Net-(U1-B4)*%
X96307000Y-103863499D02*
X98455001Y-106011500D01*
X103526000Y-102870000D02*
X104394000Y-102870000D01*
X98455001Y-106011500D02*
X101240926Y-106011499D01*
X96307000Y-103126000D02*
X96307000Y-103863499D01*
X101240926Y-106011499D02*
X103018000Y-104234424D01*
X103018000Y-103378000D02*
X103526000Y-102870000D01*
X103018000Y-104234424D02*
X103018000Y-103378000D01*
%TO.N,Net-(U1-B5)*%
X95657000Y-103126000D02*
X95657000Y-103863499D01*
X101429392Y-106466500D02*
X103755892Y-104140000D01*
X98260001Y-106466500D02*
X101429392Y-106466500D01*
X95657000Y-103863499D02*
X98260001Y-106466500D01*
X103755892Y-104140000D02*
X107950000Y-104140000D01*
%TO.N,Net-(U1-B6)*%
X103129360Y-105410000D02*
X104394000Y-105410000D01*
X95007000Y-103863499D02*
X98065001Y-106921500D01*
X98065001Y-106921500D02*
X101617860Y-106921500D01*
X101617860Y-106921500D02*
X103129360Y-105410000D01*
X95007000Y-103126000D02*
X95007000Y-103863499D01*
%TO.N,Net-(U1-B7)*%
X105918000Y-106680000D02*
X107950000Y-106680000D01*
X94357000Y-103126000D02*
X94357000Y-103863499D01*
X94357000Y-103863499D02*
X97870001Y-107376500D01*
X97870001Y-107376500D02*
X105221500Y-107376500D01*
X105221500Y-107376500D02*
X105918000Y-106680000D01*
%TO.N,/DRAM I{slash}O1..4 CHIP OE*%
X106476800Y-63398400D02*
X101904800Y-67970400D01*
X99557000Y-69378400D02*
X99557000Y-70469600D01*
X100965000Y-67970400D02*
X99557000Y-69378400D01*
X101904800Y-67970400D02*
X100965000Y-67970400D01*
X108004600Y-63398400D02*
X106476800Y-63398400D01*
%TO.N,/DRAM OE{slash}WE{slash}RAS{slash}CAS CHIP CE*%
X103581200Y-81915000D02*
X99557000Y-85939200D01*
X99557000Y-85939200D02*
X99557000Y-87259000D01*
X107950000Y-81915000D02*
X103581200Y-81915000D01*
%TO.N,/DRAM ADDR7*%
X95007000Y-97401000D02*
X95007000Y-98138499D01*
X95007000Y-98138499D02*
X88055499Y-105090000D01*
X88055499Y-105090000D02*
X84320000Y-105090000D01*
%TO.N,/DRAM ADDR CHIP CE*%
X92176600Y-101828600D02*
X86375200Y-107630000D01*
X99421373Y-102087500D02*
X99421373Y-101855227D01*
X103378000Y-96520000D02*
X107950000Y-96520000D01*
X99448000Y-100450000D02*
X103378000Y-96520000D01*
X99448000Y-102114127D02*
X99448000Y-100450000D01*
X86375200Y-107630000D02*
X84320000Y-107630000D01*
D24*
X99421373Y-102087500D02*
X99448000Y-102114127D01*
D21*
X99557000Y-103126000D02*
X99557000Y-102223127D01*
X99448000Y-101828600D02*
X92176600Y-101828600D01*
X99557000Y-102223127D02*
X99448000Y-102114127D01*
X99421373Y-101855227D02*
X99448000Y-101828600D01*
%TO.N,/DRAM I{slash}O1..4 CHIP DIR*%
X100207000Y-64744600D02*
X100207000Y-62022800D01*
X100207000Y-65529958D02*
X99442958Y-66294000D01*
X100207000Y-62022800D02*
X101371400Y-60858400D01*
X101371400Y-60858400D02*
X108004600Y-60858400D01*
X99442958Y-66294000D02*
X92303600Y-66294000D01*
X100207000Y-64744600D02*
X100207000Y-65529958D01*
%TD*%
%TA.AperFunction,Conductor*%
%TO.N,GND*%
G36*
X82852764Y-91782385D02*
G01*
X82898519Y-91835189D01*
X82908463Y-91904347D01*
X82903657Y-91925012D01*
X82892993Y-91957834D01*
X82851522Y-92085465D01*
X82819500Y-92287648D01*
X82819500Y-92492351D01*
X82851522Y-92694534D01*
X82914781Y-92889223D01*
X82967855Y-92993385D01*
X83006054Y-93068355D01*
X83007715Y-93071613D01*
X83128028Y-93237213D01*
X83272786Y-93381971D01*
X83438385Y-93502284D01*
X83438387Y-93502285D01*
X83438390Y-93502287D01*
X83531080Y-93549515D01*
X83531628Y-93549794D01*
X83582424Y-93597769D01*
X83599219Y-93665590D01*
X83576682Y-93731724D01*
X83531627Y-93770764D01*
X83520160Y-93776606D01*
X83520159Y-93776607D01*
X84190589Y-94447037D01*
X84127007Y-94464075D01*
X84012993Y-94529901D01*
X83919901Y-94622993D01*
X83854075Y-94737007D01*
X83837037Y-94800588D01*
X83124686Y-94088237D01*
X83124685Y-94088238D01*
X83008147Y-94248640D01*
X83008141Y-94248649D01*
X82915244Y-94430968D01*
X82852009Y-94625582D01*
X82820000Y-94827682D01*
X82820000Y-95032317D01*
X82852009Y-95234417D01*
X82915244Y-95429031D01*
X83008142Y-95611352D01*
X83124684Y-95771760D01*
X83124686Y-95771761D01*
X83837037Y-95059410D01*
X83854075Y-95122993D01*
X83919901Y-95237007D01*
X84012993Y-95330099D01*
X84127007Y-95395925D01*
X84190589Y-95412962D01*
X83520160Y-96083390D01*
X83531628Y-96089234D01*
X83582424Y-96137207D01*
X83599220Y-96205028D01*
X83576683Y-96271163D01*
X83531630Y-96310203D01*
X83438388Y-96357713D01*
X83272786Y-96478028D01*
X83128028Y-96622786D01*
X83007715Y-96788386D01*
X82914781Y-96970776D01*
X82851522Y-97165465D01*
X82819500Y-97367648D01*
X82819500Y-97572351D01*
X82851522Y-97774534D01*
X82914781Y-97969223D01*
X83007715Y-98151613D01*
X83128028Y-98317213D01*
X83272786Y-98461971D01*
X83427749Y-98574556D01*
X83438390Y-98582287D01*
X83521446Y-98624606D01*
X83531080Y-98629515D01*
X83581876Y-98677490D01*
X83598671Y-98745311D01*
X83576134Y-98811446D01*
X83531080Y-98850485D01*
X83438386Y-98897715D01*
X83272786Y-99018028D01*
X83128028Y-99162786D01*
X83007715Y-99328386D01*
X82914781Y-99510776D01*
X82851522Y-99705465D01*
X82819500Y-99907648D01*
X82819500Y-100112351D01*
X82851522Y-100314534D01*
X82914781Y-100509223D01*
X82955589Y-100589312D01*
X82998536Y-100673600D01*
X83007715Y-100691613D01*
X83128028Y-100857213D01*
X83272786Y-101001971D01*
X83427749Y-101114556D01*
X83438390Y-101122287D01*
X83494417Y-101150834D01*
X83531080Y-101169515D01*
X83581876Y-101217490D01*
X83598671Y-101285311D01*
X83576134Y-101351446D01*
X83531080Y-101390485D01*
X83438386Y-101437715D01*
X83272786Y-101558028D01*
X83128028Y-101702786D01*
X83007715Y-101868386D01*
X82914781Y-102050776D01*
X82851522Y-102245465D01*
X82819500Y-102447648D01*
X82819500Y-102652351D01*
X82851522Y-102854534D01*
X82914781Y-103049223D01*
X83007715Y-103231613D01*
X83128028Y-103397213D01*
X83272786Y-103541971D01*
X83397091Y-103632282D01*
X83438390Y-103662287D01*
X83485811Y-103686449D01*
X83531080Y-103709515D01*
X83581876Y-103757490D01*
X83598671Y-103825311D01*
X83576134Y-103891446D01*
X83531080Y-103930485D01*
X83438386Y-103977715D01*
X83272786Y-104098028D01*
X83128028Y-104242786D01*
X83007715Y-104408386D01*
X82914781Y-104590776D01*
X82851522Y-104785465D01*
X82819500Y-104987648D01*
X82819500Y-105192351D01*
X82851522Y-105394534D01*
X82914781Y-105589223D01*
X82959614Y-105677211D01*
X83002482Y-105761344D01*
X83007715Y-105771613D01*
X83128028Y-105937213D01*
X83272786Y-106081971D01*
X83420897Y-106189578D01*
X83438390Y-106202287D01*
X83504116Y-106235776D01*
X83531080Y-106249515D01*
X83581876Y-106297490D01*
X83598671Y-106365311D01*
X83576134Y-106431446D01*
X83531080Y-106470485D01*
X83438386Y-106517715D01*
X83272786Y-106638028D01*
X83128028Y-106782786D01*
X83007715Y-106948386D01*
X82914781Y-107130776D01*
X82851522Y-107325465D01*
X82819500Y-107527648D01*
X82819500Y-107732351D01*
X82851523Y-107934535D01*
X82851523Y-107934538D01*
X82905280Y-108099982D01*
X82907275Y-108169823D01*
X82871195Y-108229656D01*
X82808494Y-108260484D01*
X82787349Y-108262300D01*
X75393681Y-108262300D01*
X75326642Y-108242615D01*
X75306000Y-108225981D01*
X66602613Y-99522593D01*
X66602610Y-99522590D01*
X66564693Y-99497255D01*
X66564693Y-99497254D01*
X66499835Y-99453918D01*
X66499828Y-99453914D01*
X66445717Y-99431501D01*
X66385635Y-99406614D01*
X66385627Y-99406612D01*
X66264407Y-99382500D01*
X66264403Y-99382500D01*
X65414781Y-99382500D01*
X65347742Y-99362815D01*
X65314462Y-99331385D01*
X65312289Y-99328394D01*
X65312287Y-99328390D01*
X65191966Y-99162781D01*
X65047219Y-99018034D01*
X65047213Y-99018028D01*
X64881614Y-98897715D01*
X64856349Y-98884842D01*
X64788917Y-98850483D01*
X64738123Y-98802511D01*
X64721328Y-98734690D01*
X64743865Y-98668555D01*
X64788917Y-98629516D01*
X64881610Y-98582287D01*
X64964389Y-98522145D01*
X65047213Y-98461971D01*
X65047215Y-98461968D01*
X65047219Y-98461966D01*
X65191966Y-98317219D01*
X65191968Y-98317215D01*
X65191971Y-98317213D01*
X65280666Y-98195133D01*
X65312287Y-98151610D01*
X65405220Y-97969219D01*
X65468477Y-97774534D01*
X65500500Y-97572352D01*
X65500500Y-97367648D01*
X65487252Y-97284003D01*
X65468477Y-97165465D01*
X65405218Y-96970776D01*
X65359110Y-96880286D01*
X65312287Y-96788390D01*
X65303808Y-96776719D01*
X65191971Y-96622786D01*
X65047213Y-96478028D01*
X64881614Y-96357715D01*
X64853089Y-96343181D01*
X64788917Y-96310483D01*
X64738123Y-96262511D01*
X64721328Y-96194690D01*
X64743865Y-96128555D01*
X64788917Y-96089516D01*
X64881610Y-96042287D01*
X64912313Y-96019980D01*
X65047213Y-95921971D01*
X65047215Y-95921968D01*
X65047219Y-95921966D01*
X65191966Y-95777219D01*
X65191968Y-95777215D01*
X65191971Y-95777213D01*
X65306953Y-95618951D01*
X65312287Y-95611610D01*
X65405220Y-95429219D01*
X65468477Y-95234534D01*
X65500500Y-95032352D01*
X65500500Y-94827648D01*
X65475892Y-94672281D01*
X65468477Y-94625465D01*
X65412962Y-94454609D01*
X65405220Y-94430781D01*
X65405218Y-94430778D01*
X65405218Y-94430776D01*
X65312419Y-94248650D01*
X65312287Y-94248390D01*
X65304556Y-94237749D01*
X65191971Y-94082786D01*
X65047213Y-93938028D01*
X64881614Y-93817715D01*
X64875006Y-93814348D01*
X64788917Y-93770483D01*
X64738123Y-93722511D01*
X64721328Y-93654690D01*
X64743865Y-93588555D01*
X64788917Y-93549516D01*
X64881610Y-93502287D01*
X64947274Y-93454580D01*
X65047213Y-93381971D01*
X65047215Y-93381968D01*
X65047219Y-93381966D01*
X65191966Y-93237219D01*
X65312287Y-93071610D01*
X65312289Y-93071605D01*
X65314462Y-93068615D01*
X65369792Y-93025949D01*
X65414781Y-93017500D01*
X66117004Y-93017500D01*
X66117005Y-93017499D01*
X66238235Y-92993386D01*
X66324609Y-92957608D01*
X66352433Y-92946083D01*
X66455208Y-92877411D01*
X66542611Y-92790008D01*
X67533600Y-91799019D01*
X67594923Y-91765534D01*
X67621281Y-91762700D01*
X82785725Y-91762700D01*
X82852764Y-91782385D01*
G37*
%TD.AperFunction*%
%TA.AperFunction,Conductor*%
G36*
X93599539Y-102475785D02*
G01*
X93645294Y-102528589D01*
X93656500Y-102580100D01*
X93656500Y-103802863D01*
X93671953Y-103920253D01*
X93671956Y-103920262D01*
X93732464Y-104066342D01*
X93786315Y-104136522D01*
X93792205Y-104144891D01*
X93798236Y-104154260D01*
X93800917Y-104160732D01*
X93840853Y-104220500D01*
X93841451Y-104221396D01*
X93841471Y-104221426D01*
X93869590Y-104263509D01*
X93869593Y-104263512D01*
X97382590Y-107776508D01*
X97429075Y-107822993D01*
X97469995Y-107863913D01*
X97469997Y-107863914D01*
X97572757Y-107932576D01*
X97572759Y-107932577D01*
X97572768Y-107932583D01*
X97597773Y-107942940D01*
X97620072Y-107952177D01*
X97648879Y-107964109D01*
X97686967Y-107979886D01*
X97808193Y-108003999D01*
X97808197Y-108004000D01*
X97808198Y-108004000D01*
X105283304Y-108004000D01*
X105283305Y-108003999D01*
X105404535Y-107979886D01*
X105485284Y-107946437D01*
X105518733Y-107932583D01*
X105621508Y-107863911D01*
X105708911Y-107776508D01*
X106141600Y-107343819D01*
X106202923Y-107310334D01*
X106229281Y-107307500D01*
X106866146Y-107307500D01*
X106933185Y-107327185D01*
X106978940Y-107379989D01*
X106983852Y-107392496D01*
X107002685Y-107449331D01*
X107002687Y-107449336D01*
X107004586Y-107452414D01*
X107094788Y-107598656D01*
X107218844Y-107722712D01*
X107368166Y-107814814D01*
X107534703Y-107869999D01*
X107637491Y-107880500D01*
X108262508Y-107880499D01*
X108262516Y-107880498D01*
X108262519Y-107880498D01*
X108318802Y-107874748D01*
X108365297Y-107869999D01*
X108531834Y-107814814D01*
X108681156Y-107722712D01*
X108774819Y-107629049D01*
X108836142Y-107595564D01*
X108905834Y-107600548D01*
X108950181Y-107629049D01*
X109043844Y-107722712D01*
X109193166Y-107814814D01*
X109359703Y-107869999D01*
X109462491Y-107880500D01*
X110036718Y-107880499D01*
X110103757Y-107900183D01*
X110124399Y-107916818D01*
X110258200Y-108050619D01*
X110291685Y-108111942D01*
X110286701Y-108181634D01*
X110244829Y-108237567D01*
X110179365Y-108261984D01*
X110170519Y-108262300D01*
X86929681Y-108262300D01*
X86862642Y-108242615D01*
X86816887Y-108189811D01*
X86806943Y-108120653D01*
X86835968Y-108057097D01*
X86842000Y-108050619D01*
X92400200Y-102492419D01*
X92461523Y-102458934D01*
X92487881Y-102456100D01*
X93532500Y-102456100D01*
X93599539Y-102475785D01*
G37*
%TD.AperFunction*%
%TA.AperFunction,Conductor*%
G36*
X129329574Y-92414776D02*
G01*
X129335646Y-92414228D01*
X129361573Y-92427763D01*
X129388667Y-92438760D01*
X129393558Y-92444462D01*
X129397583Y-92446563D01*
X129406183Y-92459178D01*
X129419257Y-92474418D01*
X129423127Y-92481201D01*
X129441117Y-92524633D01*
X129485128Y-92590500D01*
X129502203Y-92616054D01*
X129509792Y-92627412D01*
X132506989Y-95624608D01*
X132594392Y-95712011D01*
X132594394Y-95712013D01*
X132594396Y-95712014D01*
X132697156Y-95780676D01*
X132697158Y-95780677D01*
X132697167Y-95780683D01*
X132711772Y-95786732D01*
X132711774Y-95786734D01*
X132711775Y-95786734D01*
X132753027Y-95803821D01*
X132811365Y-95827986D01*
X132932592Y-95852099D01*
X132932596Y-95852100D01*
X132932597Y-95852100D01*
X133056203Y-95852100D01*
X135553319Y-95852100D01*
X135620358Y-95871785D01*
X135641000Y-95888419D01*
X138610877Y-98858296D01*
X138644362Y-98919619D01*
X138641128Y-98984293D01*
X138636754Y-98997755D01*
X138603500Y-99207713D01*
X138603500Y-99420286D01*
X138633255Y-99608155D01*
X138636754Y-99630243D01*
X138680814Y-99765846D01*
X138702444Y-99832414D01*
X138798951Y-100021820D01*
X138923890Y-100193786D01*
X139074213Y-100344109D01*
X139246182Y-100469050D01*
X139254946Y-100473516D01*
X139305742Y-100521491D01*
X139322536Y-100589312D01*
X139299998Y-100655447D01*
X139254946Y-100694484D01*
X139246182Y-100698949D01*
X139074213Y-100823890D01*
X138923890Y-100974213D01*
X138798951Y-101146179D01*
X138702444Y-101335585D01*
X138636753Y-101537760D01*
X138603500Y-101747713D01*
X138603500Y-101960286D01*
X138627258Y-102110292D01*
X138636754Y-102170243D01*
X138661195Y-102245465D01*
X138702444Y-102372414D01*
X138798951Y-102561820D01*
X138923890Y-102733786D01*
X139074213Y-102884109D01*
X139246179Y-103009048D01*
X139246181Y-103009049D01*
X139246184Y-103009051D01*
X139255493Y-103013794D01*
X139306290Y-103061766D01*
X139323087Y-103129587D01*
X139300552Y-103195722D01*
X139255505Y-103234760D01*
X139246446Y-103239376D01*
X139246440Y-103239380D01*
X139192282Y-103278727D01*
X139192282Y-103278728D01*
X139824591Y-103911037D01*
X139761007Y-103928075D01*
X139646993Y-103993901D01*
X139553901Y-104086993D01*
X139488075Y-104201007D01*
X139471037Y-104264591D01*
X138838728Y-103632282D01*
X138838727Y-103632282D01*
X138799380Y-103686439D01*
X138702904Y-103875782D01*
X138637242Y-104077869D01*
X138637242Y-104077872D01*
X138604000Y-104287753D01*
X138604000Y-104500246D01*
X138637242Y-104710127D01*
X138637242Y-104710130D01*
X138702904Y-104912217D01*
X138799375Y-105101550D01*
X138838728Y-105155716D01*
X139471037Y-104523408D01*
X139488075Y-104586993D01*
X139553901Y-104701007D01*
X139646993Y-104794099D01*
X139761007Y-104859925D01*
X139824590Y-104876962D01*
X139192282Y-105509269D01*
X139192282Y-105509270D01*
X139246452Y-105548626D01*
X139246451Y-105548626D01*
X139255495Y-105553234D01*
X139306292Y-105601208D01*
X139323087Y-105669029D01*
X139300550Y-105735164D01*
X139255499Y-105774202D01*
X139246182Y-105778949D01*
X139074213Y-105903890D01*
X138923890Y-106054213D01*
X138798951Y-106226179D01*
X138702444Y-106415585D01*
X138636753Y-106617760D01*
X138603500Y-106827713D01*
X138603500Y-107040286D01*
X138636753Y-107250240D01*
X138636754Y-107250245D01*
X138641128Y-107263707D01*
X138643121Y-107333549D01*
X138610877Y-107389702D01*
X137774600Y-108225981D01*
X137713277Y-108259466D01*
X137686919Y-108262300D01*
X122794482Y-108262300D01*
X122773236Y-108256061D01*
X122751149Y-108254482D01*
X122740365Y-108246409D01*
X122727443Y-108242615D01*
X122712944Y-108225883D01*
X122695215Y-108212611D01*
X122690507Y-108199988D01*
X122681688Y-108189811D01*
X122678536Y-108167895D01*
X122670798Y-108147147D01*
X122673660Y-108133985D01*
X122671744Y-108120653D01*
X122680942Y-108100511D01*
X122685649Y-108078874D01*
X122698920Y-108061145D01*
X122700769Y-108057097D01*
X122706800Y-108050619D01*
X122727411Y-108030008D01*
X122788411Y-107969008D01*
X125611708Y-105145711D01*
X126562220Y-104195200D01*
X126979408Y-103778011D01*
X126979411Y-103778008D01*
X126999091Y-103748555D01*
X127011900Y-103729386D01*
X127048076Y-103675243D01*
X127048083Y-103675233D01*
X127066389Y-103631038D01*
X127095386Y-103561035D01*
X127119500Y-103439803D01*
X127119500Y-103316197D01*
X127119500Y-94672281D01*
X127139185Y-94605242D01*
X127155819Y-94584600D01*
X128757409Y-92983010D01*
X128757411Y-92983008D01*
X128782435Y-92945557D01*
X128801680Y-92916755D01*
X128809796Y-92904607D01*
X128826083Y-92880233D01*
X128851864Y-92817992D01*
X128873386Y-92766034D01*
X128897500Y-92644803D01*
X128897500Y-92632164D01*
X128901282Y-92617205D01*
X128911515Y-92599868D01*
X128917185Y-92580559D01*
X128928909Y-92570399D01*
X128936798Y-92557035D01*
X128954779Y-92547983D01*
X128969989Y-92534804D01*
X128983182Y-92529667D01*
X128998675Y-92524633D01*
X129169219Y-92469220D01*
X129255258Y-92425380D01*
X129261247Y-92424255D01*
X129266059Y-92420512D01*
X129295186Y-92417881D01*
X129323926Y-92412484D01*
X129329574Y-92414776D01*
G37*
%TD.AperFunction*%
%TA.AperFunction,Conductor*%
G36*
X91017958Y-91782385D02*
G01*
X91038600Y-91799019D01*
X94993181Y-95753600D01*
X95007884Y-95780527D01*
X95024477Y-95806346D01*
X95025368Y-95812546D01*
X95026666Y-95814923D01*
X95029500Y-95841281D01*
X95029500Y-96039000D01*
X95009815Y-96106039D01*
X94957011Y-96151794D01*
X94905503Y-96163000D01*
X94867637Y-96163000D01*
X94750241Y-96178454D01*
X94750239Y-96178455D01*
X94728796Y-96187337D01*
X94659327Y-96194804D01*
X94633895Y-96187337D01*
X94613631Y-96178944D01*
X94557000Y-96171487D01*
X94557000Y-96213999D01*
X94537315Y-96281038D01*
X94526663Y-96295260D01*
X94518439Y-96304738D01*
X94478718Y-96335218D01*
X94382464Y-96460659D01*
X94381823Y-96462204D01*
X94374663Y-96470458D01*
X94348271Y-96487395D01*
X94322948Y-96505886D01*
X94319103Y-96506115D01*
X94315861Y-96508196D01*
X94284503Y-96508176D01*
X94253202Y-96510041D01*
X94249842Y-96508154D01*
X94245991Y-96508152D01*
X94219627Y-96491185D01*
X94192281Y-96475829D01*
X94190474Y-96472425D01*
X94187237Y-96470342D01*
X94174228Y-96441810D01*
X94159529Y-96414111D01*
X94158936Y-96408270D01*
X94158251Y-96406768D01*
X94158563Y-96404602D01*
X94157000Y-96389197D01*
X94157000Y-96171487D01*
X94100368Y-96178944D01*
X93954413Y-96239399D01*
X93829075Y-96335575D01*
X93732899Y-96460913D01*
X93672445Y-96606865D01*
X93672444Y-96606869D01*
X93657000Y-96724169D01*
X93657000Y-97201000D01*
X94182500Y-97201000D01*
X94191185Y-97203550D01*
X94200147Y-97202262D01*
X94224187Y-97213240D01*
X94249539Y-97220685D01*
X94255466Y-97227525D01*
X94263703Y-97231287D01*
X94277992Y-97253521D01*
X94295294Y-97273489D01*
X94297581Y-97284003D01*
X94301477Y-97290065D01*
X94306500Y-97325000D01*
X94306500Y-97477000D01*
X94286815Y-97544039D01*
X94234011Y-97589794D01*
X94182500Y-97601000D01*
X93657001Y-97601000D01*
X93657001Y-98077824D01*
X93672442Y-98195128D01*
X93672444Y-98195133D01*
X93732900Y-98341088D01*
X93746628Y-98358979D01*
X93771821Y-98424148D01*
X93757782Y-98492593D01*
X93735932Y-98522145D01*
X87831899Y-104426181D01*
X87770576Y-104459666D01*
X87744218Y-104462500D01*
X85734781Y-104462500D01*
X85667742Y-104442815D01*
X85634462Y-104411385D01*
X85632289Y-104408394D01*
X85632287Y-104408390D01*
X85511966Y-104242781D01*
X85367219Y-104098034D01*
X85367213Y-104098028D01*
X85201614Y-103977715D01*
X85195006Y-103974348D01*
X85108917Y-103930483D01*
X85058123Y-103882511D01*
X85041328Y-103814690D01*
X85063865Y-103748555D01*
X85108917Y-103709516D01*
X85201610Y-103662287D01*
X85340984Y-103561027D01*
X85367213Y-103541971D01*
X85367215Y-103541968D01*
X85367219Y-103541966D01*
X85511966Y-103397219D01*
X85511968Y-103397215D01*
X85511971Y-103397213D01*
X85598054Y-103278728D01*
X85632287Y-103231610D01*
X85725220Y-103049219D01*
X85788477Y-102854534D01*
X85820500Y-102652352D01*
X85820500Y-102447648D01*
X85798602Y-102309394D01*
X85788477Y-102245465D01*
X85725218Y-102050776D01*
X85679110Y-101960286D01*
X85632287Y-101868390D01*
X85606936Y-101833497D01*
X85511971Y-101702786D01*
X85367213Y-101558028D01*
X85201614Y-101437715D01*
X85195006Y-101434348D01*
X85108917Y-101390483D01*
X85058123Y-101342511D01*
X85041328Y-101274690D01*
X85063865Y-101208555D01*
X85108917Y-101169516D01*
X85201610Y-101122287D01*
X85222770Y-101106913D01*
X85367213Y-101001971D01*
X85367215Y-101001968D01*
X85367219Y-101001966D01*
X85511966Y-100857219D01*
X85511968Y-100857215D01*
X85511971Y-100857213D01*
X85581668Y-100761281D01*
X85632287Y-100691610D01*
X85725220Y-100509219D01*
X85788477Y-100314534D01*
X85820500Y-100112352D01*
X85820500Y-99907648D01*
X85808584Y-99832412D01*
X85788477Y-99705465D01*
X85729057Y-99522590D01*
X85725220Y-99510781D01*
X85725218Y-99510778D01*
X85725218Y-99510776D01*
X85649827Y-99362815D01*
X85632287Y-99328390D01*
X85617338Y-99307814D01*
X85511971Y-99162786D01*
X85367213Y-99018028D01*
X85201614Y-98897715D01*
X85176349Y-98884842D01*
X85108917Y-98850483D01*
X85058123Y-98802511D01*
X85041328Y-98734690D01*
X85063865Y-98668555D01*
X85108917Y-98629516D01*
X85201610Y-98582287D01*
X85284389Y-98522145D01*
X85367213Y-98461971D01*
X85367215Y-98461968D01*
X85367219Y-98461966D01*
X85511966Y-98317219D01*
X85511968Y-98317215D01*
X85511971Y-98317213D01*
X85600666Y-98195133D01*
X85632287Y-98151610D01*
X85725220Y-97969219D01*
X85788477Y-97774534D01*
X85820500Y-97572352D01*
X85820500Y-97367648D01*
X85807252Y-97284003D01*
X85788477Y-97165465D01*
X85725218Y-96970776D01*
X85679110Y-96880286D01*
X85632287Y-96788390D01*
X85623808Y-96776719D01*
X85511971Y-96622786D01*
X85367213Y-96478028D01*
X85201613Y-96357715D01*
X85201612Y-96357714D01*
X85201610Y-96357713D01*
X85108920Y-96310485D01*
X85108369Y-96310204D01*
X85057573Y-96262229D01*
X85040778Y-96194408D01*
X85063316Y-96128273D01*
X85108370Y-96089234D01*
X85119838Y-96083390D01*
X84449410Y-95412962D01*
X84512993Y-95395925D01*
X84627007Y-95330099D01*
X84720099Y-95237007D01*
X84785925Y-95122993D01*
X84802962Y-95059411D01*
X85515312Y-95771761D01*
X85515312Y-95771760D01*
X85631859Y-95611349D01*
X85724755Y-95429031D01*
X85787990Y-95234417D01*
X85820000Y-95032317D01*
X85820000Y-94827682D01*
X85787990Y-94625582D01*
X85724755Y-94430968D01*
X85631859Y-94248650D01*
X85515312Y-94088238D01*
X85515312Y-94088237D01*
X84802962Y-94800588D01*
X84785925Y-94737007D01*
X84720099Y-94622993D01*
X84627007Y-94529901D01*
X84512993Y-94464075D01*
X84449410Y-94447037D01*
X85119839Y-93776608D01*
X85108371Y-93770765D01*
X85057575Y-93722792D01*
X85040779Y-93654971D01*
X85063316Y-93588836D01*
X85108370Y-93549795D01*
X85108920Y-93549515D01*
X85201610Y-93502287D01*
X85267274Y-93454580D01*
X85367213Y-93381971D01*
X85367215Y-93381968D01*
X85367219Y-93381966D01*
X85511966Y-93237219D01*
X85511968Y-93237215D01*
X85511971Y-93237213D01*
X85590570Y-93129029D01*
X85632287Y-93071610D01*
X85725220Y-92889219D01*
X85788477Y-92694534D01*
X85820500Y-92492352D01*
X85820500Y-92287648D01*
X85788477Y-92085466D01*
X85772753Y-92037074D01*
X85764102Y-92010448D01*
X85736343Y-91925016D01*
X85734349Y-91855178D01*
X85770429Y-91795345D01*
X85833130Y-91764516D01*
X85854275Y-91762700D01*
X90950919Y-91762700D01*
X91017958Y-91782385D01*
G37*
%TD.AperFunction*%
%TA.AperFunction,Conductor*%
G36*
X119086603Y-91956541D02*
G01*
X119091966Y-91955455D01*
X119119768Y-91966279D01*
X119148393Y-91974685D01*
X119153328Y-91979346D01*
X119157075Y-91980805D01*
X119181673Y-92006116D01*
X119258030Y-92111215D01*
X119402786Y-92255971D01*
X119542971Y-92357819D01*
X119568390Y-92376287D01*
X119669417Y-92427763D01*
X119750776Y-92469218D01*
X119750778Y-92469218D01*
X119750781Y-92469220D01*
X119821971Y-92492351D01*
X119945465Y-92532477D01*
X120022499Y-92544678D01*
X120147648Y-92564500D01*
X120147649Y-92564500D01*
X121152351Y-92564500D01*
X121152352Y-92564500D01*
X121354534Y-92532477D01*
X121549219Y-92469220D01*
X121731610Y-92376287D01*
X121853612Y-92287648D01*
X121897213Y-92255971D01*
X121897215Y-92255968D01*
X121897219Y-92255966D01*
X122041966Y-92111219D01*
X122084181Y-92053113D01*
X122139511Y-92010448D01*
X122209124Y-92004469D01*
X122270920Y-92037074D01*
X122305277Y-92097912D01*
X122308500Y-92125999D01*
X122308500Y-101288719D01*
X122288815Y-101355758D01*
X122272181Y-101376400D01*
X121200400Y-102448181D01*
X121139077Y-102481666D01*
X121112719Y-102484500D01*
X111777888Y-102484500D01*
X111710849Y-102464815D01*
X111665094Y-102412011D01*
X111655150Y-102342853D01*
X111684175Y-102279297D01*
X111708997Y-102257398D01*
X111738141Y-102237924D01*
X111762289Y-102221789D01*
X111873789Y-102110289D01*
X111961394Y-101979179D01*
X111961395Y-101979176D01*
X111961397Y-101979173D01*
X112007284Y-101868390D01*
X112020682Y-101836041D01*
X112064522Y-101781639D01*
X112111052Y-101761878D01*
X112147887Y-101754550D01*
X112247497Y-101734737D01*
X112393179Y-101674394D01*
X112524289Y-101586789D01*
X112635789Y-101475289D01*
X112723394Y-101344179D01*
X112724085Y-101342511D01*
X112786068Y-101192870D01*
X112788626Y-101193929D01*
X112820316Y-101145450D01*
X112876598Y-101118172D01*
X113009497Y-101091737D01*
X113155179Y-101031394D01*
X113286289Y-100943789D01*
X113397789Y-100832289D01*
X113485394Y-100701179D01*
X113485395Y-100701176D01*
X113485397Y-100701173D01*
X113544682Y-100558043D01*
X113588522Y-100503639D01*
X113635052Y-100483878D01*
X113671887Y-100476550D01*
X113771497Y-100456737D01*
X113917179Y-100396394D01*
X114048289Y-100308789D01*
X114159789Y-100197289D01*
X114247394Y-100066179D01*
X114307737Y-99920497D01*
X114338500Y-99765842D01*
X114338500Y-99608158D01*
X114338500Y-99608155D01*
X114338499Y-99608153D01*
X114320305Y-99516685D01*
X114307737Y-99453503D01*
X114270173Y-99362815D01*
X114247397Y-99307827D01*
X114247390Y-99307814D01*
X114159789Y-99176711D01*
X114159786Y-99176707D01*
X114048292Y-99065213D01*
X114048288Y-99065210D01*
X113917185Y-98977609D01*
X113917172Y-98977602D01*
X113771501Y-98917264D01*
X113771491Y-98917261D01*
X113663815Y-98895843D01*
X113601904Y-98863458D01*
X113600326Y-98861907D01*
X112041010Y-97302591D01*
X112041008Y-97302589D01*
X112021170Y-97289334D01*
X112021168Y-97289332D01*
X111938235Y-97233918D01*
X111938236Y-97233918D01*
X111899721Y-97217965D01*
X111899719Y-97217964D01*
X111824035Y-97186614D01*
X111824027Y-97186612D01*
X111702807Y-97162500D01*
X111702803Y-97162500D01*
X110910757Y-97162500D01*
X110843718Y-97142815D01*
X110797963Y-97090011D01*
X110787398Y-97025903D01*
X110787488Y-97025014D01*
X110788000Y-97020009D01*
X110787999Y-96019992D01*
X110777499Y-95917203D01*
X110722314Y-95750666D01*
X110630212Y-95601344D01*
X110506156Y-95477288D01*
X110506155Y-95477287D01*
X110506152Y-95477284D01*
X110504963Y-95476344D01*
X110504359Y-95475491D01*
X110501049Y-95472181D01*
X110501614Y-95471615D01*
X110490680Y-95456173D01*
X110473166Y-95438732D01*
X110467702Y-95423723D01*
X110464586Y-95419322D01*
X110460763Y-95405688D01*
X110460497Y-95404481D01*
X110439445Y-95298643D01*
X110434755Y-95287322D01*
X110432402Y-95276610D01*
X110434092Y-95252253D01*
X110431484Y-95227982D01*
X110437107Y-95208831D01*
X110437241Y-95206909D01*
X110437952Y-95205954D01*
X110438954Y-95202543D01*
X110439444Y-95201359D01*
X110439445Y-95201357D01*
X110443307Y-95181942D01*
X110466000Y-95067858D01*
X110466253Y-95066587D01*
X110498638Y-95004676D01*
X110501087Y-95002457D01*
X110501049Y-95002419D01*
X110561652Y-94941816D01*
X110630212Y-94873256D01*
X110722314Y-94723934D01*
X110777499Y-94557397D01*
X110788000Y-94454609D01*
X110787999Y-93454592D01*
X110777499Y-93351803D01*
X110763647Y-93310003D01*
X110761246Y-93240177D01*
X110796977Y-93180134D01*
X110859497Y-93148941D01*
X110881354Y-93147000D01*
X116844531Y-93147000D01*
X116934874Y-93129029D01*
X116978028Y-93120445D01*
X117061864Y-93085719D01*
X117103780Y-93068357D01*
X117103783Y-93068355D01*
X117216958Y-92992735D01*
X118218373Y-91991318D01*
X118279696Y-91957834D01*
X118306054Y-91955000D01*
X119081354Y-91955000D01*
X119086603Y-91956541D01*
G37*
%TD.AperFunction*%
%TA.AperFunction,Conductor*%
G36*
X96000383Y-88464865D02*
G01*
X96015411Y-88467117D01*
X96050238Y-88481544D01*
X96167639Y-88497000D01*
X96214748Y-88496999D01*
X96223883Y-88498369D01*
X96287263Y-88527775D01*
X96324685Y-88586778D01*
X96329500Y-88620999D01*
X96329500Y-88636807D01*
X96353612Y-88758028D01*
X96353614Y-88758034D01*
X96381912Y-88826352D01*
X96386637Y-88837757D01*
X96400917Y-88872233D01*
X96466888Y-88970965D01*
X96469589Y-88975008D01*
X98064589Y-90570008D01*
X98110183Y-90615602D01*
X98151994Y-90657413D01*
X98151996Y-90657414D01*
X98254756Y-90726076D01*
X98254758Y-90726077D01*
X98254767Y-90726083D01*
X98280233Y-90736631D01*
X98280234Y-90736632D01*
X98280235Y-90736632D01*
X98368966Y-90773386D01*
X98490192Y-90797499D01*
X98490196Y-90797500D01*
X98490197Y-90797500D01*
X101661804Y-90797500D01*
X101661805Y-90797499D01*
X101783035Y-90773386D01*
X101871765Y-90736632D01*
X101897233Y-90726083D01*
X102000008Y-90657411D01*
X102087411Y-90570008D01*
X103144319Y-89513100D01*
X103205642Y-89479615D01*
X103275334Y-89484599D01*
X103331267Y-89526471D01*
X103355684Y-89591935D01*
X103356000Y-89600781D01*
X103356000Y-89913855D01*
X103366413Y-90015776D01*
X103421137Y-90180922D01*
X103421142Y-90180933D01*
X103512471Y-90328999D01*
X103512474Y-90329003D01*
X103635496Y-90452025D01*
X103635500Y-90452028D01*
X103783566Y-90543357D01*
X103783569Y-90543358D01*
X103783575Y-90543362D01*
X103948725Y-90598087D01*
X104050652Y-90608500D01*
X104515916Y-90608500D01*
X104582955Y-90628185D01*
X104603597Y-90644819D01*
X106951509Y-92992731D01*
X106951512Y-92992733D01*
X106951514Y-92992735D01*
X106972427Y-93006708D01*
X107017231Y-93060319D01*
X107025939Y-93129644D01*
X107019248Y-93154383D01*
X107015112Y-93165119D01*
X107002686Y-93185266D01*
X106973972Y-93271916D01*
X106972911Y-93274673D01*
X106953400Y-93300163D01*
X106935132Y-93326549D01*
X106932305Y-93327724D01*
X106930444Y-93330156D01*
X106900247Y-93341052D01*
X106870616Y-93353372D01*
X106865309Y-93353659D01*
X106864722Y-93353872D01*
X106864085Y-93353726D01*
X106857199Y-93354100D01*
X104404470Y-93354100D01*
X104404454Y-93354099D01*
X104396858Y-93354099D01*
X104238743Y-93354099D01*
X104162379Y-93374561D01*
X104086014Y-93395023D01*
X104086009Y-93395026D01*
X103949090Y-93474075D01*
X103949082Y-93474081D01*
X100988380Y-96434783D01*
X100927057Y-96468268D01*
X100857365Y-96463284D01*
X100802323Y-96422588D01*
X100795818Y-96414111D01*
X100735282Y-96335218D01*
X100609841Y-96238964D01*
X100527912Y-96205028D01*
X100463762Y-96178456D01*
X100463760Y-96178455D01*
X100346370Y-96163001D01*
X100346367Y-96163000D01*
X100346361Y-96163000D01*
X100346354Y-96163000D01*
X100308500Y-96163000D01*
X100241461Y-96143315D01*
X100195706Y-96090511D01*
X100184500Y-96039000D01*
X100184500Y-94669195D01*
X100182918Y-94661246D01*
X100178224Y-94637644D01*
X100160386Y-94547966D01*
X100132676Y-94481070D01*
X100113083Y-94433767D01*
X100111084Y-94430776D01*
X100044414Y-94330996D01*
X100044413Y-94330994D01*
X100044411Y-94330992D01*
X99957008Y-94243589D01*
X94421483Y-88708064D01*
X94416365Y-88698691D01*
X94407987Y-88692071D01*
X94399911Y-88668559D01*
X94387998Y-88646741D01*
X94388759Y-88636089D01*
X94385291Y-88625990D01*
X94391208Y-88601846D01*
X94392982Y-88577049D01*
X94399382Y-88568499D01*
X94401924Y-88558129D01*
X94419956Y-88541016D01*
X94434854Y-88521116D01*
X94446197Y-88516114D01*
X94452605Y-88510033D01*
X94477808Y-88502174D01*
X94485985Y-88498569D01*
X94494235Y-88496999D01*
X94496360Y-88496999D01*
X94613762Y-88481544D01*
X94646310Y-88468061D01*
X94658821Y-88465681D01*
X94681427Y-88467893D01*
X94704014Y-88465465D01*
X94727714Y-88472424D01*
X94728358Y-88472487D01*
X94728611Y-88472687D01*
X94729453Y-88472934D01*
X94750238Y-88481544D01*
X94867639Y-88497000D01*
X95146360Y-88496999D01*
X95146361Y-88496999D01*
X95158594Y-88495388D01*
X95263762Y-88481544D01*
X95284545Y-88472934D01*
X95354014Y-88465465D01*
X95379453Y-88472934D01*
X95400238Y-88481544D01*
X95517639Y-88497000D01*
X95796360Y-88496999D01*
X95796361Y-88496999D01*
X95808594Y-88495388D01*
X95913762Y-88481544D01*
X95934545Y-88472934D01*
X95950474Y-88471222D01*
X95965090Y-88464653D01*
X96000383Y-88464865D01*
G37*
%TD.AperFunction*%
%TA.AperFunction,Conductor*%
G36*
X119204259Y-86992271D02*
G01*
X119255205Y-87027908D01*
X119258031Y-87031216D01*
X119402786Y-87175971D01*
X119545145Y-87279399D01*
X119568390Y-87296287D01*
X119659840Y-87342883D01*
X119661080Y-87343515D01*
X119711876Y-87391490D01*
X119728671Y-87459311D01*
X119706134Y-87525446D01*
X119661080Y-87564485D01*
X119568386Y-87611715D01*
X119402786Y-87732028D01*
X119258028Y-87876786D01*
X119137715Y-88042386D01*
X119044781Y-88224776D01*
X118981522Y-88419465D01*
X118949500Y-88621648D01*
X118949500Y-88826351D01*
X118981522Y-89028534D01*
X119044781Y-89223223D01*
X119137715Y-89405613D01*
X119258028Y-89571213D01*
X119402786Y-89715971D01*
X119511451Y-89794919D01*
X119568390Y-89836287D01*
X119659840Y-89882883D01*
X119661080Y-89883515D01*
X119711876Y-89931490D01*
X119728671Y-89999311D01*
X119706134Y-90065446D01*
X119661080Y-90104485D01*
X119568386Y-90151715D01*
X119402786Y-90272028D01*
X119258030Y-90416784D01*
X119181673Y-90521884D01*
X119126343Y-90564551D01*
X119081354Y-90573000D01*
X117900411Y-90573000D01*
X117777219Y-90597505D01*
X117774736Y-90597999D01*
X117774299Y-90598086D01*
X117766915Y-90599554D01*
X117766911Y-90599555D01*
X117641166Y-90651640D01*
X117641153Y-90651647D01*
X117527985Y-90727264D01*
X117527981Y-90727267D01*
X116526568Y-91728681D01*
X116465245Y-91762166D01*
X116438887Y-91765000D01*
X107729583Y-91765000D01*
X107662544Y-91745315D01*
X107641902Y-91728681D01*
X106679088Y-90765867D01*
X106645603Y-90704544D01*
X106650587Y-90634852D01*
X106692459Y-90578919D01*
X106727763Y-90560480D01*
X106779425Y-90543362D01*
X106927503Y-90452026D01*
X106986152Y-90393376D01*
X107047471Y-90359894D01*
X107117163Y-90364878D01*
X107161511Y-90393379D01*
X107218844Y-90450712D01*
X107368166Y-90542814D01*
X107534703Y-90597999D01*
X107637491Y-90608500D01*
X108262508Y-90608499D01*
X108262516Y-90608498D01*
X108262519Y-90608498D01*
X108343936Y-90600181D01*
X108365297Y-90597999D01*
X108531834Y-90542814D01*
X108681156Y-90450712D01*
X108775175Y-90356692D01*
X108836494Y-90323210D01*
X108906186Y-90328194D01*
X108950534Y-90356695D01*
X109044154Y-90450315D01*
X109193375Y-90542356D01*
X109193380Y-90542358D01*
X109359802Y-90597505D01*
X109359809Y-90597506D01*
X109462519Y-90607999D01*
X110025000Y-90607999D01*
X110087472Y-90607999D01*
X110087486Y-90607998D01*
X110190197Y-90597505D01*
X110356619Y-90542358D01*
X110356624Y-90542356D01*
X110505845Y-90450315D01*
X110629815Y-90326345D01*
X110721856Y-90177124D01*
X110721858Y-90177119D01*
X110777005Y-90010697D01*
X110777006Y-90010690D01*
X110787499Y-89907986D01*
X110787500Y-89907973D01*
X110787500Y-89658000D01*
X110025000Y-89658000D01*
X110025000Y-90607999D01*
X109462519Y-90607999D01*
X109524999Y-90607998D01*
X109525000Y-90607998D01*
X109525000Y-89532000D01*
X109544685Y-89464961D01*
X109597489Y-89419206D01*
X109649000Y-89408000D01*
X109775000Y-89408000D01*
X109775000Y-89282000D01*
X109794685Y-89214961D01*
X109847489Y-89169206D01*
X109899000Y-89158000D01*
X110787499Y-89158000D01*
X110787499Y-88908028D01*
X110787498Y-88908013D01*
X110777005Y-88805302D01*
X110721858Y-88638880D01*
X110721856Y-88638875D01*
X110629815Y-88489654D01*
X110505844Y-88365683D01*
X110505840Y-88365680D01*
X110412620Y-88308181D01*
X110365895Y-88256233D01*
X110354674Y-88187271D01*
X110382517Y-88123189D01*
X110412618Y-88097105D01*
X110506156Y-88039412D01*
X110630212Y-87915356D01*
X110722314Y-87766034D01*
X110741148Y-87709195D01*
X110780921Y-87651751D01*
X110845437Y-87624928D01*
X110858854Y-87624200D01*
X118271704Y-87624200D01*
X118271705Y-87624199D01*
X118392935Y-87600086D01*
X118478114Y-87564803D01*
X118507133Y-87552783D01*
X118609908Y-87484111D01*
X118697311Y-87396708D01*
X119073247Y-87020770D01*
X119134568Y-86987287D01*
X119204259Y-86992271D01*
G37*
%TD.AperFunction*%
%TA.AperFunction,Conductor*%
G36*
X82861017Y-89216985D02*
G01*
X82906772Y-89269789D01*
X82916716Y-89338947D01*
X82911910Y-89359612D01*
X82892547Y-89419206D01*
X82851522Y-89545465D01*
X82819500Y-89747648D01*
X82819500Y-89952351D01*
X82851522Y-90154534D01*
X82879972Y-90242092D01*
X82913534Y-90345384D01*
X82915529Y-90415222D01*
X82879449Y-90475055D01*
X82816749Y-90505884D01*
X82795603Y-90507700D01*
X67248195Y-90507700D01*
X67126970Y-90531813D01*
X67126960Y-90531816D01*
X67012769Y-90579115D01*
X66918340Y-90642211D01*
X66918338Y-90642212D01*
X66909993Y-90647787D01*
X66909988Y-90647791D01*
X65831600Y-91726181D01*
X65770277Y-91759666D01*
X65743919Y-91762500D01*
X65414781Y-91762500D01*
X65347742Y-91742815D01*
X65314462Y-91711385D01*
X65312289Y-91708394D01*
X65312287Y-91708390D01*
X65191966Y-91542781D01*
X65047219Y-91398034D01*
X65047213Y-91398028D01*
X64881614Y-91277715D01*
X64875006Y-91274348D01*
X64788917Y-91230483D01*
X64738123Y-91182511D01*
X64721328Y-91114690D01*
X64743865Y-91048555D01*
X64788917Y-91009516D01*
X64881610Y-90962287D01*
X64927758Y-90928759D01*
X65047213Y-90841971D01*
X65047215Y-90841968D01*
X65047219Y-90841966D01*
X65191966Y-90697219D01*
X65312287Y-90531610D01*
X65312289Y-90531605D01*
X65314462Y-90528615D01*
X65369792Y-90485949D01*
X65414781Y-90477500D01*
X66117004Y-90477500D01*
X66117005Y-90477499D01*
X66238235Y-90453386D01*
X66324609Y-90417608D01*
X66352433Y-90406083D01*
X66455208Y-90337411D01*
X66542611Y-90250008D01*
X67559000Y-89233619D01*
X67620323Y-89200134D01*
X67646681Y-89197300D01*
X82793978Y-89197300D01*
X82861017Y-89216985D01*
G37*
%TD.AperFunction*%
%TA.AperFunction,Conductor*%
G36*
X135088758Y-74131185D02*
G01*
X135109400Y-74147819D01*
X136021581Y-75060000D01*
X136055066Y-75121323D01*
X136057900Y-75147681D01*
X136057900Y-89198842D01*
X136038215Y-89265881D01*
X136037002Y-89267733D01*
X135976009Y-89359014D01*
X135976002Y-89359027D01*
X135915664Y-89504698D01*
X135915661Y-89504710D01*
X135884900Y-89659353D01*
X135884900Y-89817046D01*
X135915661Y-89971689D01*
X135915664Y-89971701D01*
X135976002Y-90117372D01*
X135976009Y-90117385D01*
X136059336Y-90242092D01*
X136080214Y-90308770D01*
X136061729Y-90376150D01*
X136043916Y-90398664D01*
X135842398Y-90600182D01*
X135781078Y-90633666D01*
X135754719Y-90636500D01*
X134289157Y-90636500D01*
X134222118Y-90616815D01*
X134220266Y-90615602D01*
X134128985Y-90554609D01*
X134128972Y-90554602D01*
X133983301Y-90494264D01*
X133983291Y-90494261D01*
X133850108Y-90467769D01*
X133788197Y-90435384D01*
X133753623Y-90374668D01*
X133750300Y-90346152D01*
X133750300Y-89263356D01*
X133769985Y-89196317D01*
X133771198Y-89194465D01*
X133776733Y-89186181D01*
X133832194Y-89103179D01*
X133892537Y-88957497D01*
X133923300Y-88802842D01*
X133923300Y-88645158D01*
X133923300Y-88645155D01*
X133923299Y-88645153D01*
X133919487Y-88625990D01*
X133892537Y-88490503D01*
X133891535Y-88488083D01*
X133832197Y-88344827D01*
X133832190Y-88344814D01*
X133744589Y-88213711D01*
X133744586Y-88213707D01*
X133633092Y-88102213D01*
X133633088Y-88102210D01*
X133501985Y-88014609D01*
X133501972Y-88014602D01*
X133356301Y-87954264D01*
X133356291Y-87954261D01*
X133223108Y-87927769D01*
X133161197Y-87895384D01*
X133126623Y-87834668D01*
X133123300Y-87806152D01*
X133123300Y-86723356D01*
X133142985Y-86656317D01*
X133144198Y-86654465D01*
X133145428Y-86652624D01*
X133205194Y-86563179D01*
X133265537Y-86417497D01*
X133296300Y-86262842D01*
X133296300Y-86105158D01*
X133296300Y-86105155D01*
X133296299Y-86105153D01*
X133289250Y-86069718D01*
X133265537Y-85950503D01*
X133247180Y-85906184D01*
X133205197Y-85804827D01*
X133205190Y-85804814D01*
X133117589Y-85673711D01*
X133117586Y-85673707D01*
X133006092Y-85562213D01*
X133006088Y-85562210D01*
X132874985Y-85474609D01*
X132874972Y-85474602D01*
X132729301Y-85414264D01*
X132729291Y-85414261D01*
X132596108Y-85387769D01*
X132534197Y-85355384D01*
X132499623Y-85294668D01*
X132496300Y-85266152D01*
X132496300Y-84183356D01*
X132515985Y-84116317D01*
X132517198Y-84114465D01*
X132524172Y-84104028D01*
X132578194Y-84023179D01*
X132638537Y-83877497D01*
X132669300Y-83722842D01*
X132669300Y-83565158D01*
X132669300Y-83565155D01*
X132669299Y-83565153D01*
X132658821Y-83512479D01*
X132638537Y-83410503D01*
X132620180Y-83366184D01*
X132578197Y-83264827D01*
X132578190Y-83264814D01*
X132490589Y-83133711D01*
X132490586Y-83133707D01*
X132379091Y-83022212D01*
X132379088Y-83022210D01*
X132247985Y-82934609D01*
X132247972Y-82934602D01*
X132102301Y-82874264D01*
X132102291Y-82874261D01*
X131969108Y-82847769D01*
X131907197Y-82815384D01*
X131872623Y-82754668D01*
X131869300Y-82726152D01*
X131869300Y-81643356D01*
X131888985Y-81576317D01*
X131890198Y-81574465D01*
X131895733Y-81566181D01*
X131951194Y-81483179D01*
X132011537Y-81337497D01*
X132042300Y-81182842D01*
X132042300Y-81025158D01*
X132042300Y-81025155D01*
X132042299Y-81025153D01*
X132040396Y-81015585D01*
X132011537Y-80870503D01*
X131993178Y-80826179D01*
X131951197Y-80724827D01*
X131951190Y-80724814D01*
X131863589Y-80593711D01*
X131863586Y-80593707D01*
X131752091Y-80482212D01*
X131752088Y-80482210D01*
X131620985Y-80394609D01*
X131620972Y-80394602D01*
X131475301Y-80334264D01*
X131475291Y-80334261D01*
X131334108Y-80306178D01*
X131272197Y-80273793D01*
X131237623Y-80213077D01*
X131234300Y-80184561D01*
X131234300Y-79384995D01*
X131228587Y-79356277D01*
X131220018Y-79313197D01*
X131219430Y-79310243D01*
X131213287Y-79279356D01*
X131210186Y-79263766D01*
X131176650Y-79182803D01*
X131162883Y-79149567D01*
X131162882Y-79149566D01*
X131162879Y-79149560D01*
X131094212Y-79046793D01*
X131055805Y-79008386D01*
X131006808Y-78959389D01*
X130577904Y-78530485D01*
X130124011Y-78076591D01*
X130124005Y-78076586D01*
X130109419Y-78066841D01*
X130106336Y-78064781D01*
X130021233Y-78007917D01*
X129986427Y-77993500D01*
X129917104Y-77964785D01*
X129907035Y-77960614D01*
X129907027Y-77960612D01*
X129871559Y-77953557D01*
X129809648Y-77921173D01*
X129785265Y-77888235D01*
X129782287Y-77882390D01*
X129782285Y-77882387D01*
X129782284Y-77882385D01*
X129661971Y-77716786D01*
X129517213Y-77572028D01*
X129351614Y-77451715D01*
X129345006Y-77448348D01*
X129258917Y-77404483D01*
X129208123Y-77356511D01*
X129191328Y-77288690D01*
X129213865Y-77222555D01*
X129258917Y-77183516D01*
X129351610Y-77136287D01*
X129372770Y-77120913D01*
X129517213Y-77015971D01*
X129517215Y-77015968D01*
X129517219Y-77015966D01*
X129661966Y-76871219D01*
X129661968Y-76871215D01*
X129661971Y-76871213D01*
X129735329Y-76770243D01*
X129782287Y-76705610D01*
X129875220Y-76523219D01*
X129938477Y-76328534D01*
X129949443Y-76259294D01*
X129957351Y-76231256D01*
X129967385Y-76207035D01*
X129981166Y-76137757D01*
X129991500Y-76085805D01*
X129991500Y-75962194D01*
X129967386Y-75840970D01*
X129967384Y-75840963D01*
X129957353Y-75816747D01*
X129949442Y-75788699D01*
X129938477Y-75719466D01*
X129875220Y-75524781D01*
X129782287Y-75342390D01*
X129745543Y-75291816D01*
X129661971Y-75176786D01*
X129517213Y-75032028D01*
X129351614Y-74911715D01*
X129345006Y-74908348D01*
X129258917Y-74864483D01*
X129208123Y-74816511D01*
X129191328Y-74748690D01*
X129213865Y-74682555D01*
X129258917Y-74643516D01*
X129351610Y-74596287D01*
X129430230Y-74539167D01*
X129517213Y-74475971D01*
X129517215Y-74475968D01*
X129517219Y-74475966D01*
X129661966Y-74331219D01*
X129782287Y-74165610D01*
X129782289Y-74165605D01*
X129784462Y-74162615D01*
X129839792Y-74119949D01*
X129884781Y-74111500D01*
X135021719Y-74111500D01*
X135088758Y-74131185D01*
G37*
%TD.AperFunction*%
%TA.AperFunction,Conductor*%
G36*
X89189158Y-89216985D02*
G01*
X89209800Y-89233619D01*
X90272200Y-90296019D01*
X90305685Y-90357342D01*
X90300701Y-90427034D01*
X90258829Y-90482967D01*
X90193365Y-90507384D01*
X90184519Y-90507700D01*
X85844397Y-90507700D01*
X85777358Y-90488015D01*
X85731603Y-90435211D01*
X85721659Y-90366053D01*
X85726463Y-90345392D01*
X85788477Y-90154534D01*
X85820500Y-89952352D01*
X85820500Y-89747648D01*
X85799701Y-89616331D01*
X85788477Y-89545465D01*
X85767081Y-89479615D01*
X85728090Y-89359616D01*
X85726096Y-89289777D01*
X85762176Y-89229944D01*
X85824877Y-89199116D01*
X85846022Y-89197300D01*
X89122119Y-89197300D01*
X89189158Y-89216985D01*
G37*
%TD.AperFunction*%
%TA.AperFunction,Conductor*%
G36*
X82883555Y-86626185D02*
G01*
X82929310Y-86678989D01*
X82939254Y-86748147D01*
X82927001Y-86786794D01*
X82914782Y-86810773D01*
X82851522Y-87005465D01*
X82831416Y-87132412D01*
X82819500Y-87207648D01*
X82819500Y-87412352D01*
X82825855Y-87452477D01*
X82851523Y-87614535D01*
X82851523Y-87614538D01*
X82905280Y-87779982D01*
X82907275Y-87849823D01*
X82871195Y-87909656D01*
X82808494Y-87940484D01*
X82787349Y-87942300D01*
X67273595Y-87942300D01*
X67152370Y-87966413D01*
X67152360Y-87966416D01*
X67038173Y-88013713D01*
X67038158Y-88013721D01*
X66995256Y-88042389D01*
X66995255Y-88042390D01*
X66989535Y-88046212D01*
X66935389Y-88082390D01*
X66935388Y-88082391D01*
X65831600Y-89186181D01*
X65770277Y-89219666D01*
X65743919Y-89222500D01*
X65414781Y-89222500D01*
X65347742Y-89202815D01*
X65314462Y-89171385D01*
X65312289Y-89168394D01*
X65312287Y-89168390D01*
X65191966Y-89002781D01*
X65047219Y-88858034D01*
X65047213Y-88858028D01*
X64881614Y-88737715D01*
X64875006Y-88734348D01*
X64788917Y-88690483D01*
X64738123Y-88642511D01*
X64721328Y-88574690D01*
X64743865Y-88508555D01*
X64788917Y-88469516D01*
X64881610Y-88422287D01*
X64949549Y-88372927D01*
X65047213Y-88301971D01*
X65047215Y-88301968D01*
X65047219Y-88301966D01*
X65191966Y-88157219D01*
X65312287Y-87991610D01*
X65312289Y-87991605D01*
X65314462Y-87988615D01*
X65369792Y-87945949D01*
X65414781Y-87937500D01*
X66142404Y-87937500D01*
X66142405Y-87937499D01*
X66263635Y-87913386D01*
X66349579Y-87877786D01*
X66377833Y-87866083D01*
X66480608Y-87797411D01*
X66568011Y-87710008D01*
X67635200Y-86642819D01*
X67696523Y-86609334D01*
X67722881Y-86606500D01*
X82816516Y-86606500D01*
X82883555Y-86626185D01*
G37*
%TD.AperFunction*%
%TA.AperFunction,Conductor*%
G36*
X91043358Y-81622385D02*
G01*
X91064000Y-81639019D01*
X92781389Y-83356408D01*
X92835479Y-83410498D01*
X92868794Y-83443813D01*
X92868796Y-83443814D01*
X92952885Y-83500000D01*
X92971567Y-83512483D01*
X93005015Y-83526337D01*
X93085765Y-83559786D01*
X93198435Y-83582197D01*
X93206992Y-83583899D01*
X93206996Y-83583900D01*
X93206997Y-83583900D01*
X93330603Y-83583900D01*
X96107119Y-83583900D01*
X96174158Y-83603585D01*
X96194800Y-83620219D01*
X98383900Y-85809319D01*
X98417385Y-85870642D01*
X98412401Y-85940334D01*
X98370529Y-85996267D01*
X98305065Y-86020684D01*
X98296220Y-86021000D01*
X98117636Y-86021000D01*
X98000246Y-86036453D01*
X98000234Y-86036457D01*
X97979450Y-86045066D01*
X97909981Y-86052533D01*
X97884550Y-86045066D01*
X97863765Y-86036457D01*
X97863760Y-86036455D01*
X97746361Y-86021000D01*
X97467636Y-86021000D01*
X97350246Y-86036453D01*
X97350234Y-86036457D01*
X97329450Y-86045066D01*
X97259981Y-86052533D01*
X97234550Y-86045066D01*
X97213765Y-86036457D01*
X97213760Y-86036455D01*
X97096361Y-86021000D01*
X96817636Y-86021000D01*
X96700246Y-86036453D01*
X96700234Y-86036457D01*
X96679450Y-86045066D01*
X96609981Y-86052533D01*
X96584550Y-86045066D01*
X96563765Y-86036457D01*
X96563760Y-86036455D01*
X96446361Y-86021000D01*
X96167636Y-86021000D01*
X96050246Y-86036453D01*
X96050234Y-86036457D01*
X96029450Y-86045066D01*
X95959981Y-86052533D01*
X95934550Y-86045066D01*
X95913765Y-86036457D01*
X95913760Y-86036455D01*
X95796361Y-86021000D01*
X95517636Y-86021000D01*
X95400246Y-86036453D01*
X95400234Y-86036457D01*
X95379450Y-86045066D01*
X95309981Y-86052533D01*
X95284550Y-86045066D01*
X95263765Y-86036457D01*
X95263760Y-86036455D01*
X95146361Y-86021000D01*
X94867636Y-86021000D01*
X94750246Y-86036453D01*
X94750234Y-86036457D01*
X94729450Y-86045066D01*
X94659981Y-86052533D01*
X94634550Y-86045066D01*
X94613765Y-86036457D01*
X94613760Y-86036455D01*
X94496361Y-86021000D01*
X94217636Y-86021000D01*
X94100246Y-86036453D01*
X94100237Y-86036456D01*
X93954160Y-86096963D01*
X93828718Y-86193218D01*
X93732463Y-86318660D01*
X93671956Y-86464737D01*
X93671955Y-86464739D01*
X93656501Y-86582129D01*
X93656500Y-86582145D01*
X93656500Y-87643719D01*
X93636815Y-87710758D01*
X93584011Y-87756513D01*
X93514853Y-87766457D01*
X93451297Y-87737432D01*
X93444819Y-87731400D01*
X87527801Y-81814381D01*
X87494316Y-81753058D01*
X87499300Y-81683366D01*
X87541172Y-81627433D01*
X87606636Y-81603016D01*
X87615482Y-81602700D01*
X90976319Y-81602700D01*
X91043358Y-81622385D01*
G37*
%TD.AperFunction*%
%TA.AperFunction,Conductor*%
G36*
X82852764Y-84162385D02*
G01*
X82898519Y-84215189D01*
X82908463Y-84284347D01*
X82903657Y-84305012D01*
X82895837Y-84329081D01*
X82851522Y-84465465D01*
X82831416Y-84592412D01*
X82819500Y-84667648D01*
X82819500Y-84872352D01*
X82825855Y-84912477D01*
X82851523Y-85074535D01*
X82851523Y-85074538D01*
X82888774Y-85189182D01*
X82890769Y-85259023D01*
X82854689Y-85318856D01*
X82791988Y-85349684D01*
X82770843Y-85351500D01*
X67349795Y-85351500D01*
X67228570Y-85375613D01*
X67228560Y-85375616D01*
X67114373Y-85422913D01*
X67114360Y-85422920D01*
X67011592Y-85491588D01*
X67011588Y-85491591D01*
X65857000Y-86646181D01*
X65795677Y-86679666D01*
X65769319Y-86682500D01*
X65414781Y-86682500D01*
X65347742Y-86662815D01*
X65314462Y-86631385D01*
X65312289Y-86628394D01*
X65312287Y-86628390D01*
X65191966Y-86462781D01*
X65047219Y-86318034D01*
X65047213Y-86318028D01*
X64881614Y-86197715D01*
X64871293Y-86192456D01*
X64788917Y-86150483D01*
X64738123Y-86102511D01*
X64721328Y-86034690D01*
X64743865Y-85968555D01*
X64788917Y-85929516D01*
X64881610Y-85882287D01*
X64982043Y-85809319D01*
X65047213Y-85761971D01*
X65047215Y-85761968D01*
X65047219Y-85761966D01*
X65191966Y-85617219D01*
X65312287Y-85451610D01*
X65312289Y-85451605D01*
X65314462Y-85448615D01*
X65369792Y-85405949D01*
X65414781Y-85397500D01*
X66142404Y-85397500D01*
X66142405Y-85397499D01*
X66263635Y-85373386D01*
X66344384Y-85339937D01*
X66377833Y-85326083D01*
X66480608Y-85257411D01*
X66568011Y-85170008D01*
X67559000Y-84179019D01*
X67620323Y-84145534D01*
X67646681Y-84142700D01*
X82785725Y-84142700D01*
X82852764Y-84162385D01*
G37*
%TD.AperFunction*%
%TA.AperFunction,Conductor*%
G36*
X138696643Y-66925788D02*
G01*
X138711849Y-66925137D01*
X138729485Y-66935431D01*
X138749078Y-66941185D01*
X138759974Y-66953229D01*
X138772190Y-66960360D01*
X138792525Y-66989208D01*
X138798949Y-67001818D01*
X138923890Y-67173786D01*
X139074213Y-67324109D01*
X139246182Y-67449050D01*
X139254946Y-67453516D01*
X139305742Y-67501491D01*
X139322536Y-67569312D01*
X139299998Y-67635447D01*
X139254946Y-67674484D01*
X139246182Y-67678949D01*
X139074213Y-67803890D01*
X138923890Y-67954213D01*
X138798951Y-68126179D01*
X138702444Y-68315585D01*
X138636753Y-68517760D01*
X138603500Y-68727713D01*
X138603500Y-68940286D01*
X138628825Y-69100185D01*
X138636754Y-69150243D01*
X138685999Y-69301804D01*
X138702444Y-69352414D01*
X138798951Y-69541820D01*
X138923890Y-69713786D01*
X139074213Y-69864109D01*
X139246182Y-69989050D01*
X139254946Y-69993516D01*
X139305742Y-70041491D01*
X139322536Y-70109312D01*
X139299998Y-70175447D01*
X139254946Y-70214484D01*
X139246182Y-70218949D01*
X139074213Y-70343890D01*
X138923890Y-70494213D01*
X138798951Y-70666179D01*
X138702444Y-70855585D01*
X138636753Y-71057760D01*
X138603500Y-71267713D01*
X138603500Y-71480286D01*
X138636652Y-71689603D01*
X138636754Y-71690243D01*
X138697531Y-71877296D01*
X138702444Y-71892414D01*
X138798951Y-72081820D01*
X138923890Y-72253786D01*
X139074213Y-72404109D01*
X139246182Y-72529050D01*
X139254946Y-72533516D01*
X139305742Y-72581491D01*
X139322536Y-72649312D01*
X139299998Y-72715447D01*
X139254946Y-72754484D01*
X139246182Y-72758949D01*
X139074213Y-72883890D01*
X138923890Y-73034213D01*
X138798951Y-73206179D01*
X138702444Y-73395585D01*
X138636753Y-73597760D01*
X138610616Y-73762786D01*
X138603500Y-73807713D01*
X138603500Y-74020287D01*
X138606636Y-74040084D01*
X138633753Y-74211300D01*
X138636754Y-74230243D01*
X138669563Y-74331219D01*
X138702444Y-74432414D01*
X138798951Y-74621820D01*
X138923890Y-74793786D01*
X139074213Y-74944109D01*
X139246182Y-75069050D01*
X139254946Y-75073516D01*
X139305742Y-75121491D01*
X139322536Y-75189312D01*
X139299998Y-75255447D01*
X139254946Y-75294484D01*
X139246182Y-75298949D01*
X139074213Y-75423890D01*
X138923890Y-75574213D01*
X138798951Y-75746179D01*
X138702444Y-75935585D01*
X138636753Y-76137760D01*
X138610616Y-76302786D01*
X138603500Y-76347713D01*
X138603500Y-76560287D01*
X138609028Y-76595189D01*
X138635537Y-76762564D01*
X138636754Y-76770243D01*
X138686429Y-76923127D01*
X138702444Y-76972414D01*
X138798951Y-77161820D01*
X138923890Y-77333786D01*
X139074213Y-77484109D01*
X139246182Y-77609050D01*
X139254946Y-77613516D01*
X139305742Y-77661491D01*
X139322536Y-77729312D01*
X139299998Y-77795447D01*
X139254946Y-77834484D01*
X139246182Y-77838949D01*
X139074213Y-77963890D01*
X138923890Y-78114213D01*
X138798951Y-78286179D01*
X138702444Y-78475585D01*
X138636753Y-78677760D01*
X138610616Y-78842786D01*
X138603500Y-78887713D01*
X138603500Y-79100287D01*
X138606492Y-79119175D01*
X138635770Y-79304035D01*
X138636754Y-79310243D01*
X138687984Y-79467913D01*
X138702444Y-79512414D01*
X138798951Y-79701820D01*
X138923890Y-79873786D01*
X139074213Y-80024109D01*
X139246182Y-80149050D01*
X139254946Y-80153516D01*
X139305742Y-80201491D01*
X139322536Y-80269312D01*
X139299998Y-80335447D01*
X139254946Y-80374484D01*
X139246182Y-80378949D01*
X139074213Y-80503890D01*
X138923890Y-80654213D01*
X138798951Y-80826179D01*
X138702444Y-81015585D01*
X138702443Y-81015587D01*
X138702443Y-81015588D01*
X138699334Y-81025158D01*
X138636753Y-81217760D01*
X138610616Y-81382786D01*
X138603500Y-81427713D01*
X138603500Y-81640287D01*
X138636754Y-81850243D01*
X138696109Y-82032919D01*
X138702444Y-82052414D01*
X138798951Y-82241820D01*
X138923890Y-82413786D01*
X139074213Y-82564109D01*
X139246182Y-82689050D01*
X139254946Y-82693516D01*
X139305742Y-82741491D01*
X139322536Y-82809312D01*
X139299998Y-82875447D01*
X139254946Y-82914484D01*
X139246182Y-82918949D01*
X139074213Y-83043890D01*
X138923890Y-83194213D01*
X138798949Y-83366181D01*
X138792525Y-83378792D01*
X138744552Y-83429589D01*
X138682039Y-83446500D01*
X138393595Y-83446500D01*
X138272370Y-83470613D01*
X138272360Y-83470616D01*
X138158169Y-83517915D01*
X138061965Y-83582197D01*
X138055393Y-83586588D01*
X138055385Y-83586595D01*
X137524581Y-84117399D01*
X137463258Y-84150884D01*
X137393566Y-84145900D01*
X137337633Y-84104028D01*
X137313216Y-84038564D01*
X137312900Y-84029718D01*
X137312900Y-74774596D01*
X137304349Y-74731612D01*
X137304349Y-74731609D01*
X137288787Y-74653372D01*
X137288784Y-74653363D01*
X137241486Y-74539172D01*
X137241479Y-74539160D01*
X137172811Y-74436392D01*
X137172808Y-74436388D01*
X135733011Y-72996591D01*
X135733006Y-72996587D01*
X135693712Y-72970332D01*
X135693708Y-72970329D01*
X135689934Y-72967808D01*
X135630233Y-72927917D01*
X135595427Y-72913500D01*
X135588353Y-72910570D01*
X135588350Y-72910568D01*
X135516035Y-72880614D01*
X135516027Y-72880612D01*
X135394807Y-72856500D01*
X135394803Y-72856500D01*
X129884781Y-72856500D01*
X129817742Y-72836815D01*
X129784462Y-72805385D01*
X129782289Y-72802394D01*
X129782287Y-72802390D01*
X129661966Y-72636781D01*
X129517219Y-72492034D01*
X129517213Y-72492028D01*
X129351611Y-72371713D01*
X129258369Y-72324203D01*
X129207574Y-72276229D01*
X129190779Y-72208407D01*
X129213317Y-72142273D01*
X129258371Y-72103234D01*
X129351347Y-72055861D01*
X129516894Y-71935582D01*
X129516895Y-71935582D01*
X129661582Y-71790895D01*
X129661582Y-71790894D01*
X129781859Y-71625349D01*
X129874755Y-71443029D01*
X129937990Y-71248413D01*
X129946609Y-71194000D01*
X128703012Y-71194000D01*
X128735925Y-71136993D01*
X128770000Y-71009826D01*
X128770000Y-70878174D01*
X128735925Y-70751007D01*
X128703012Y-70694000D01*
X129946609Y-70694000D01*
X129937990Y-70639586D01*
X129874755Y-70444970D01*
X129781859Y-70262650D01*
X129661582Y-70097105D01*
X129661582Y-70097104D01*
X129516895Y-69952417D01*
X129351349Y-69832140D01*
X129169031Y-69739244D01*
X128974417Y-69676009D01*
X128772317Y-69644000D01*
X128520000Y-69644000D01*
X128520000Y-70510988D01*
X128462993Y-70478075D01*
X128335826Y-70444000D01*
X128204174Y-70444000D01*
X128077007Y-70478075D01*
X128020000Y-70510988D01*
X128020000Y-69644000D01*
X127767683Y-69644000D01*
X127565582Y-69676009D01*
X127370968Y-69739244D01*
X127188650Y-69832140D01*
X127023105Y-69952417D01*
X127023104Y-69952417D01*
X126878417Y-70097104D01*
X126878417Y-70097105D01*
X126758140Y-70262650D01*
X126665244Y-70444970D01*
X126602009Y-70639586D01*
X126593391Y-70694000D01*
X127836988Y-70694000D01*
X127804075Y-70751007D01*
X127770000Y-70878174D01*
X127770000Y-71009826D01*
X127804075Y-71136993D01*
X127836988Y-71194000D01*
X126593391Y-71194000D01*
X126602009Y-71248413D01*
X126665244Y-71443029D01*
X126758140Y-71625349D01*
X126878417Y-71790894D01*
X126878417Y-71790895D01*
X127023104Y-71935582D01*
X127188652Y-72055861D01*
X127281628Y-72103234D01*
X127332425Y-72151208D01*
X127349220Y-72219029D01*
X127326683Y-72285164D01*
X127281630Y-72324203D01*
X127188388Y-72371713D01*
X127022786Y-72492028D01*
X126878034Y-72636780D01*
X126851439Y-72673386D01*
X126757713Y-72802390D01*
X126757710Y-72802394D01*
X126755538Y-72805385D01*
X126700208Y-72848051D01*
X126655219Y-72856500D01*
X126225195Y-72856500D01*
X126103970Y-72880613D01*
X126103960Y-72880616D01*
X125989773Y-72927913D01*
X125989766Y-72927917D01*
X125959916Y-72947862D01*
X125930066Y-72967808D01*
X125930065Y-72967809D01*
X125886989Y-72996590D01*
X125886988Y-72996591D01*
X122543811Y-76339769D01*
X122482488Y-76373254D01*
X122412796Y-76368270D01*
X122356863Y-76326398D01*
X122332446Y-76260934D01*
X122333657Y-76232690D01*
X122337721Y-76207035D01*
X122350500Y-76126352D01*
X122350500Y-75921648D01*
X122344145Y-75881523D01*
X122318477Y-75719465D01*
X122294671Y-75646200D01*
X122255220Y-75524781D01*
X122222338Y-75460248D01*
X122209443Y-75391581D01*
X122235719Y-75326840D01*
X122245134Y-75316283D01*
X123499611Y-74061808D01*
X123568283Y-73959033D01*
X123615585Y-73844835D01*
X123639700Y-73723603D01*
X123639700Y-73599997D01*
X123639700Y-67672081D01*
X123659385Y-67605042D01*
X123676019Y-67584400D01*
X124302600Y-66957819D01*
X124363923Y-66924334D01*
X124390281Y-66921500D01*
X138682039Y-66921500D01*
X138696643Y-66925788D01*
G37*
%TD.AperFunction*%
%TA.AperFunction,Conductor*%
G36*
X82852764Y-81622385D02*
G01*
X82898519Y-81675189D01*
X82908463Y-81744347D01*
X82903657Y-81765012D01*
X82896965Y-81785610D01*
X82851522Y-81925465D01*
X82819500Y-82127648D01*
X82819500Y-82332351D01*
X82851522Y-82534534D01*
X82881890Y-82627996D01*
X82913534Y-82725384D01*
X82915529Y-82795222D01*
X82879449Y-82855055D01*
X82816749Y-82885884D01*
X82795603Y-82887700D01*
X67273595Y-82887700D01*
X67152370Y-82911813D01*
X67152360Y-82911816D01*
X67038169Y-82959115D01*
X66943740Y-83022211D01*
X66943738Y-83022212D01*
X66935393Y-83027787D01*
X66935388Y-83027791D01*
X65857000Y-84106181D01*
X65795677Y-84139666D01*
X65769319Y-84142500D01*
X65414781Y-84142500D01*
X65347742Y-84122815D01*
X65314462Y-84091385D01*
X65312289Y-84088394D01*
X65312287Y-84088390D01*
X65191966Y-83922781D01*
X65047219Y-83778034D01*
X65047213Y-83778028D01*
X64881614Y-83657715D01*
X64856573Y-83644956D01*
X64788917Y-83610483D01*
X64738123Y-83562511D01*
X64721328Y-83494690D01*
X64743865Y-83428555D01*
X64788917Y-83389516D01*
X64881610Y-83342287D01*
X64932217Y-83305519D01*
X65047213Y-83221971D01*
X65047215Y-83221968D01*
X65047219Y-83221966D01*
X65191966Y-83077219D01*
X65312287Y-82911610D01*
X65312289Y-82911605D01*
X65314462Y-82908615D01*
X65369792Y-82865949D01*
X65414781Y-82857500D01*
X66142404Y-82857500D01*
X66142405Y-82857499D01*
X66263635Y-82833386D01*
X66346400Y-82799103D01*
X66346401Y-82799103D01*
X66377826Y-82786086D01*
X66377826Y-82786085D01*
X66377833Y-82786083D01*
X66480608Y-82717411D01*
X66568011Y-82630008D01*
X67559000Y-81639019D01*
X67620323Y-81605534D01*
X67646681Y-81602700D01*
X82785725Y-81602700D01*
X82852764Y-81622385D01*
G37*
%TD.AperFunction*%
%TA.AperFunction,Conductor*%
G36*
X93302719Y-69100185D02*
G01*
X93348474Y-69152989D01*
X93358418Y-69222147D01*
X93329393Y-69285703D01*
X93309900Y-69301804D01*
X93310859Y-69303054D01*
X93179075Y-69404175D01*
X93082899Y-69529513D01*
X93022445Y-69675465D01*
X93022444Y-69675469D01*
X93007000Y-69792769D01*
X93007000Y-70269600D01*
X96132500Y-70269600D01*
X96141185Y-70272150D01*
X96150147Y-70270862D01*
X96174187Y-70281840D01*
X96199539Y-70289285D01*
X96205466Y-70296125D01*
X96213703Y-70299887D01*
X96227992Y-70322121D01*
X96245294Y-70342089D01*
X96247581Y-70352603D01*
X96251477Y-70358665D01*
X96256500Y-70393600D01*
X96256500Y-70545600D01*
X96236815Y-70612639D01*
X96184011Y-70658394D01*
X96132500Y-70669600D01*
X95857000Y-70669600D01*
X95857000Y-71699110D01*
X95857001Y-71699111D01*
X95913622Y-71691658D01*
X95913631Y-71691655D01*
X95934547Y-71682992D01*
X95971005Y-71674041D01*
X96194505Y-71654145D01*
X96225270Y-71660279D01*
X96256338Y-71664558D01*
X96259256Y-71667056D01*
X96263026Y-71667808D01*
X96285592Y-71689603D01*
X96309414Y-71709997D01*
X96310518Y-71713676D01*
X96313283Y-71716347D01*
X96320482Y-71746877D01*
X96329498Y-71776918D01*
X96329500Y-71777657D01*
X96329500Y-71923607D01*
X96353612Y-72044827D01*
X96353614Y-72044835D01*
X96385413Y-72121604D01*
X96400915Y-72159030D01*
X96400916Y-72159032D01*
X96400917Y-72159033D01*
X96441005Y-72219029D01*
X96441174Y-72219281D01*
X96441174Y-72219282D01*
X96469590Y-72261810D01*
X96469593Y-72261813D01*
X98191589Y-73983808D01*
X98247857Y-74040076D01*
X98278993Y-74071212D01*
X98381763Y-74139881D01*
X98381765Y-74139882D01*
X98381767Y-74139883D01*
X98404285Y-74149210D01*
X98404286Y-74149211D01*
X98404287Y-74149211D01*
X98495966Y-74187186D01*
X98617192Y-74211299D01*
X98617196Y-74211300D01*
X98617197Y-74211300D01*
X102246004Y-74211300D01*
X102246005Y-74211299D01*
X102367235Y-74187186D01*
X102458913Y-74149211D01*
X102481433Y-74139883D01*
X102584208Y-74071211D01*
X102671611Y-73983808D01*
X104826800Y-71828619D01*
X104888123Y-71795134D01*
X104914481Y-71792300D01*
X106903646Y-71792300D01*
X106970685Y-71811985D01*
X107016440Y-71864789D01*
X107021350Y-71877292D01*
X107040186Y-71934134D01*
X107132288Y-72083456D01*
X107256344Y-72207512D01*
X107405666Y-72299614D01*
X107572203Y-72354799D01*
X107674991Y-72365300D01*
X108300008Y-72365299D01*
X108300016Y-72365298D01*
X108300019Y-72365298D01*
X108356302Y-72359548D01*
X108402797Y-72354799D01*
X108569334Y-72299614D01*
X108718656Y-72207512D01*
X108812319Y-72113849D01*
X108873642Y-72080364D01*
X108943334Y-72085348D01*
X108987681Y-72113849D01*
X109081344Y-72207512D01*
X109230666Y-72299614D01*
X109397203Y-72354799D01*
X109499991Y-72365300D01*
X110125008Y-72365299D01*
X110125016Y-72365298D01*
X110125019Y-72365298D01*
X110181302Y-72359548D01*
X110227797Y-72354799D01*
X110394334Y-72299614D01*
X110543656Y-72207512D01*
X110667712Y-72083456D01*
X110759814Y-71934134D01*
X110778648Y-71877295D01*
X110818421Y-71819851D01*
X110882937Y-71793028D01*
X110896354Y-71792300D01*
X114516119Y-71792300D01*
X114583158Y-71811985D01*
X114603800Y-71828619D01*
X115185581Y-72410400D01*
X115219066Y-72471723D01*
X115221900Y-72498081D01*
X115221900Y-75931607D01*
X115246012Y-76052827D01*
X115246014Y-76052835D01*
X115279462Y-76133585D01*
X115293315Y-76167029D01*
X115293320Y-76167038D01*
X115357685Y-76263366D01*
X115357685Y-76263367D01*
X115361989Y-76269808D01*
X115361993Y-76269813D01*
X116897188Y-77805008D01*
X116897192Y-77805011D01*
X116999960Y-77873679D01*
X116999973Y-77873686D01*
X117114160Y-77920983D01*
X117114165Y-77920985D01*
X117114169Y-77920985D01*
X117114170Y-77920986D01*
X117235393Y-77945100D01*
X117235396Y-77945100D01*
X117235397Y-77945100D01*
X117473459Y-77945100D01*
X117540498Y-77964785D01*
X117586253Y-78017589D01*
X117596197Y-78086747D01*
X117567172Y-78150303D01*
X117561140Y-78156781D01*
X117488213Y-78229707D01*
X117488210Y-78229711D01*
X117400609Y-78360814D01*
X117400602Y-78360827D01*
X117340264Y-78506498D01*
X117340261Y-78506510D01*
X117309500Y-78661153D01*
X117309500Y-78818846D01*
X117340261Y-78973489D01*
X117340264Y-78973501D01*
X117400603Y-79119174D01*
X117400604Y-79119175D01*
X117400606Y-79119179D01*
X117457514Y-79204347D01*
X117461602Y-79210465D01*
X117482480Y-79277142D01*
X117482500Y-79279356D01*
X117482500Y-79952719D01*
X117462815Y-80019758D01*
X117446181Y-80040400D01*
X115016200Y-82470381D01*
X114954877Y-82503866D01*
X114928519Y-82506700D01*
X110912000Y-82506700D01*
X110844961Y-82487015D01*
X110799206Y-82434211D01*
X110788000Y-82382700D01*
X110787999Y-81414998D01*
X110787998Y-81414980D01*
X110777499Y-81312203D01*
X110777498Y-81312200D01*
X110722314Y-81145666D01*
X110630212Y-80996344D01*
X110506156Y-80872288D01*
X110506152Y-80872285D01*
X110505082Y-80871625D01*
X110504502Y-80870980D01*
X110500489Y-80867807D01*
X110501031Y-80867121D01*
X110486323Y-80850769D01*
X110465280Y-80832210D01*
X110461816Y-80823523D01*
X110458357Y-80819677D01*
X110450900Y-80799978D01*
X110449538Y-80795186D01*
X110439445Y-80744443D01*
X110425675Y-80711199D01*
X110423712Y-80704291D01*
X110423957Y-80676253D01*
X110420961Y-80648386D01*
X110424301Y-80637010D01*
X110424324Y-80634424D01*
X110425659Y-80632385D01*
X110428430Y-80622947D01*
X110439445Y-80596357D01*
X110441021Y-80588435D01*
X110443886Y-80574035D01*
X110457838Y-80503890D01*
X110460257Y-80491728D01*
X110492641Y-80429818D01*
X110504974Y-80418645D01*
X110506143Y-80417719D01*
X110506156Y-80417712D01*
X110630212Y-80293656D01*
X110722314Y-80144334D01*
X110777499Y-79977797D01*
X110788000Y-79875009D01*
X110787999Y-78874992D01*
X110787339Y-78868534D01*
X110777499Y-78772203D01*
X110777498Y-78772200D01*
X110763594Y-78730242D01*
X110722314Y-78605666D01*
X110630212Y-78456344D01*
X110506156Y-78332288D01*
X110356834Y-78240186D01*
X110190297Y-78185001D01*
X110190295Y-78185000D01*
X110087510Y-78174500D01*
X109462498Y-78174500D01*
X109462480Y-78174501D01*
X109359703Y-78185000D01*
X109359700Y-78185001D01*
X109193168Y-78240185D01*
X109193163Y-78240187D01*
X109043842Y-78332289D01*
X108950181Y-78425951D01*
X108888858Y-78459436D01*
X108819166Y-78454452D01*
X108774819Y-78425951D01*
X108681157Y-78332289D01*
X108681156Y-78332288D01*
X108531834Y-78240186D01*
X108365297Y-78185001D01*
X108365295Y-78185000D01*
X108262510Y-78174500D01*
X107637498Y-78174500D01*
X107637480Y-78174501D01*
X107534703Y-78185000D01*
X107534700Y-78185001D01*
X107368168Y-78240185D01*
X107368163Y-78240187D01*
X107218842Y-78332289D01*
X107094789Y-78456342D01*
X107002687Y-78605663D01*
X107002686Y-78605666D01*
X106984300Y-78661153D01*
X106983852Y-78662504D01*
X106944079Y-78719949D01*
X106879563Y-78746772D01*
X106866146Y-78747500D01*
X102304195Y-78747500D01*
X102182970Y-78771613D01*
X102182960Y-78771616D01*
X102068769Y-78818915D01*
X102005438Y-78861232D01*
X102005437Y-78861233D01*
X101965989Y-78887590D01*
X100576186Y-80277393D01*
X100514863Y-80310878D01*
X100478313Y-80313292D01*
X100465678Y-80312250D01*
X100463762Y-80311456D01*
X100346361Y-80296000D01*
X100268642Y-80296000D01*
X100263549Y-80295580D01*
X100235521Y-80284777D01*
X100206702Y-80276315D01*
X100203260Y-80272343D01*
X100198354Y-80270452D01*
X100180611Y-80246204D01*
X100160947Y-80223511D01*
X100159180Y-80219454D01*
X100158567Y-80217973D01*
X100123645Y-80133666D01*
X100123645Y-80133665D01*
X100113086Y-80108173D01*
X100113079Y-80108160D01*
X100044412Y-80005393D01*
X100016814Y-79977795D01*
X99957008Y-79917989D01*
X97719786Y-77680767D01*
X95446811Y-75407791D01*
X95446810Y-75407790D01*
X95420393Y-75390139D01*
X95420392Y-75390138D01*
X95415903Y-75387139D01*
X95344033Y-75339117D01*
X95282712Y-75313717D01*
X95276446Y-75311121D01*
X95276438Y-75311117D01*
X95229835Y-75291814D01*
X95229827Y-75291812D01*
X95108607Y-75267700D01*
X95108603Y-75267700D01*
X85844397Y-75267700D01*
X85777358Y-75248015D01*
X85731603Y-75195211D01*
X85721659Y-75126053D01*
X85726463Y-75105392D01*
X85788477Y-74914534D01*
X85820500Y-74712352D01*
X85820500Y-74507648D01*
X85788477Y-74305466D01*
X85725220Y-74110781D01*
X85725218Y-74110778D01*
X85725218Y-74110776D01*
X85689198Y-74040084D01*
X85632287Y-73928390D01*
X85600042Y-73884008D01*
X85511971Y-73762786D01*
X85367213Y-73618028D01*
X85201614Y-73497715D01*
X85195006Y-73494348D01*
X85108917Y-73450483D01*
X85058123Y-73402511D01*
X85041328Y-73334690D01*
X85063865Y-73268555D01*
X85108917Y-73229516D01*
X85201610Y-73182287D01*
X85222770Y-73166913D01*
X85367213Y-73061971D01*
X85367215Y-73061968D01*
X85367219Y-73061966D01*
X85511966Y-72917219D01*
X85632287Y-72751610D01*
X85632289Y-72751605D01*
X85634462Y-72748615D01*
X85689792Y-72705949D01*
X85734781Y-72697500D01*
X87173604Y-72697500D01*
X87173605Y-72697499D01*
X87294835Y-72673386D01*
X87375584Y-72639937D01*
X87409033Y-72626083D01*
X87511808Y-72557411D01*
X87599211Y-72470008D01*
X87657770Y-72411449D01*
X87657783Y-72411435D01*
X88922795Y-71146424D01*
X93007001Y-71146424D01*
X93022442Y-71263728D01*
X93022444Y-71263733D01*
X93082899Y-71409685D01*
X93179075Y-71535024D01*
X93304414Y-71631200D01*
X93450366Y-71691655D01*
X93450372Y-71691657D01*
X93506998Y-71699111D01*
X93507000Y-71699110D01*
X93907000Y-71699110D01*
X93907001Y-71699111D01*
X93963622Y-71691658D01*
X93963631Y-71691655D01*
X93984547Y-71682992D01*
X94054017Y-71675523D01*
X94079453Y-71682992D01*
X94100368Y-71691655D01*
X94100377Y-71691658D01*
X94156998Y-71699111D01*
X94157000Y-71699110D01*
X94557000Y-71699110D01*
X94557001Y-71699111D01*
X94613622Y-71691658D01*
X94613631Y-71691655D01*
X94634547Y-71682992D01*
X94704017Y-71675523D01*
X94729453Y-71682992D01*
X94750368Y-71691655D01*
X94750377Y-71691658D01*
X94806998Y-71699111D01*
X94807000Y-71699110D01*
X95207000Y-71699110D01*
X95207001Y-71699111D01*
X95263622Y-71691658D01*
X95263631Y-71691655D01*
X95284547Y-71682992D01*
X95354017Y-71675523D01*
X95379453Y-71682992D01*
X95400368Y-71691655D01*
X95400377Y-71691658D01*
X95456998Y-71699111D01*
X95457000Y-71699110D01*
X95457000Y-70669600D01*
X95207000Y-70669600D01*
X95207000Y-71699110D01*
X94807000Y-71699110D01*
X94807000Y-70669600D01*
X94557000Y-70669600D01*
X94557000Y-71699110D01*
X94157000Y-71699110D01*
X94157000Y-70669600D01*
X93907000Y-70669600D01*
X93907000Y-71699110D01*
X93507000Y-71699110D01*
X93507000Y-70669600D01*
X93007001Y-70669600D01*
X93007001Y-71146424D01*
X88922795Y-71146424D01*
X90952401Y-69116819D01*
X91013724Y-69083334D01*
X91040082Y-69080500D01*
X93235680Y-69080500D01*
X93302719Y-69100185D01*
G37*
%TD.AperFunction*%
%TA.AperFunction,Conductor*%
G36*
X93707175Y-80321500D02*
G01*
X93721350Y-80320656D01*
X93740033Y-80331148D01*
X93760591Y-80337185D01*
X93769888Y-80347915D01*
X93782271Y-80354869D01*
X93792316Y-80373797D01*
X93806346Y-80389989D01*
X93808366Y-80404043D01*
X93815023Y-80416586D01*
X93813240Y-80437937D01*
X93816290Y-80459147D01*
X93810278Y-80473420D01*
X93809210Y-80486213D01*
X93791928Y-80516987D01*
X93732899Y-80593913D01*
X93672445Y-80739865D01*
X93672444Y-80739869D01*
X93657000Y-80857169D01*
X93657000Y-81334000D01*
X96782500Y-81334000D01*
X96791185Y-81336550D01*
X96800146Y-81335262D01*
X96824184Y-81346240D01*
X96849539Y-81353685D01*
X96855466Y-81360526D01*
X96863702Y-81364287D01*
X96877990Y-81386520D01*
X96895294Y-81406489D01*
X96897581Y-81417002D01*
X96901477Y-81423064D01*
X96906500Y-81457999D01*
X96906500Y-81582815D01*
X96906501Y-81609999D01*
X96886817Y-81677039D01*
X96834013Y-81722794D01*
X96782501Y-81734000D01*
X93657001Y-81734000D01*
X93657001Y-82157819D01*
X93637316Y-82224858D01*
X93584512Y-82270613D01*
X93515354Y-82280557D01*
X93451798Y-82251532D01*
X93445320Y-82245500D01*
X91729001Y-80529181D01*
X91695516Y-80467858D01*
X91700500Y-80398166D01*
X91742372Y-80342233D01*
X91807836Y-80317816D01*
X91816682Y-80317500D01*
X93693552Y-80317500D01*
X93707175Y-80321500D01*
G37*
%TD.AperFunction*%
%TA.AperFunction,Conductor*%
G36*
X82852764Y-79082385D02*
G01*
X82898519Y-79135189D01*
X82908463Y-79204347D01*
X82903657Y-79225012D01*
X82887366Y-79275152D01*
X82851522Y-79385465D01*
X82819500Y-79587648D01*
X82819500Y-79792351D01*
X82851522Y-79994534D01*
X82879201Y-80079719D01*
X82913534Y-80185384D01*
X82915529Y-80255222D01*
X82879449Y-80315055D01*
X82816749Y-80345884D01*
X82795603Y-80347700D01*
X67273595Y-80347700D01*
X67152370Y-80371813D01*
X67152360Y-80371816D01*
X67038169Y-80419115D01*
X66943740Y-80482211D01*
X66943738Y-80482212D01*
X66935393Y-80487787D01*
X66935388Y-80487791D01*
X65857000Y-81566181D01*
X65795677Y-81599666D01*
X65769319Y-81602500D01*
X65414781Y-81602500D01*
X65347742Y-81582815D01*
X65314462Y-81551385D01*
X65312289Y-81548394D01*
X65312287Y-81548390D01*
X65191966Y-81382781D01*
X65047219Y-81238034D01*
X65047213Y-81238028D01*
X64881614Y-81117715D01*
X64856818Y-81105081D01*
X64788917Y-81070483D01*
X64738123Y-81022511D01*
X64721328Y-80954690D01*
X64743865Y-80888555D01*
X64788917Y-80849516D01*
X64881610Y-80802287D01*
X64944672Y-80756470D01*
X65047213Y-80681971D01*
X65047215Y-80681968D01*
X65047219Y-80681966D01*
X65191966Y-80537219D01*
X65312287Y-80371610D01*
X65312289Y-80371605D01*
X65314462Y-80368615D01*
X65369792Y-80325949D01*
X65414781Y-80317500D01*
X66142404Y-80317500D01*
X66142405Y-80317499D01*
X66263635Y-80293386D01*
X66344384Y-80259937D01*
X66377833Y-80246083D01*
X66480608Y-80177411D01*
X66568011Y-80090008D01*
X67559000Y-79099019D01*
X67620323Y-79065534D01*
X67646681Y-79062700D01*
X82785725Y-79062700D01*
X82852764Y-79082385D01*
G37*
%TD.AperFunction*%
%TA.AperFunction,Conductor*%
G36*
X82852764Y-76542385D02*
G01*
X82898519Y-76595189D01*
X82908463Y-76664347D01*
X82903657Y-76685012D01*
X82896965Y-76705610D01*
X82851522Y-76845465D01*
X82819500Y-77047648D01*
X82819500Y-77252351D01*
X82851522Y-77454534D01*
X82863238Y-77490590D01*
X82913534Y-77645384D01*
X82915529Y-77715222D01*
X82879449Y-77775055D01*
X82816749Y-77805884D01*
X82795603Y-77807700D01*
X67273595Y-77807700D01*
X67152370Y-77831813D01*
X67152360Y-77831816D01*
X67038169Y-77879115D01*
X66952287Y-77936500D01*
X66952286Y-77936501D01*
X66935389Y-77947790D01*
X66935388Y-77947791D01*
X65857000Y-79026181D01*
X65795677Y-79059666D01*
X65769319Y-79062500D01*
X65414781Y-79062500D01*
X65347742Y-79042815D01*
X65314462Y-79011385D01*
X65312289Y-79008394D01*
X65312287Y-79008390D01*
X65191966Y-78842781D01*
X65047219Y-78698034D01*
X65047213Y-78698028D01*
X64881614Y-78577715D01*
X64825695Y-78549223D01*
X64788917Y-78530483D01*
X64738123Y-78482511D01*
X64721328Y-78414690D01*
X64743865Y-78348555D01*
X64788917Y-78309516D01*
X64881610Y-78262287D01*
X64912031Y-78240185D01*
X65047213Y-78141971D01*
X65047215Y-78141968D01*
X65047219Y-78141966D01*
X65191966Y-77997219D01*
X65312287Y-77831610D01*
X65312289Y-77831605D01*
X65314462Y-77828615D01*
X65369792Y-77785949D01*
X65414781Y-77777500D01*
X66117004Y-77777500D01*
X66117005Y-77777499D01*
X66238235Y-77753386D01*
X66324609Y-77717608D01*
X66352433Y-77706083D01*
X66455208Y-77637411D01*
X66542611Y-77550008D01*
X67533600Y-76559019D01*
X67594923Y-76525534D01*
X67621281Y-76522700D01*
X82785725Y-76522700D01*
X82852764Y-76542385D01*
G37*
%TD.AperFunction*%
%TA.AperFunction,Conductor*%
G36*
X82852764Y-63842385D02*
G01*
X82898519Y-63895189D01*
X82908463Y-63964347D01*
X82903657Y-63985012D01*
X82898399Y-64001197D01*
X82851522Y-64145465D01*
X82819500Y-64347648D01*
X82819500Y-64552351D01*
X82851522Y-64754534D01*
X82914781Y-64949223D01*
X82955589Y-65029312D01*
X83000134Y-65116736D01*
X83007715Y-65131613D01*
X83128028Y-65297213D01*
X83272786Y-65441971D01*
X83414445Y-65544890D01*
X83438390Y-65562287D01*
X83500652Y-65594011D01*
X83531080Y-65609515D01*
X83581876Y-65657490D01*
X83598671Y-65725311D01*
X83576134Y-65791446D01*
X83531080Y-65830485D01*
X83438386Y-65877715D01*
X83272786Y-65998028D01*
X83128028Y-66142786D01*
X83007715Y-66308386D01*
X82914781Y-66490776D01*
X82851522Y-66685465D01*
X82819500Y-66887648D01*
X82819500Y-67092351D01*
X82851522Y-67294534D01*
X82914781Y-67489223D01*
X83007715Y-67671613D01*
X83128028Y-67837213D01*
X83272786Y-67981971D01*
X83427749Y-68094556D01*
X83438390Y-68102287D01*
X83529840Y-68148883D01*
X83531080Y-68149515D01*
X83581876Y-68197490D01*
X83598671Y-68265311D01*
X83576134Y-68331446D01*
X83531080Y-68370485D01*
X83438386Y-68417715D01*
X83272786Y-68538028D01*
X83128028Y-68682786D01*
X83007715Y-68848386D01*
X82914781Y-69030776D01*
X82851522Y-69225465D01*
X82819500Y-69427648D01*
X82819500Y-69632351D01*
X82851522Y-69834534D01*
X82914781Y-70029223D01*
X83007715Y-70211613D01*
X83128028Y-70377213D01*
X83272786Y-70521971D01*
X83427749Y-70634556D01*
X83438390Y-70642287D01*
X83529840Y-70688883D01*
X83531080Y-70689515D01*
X83581876Y-70737490D01*
X83598671Y-70805311D01*
X83576134Y-70871446D01*
X83531080Y-70910485D01*
X83438386Y-70957715D01*
X83272786Y-71078028D01*
X83128028Y-71222786D01*
X83007715Y-71388386D01*
X82914781Y-71570776D01*
X82851522Y-71765465D01*
X82819500Y-71967648D01*
X82819500Y-72172352D01*
X82821266Y-72183500D01*
X82851522Y-72374534D01*
X82914781Y-72569223D01*
X83007715Y-72751613D01*
X83128028Y-72917213D01*
X83272786Y-73061971D01*
X83427749Y-73174556D01*
X83438390Y-73182287D01*
X83529840Y-73228883D01*
X83531080Y-73229515D01*
X83581876Y-73277490D01*
X83598671Y-73345311D01*
X83576134Y-73411446D01*
X83531080Y-73450485D01*
X83438386Y-73497715D01*
X83272786Y-73618028D01*
X83128028Y-73762786D01*
X83007715Y-73928386D01*
X82914781Y-74110776D01*
X82851522Y-74305465D01*
X82819500Y-74507648D01*
X82819500Y-74712351D01*
X82851522Y-74914534D01*
X82881890Y-75007996D01*
X82913534Y-75105384D01*
X82915529Y-75175222D01*
X82879449Y-75235055D01*
X82816749Y-75265884D01*
X82795603Y-75267700D01*
X67248195Y-75267700D01*
X67126970Y-75291813D01*
X67126960Y-75291816D01*
X67012773Y-75339113D01*
X67012761Y-75339120D01*
X66940897Y-75387139D01*
X66940896Y-75387140D01*
X66909989Y-75407790D01*
X66909988Y-75407791D01*
X65831600Y-76486181D01*
X65770277Y-76519666D01*
X65743919Y-76522500D01*
X65414781Y-76522500D01*
X65347742Y-76502815D01*
X65314462Y-76471385D01*
X65312289Y-76468394D01*
X65312287Y-76468390D01*
X65191966Y-76302781D01*
X65047219Y-76158034D01*
X65047213Y-76158028D01*
X64881614Y-76037715D01*
X64875006Y-76034348D01*
X64788917Y-75990483D01*
X64738123Y-75942511D01*
X64721328Y-75874690D01*
X64743865Y-75808555D01*
X64788917Y-75769516D01*
X64881610Y-75722287D01*
X64986336Y-75646200D01*
X65047213Y-75601971D01*
X65047215Y-75601968D01*
X65047219Y-75601966D01*
X65191966Y-75457219D01*
X65191968Y-75457215D01*
X65191971Y-75457213D01*
X65250382Y-75376815D01*
X65312287Y-75291610D01*
X65405220Y-75109219D01*
X65468477Y-74914534D01*
X65500500Y-74712352D01*
X65500500Y-74507648D01*
X65468477Y-74305466D01*
X65405220Y-74110781D01*
X65405218Y-74110778D01*
X65405218Y-74110776D01*
X65369198Y-74040084D01*
X65312287Y-73928390D01*
X65280042Y-73884008D01*
X65191971Y-73762786D01*
X65047213Y-73618028D01*
X64881614Y-73497715D01*
X64875006Y-73494348D01*
X64788917Y-73450483D01*
X64738123Y-73402511D01*
X64721328Y-73334690D01*
X64743865Y-73268555D01*
X64788917Y-73229516D01*
X64881610Y-73182287D01*
X64902770Y-73166913D01*
X65047213Y-73061971D01*
X65047215Y-73061968D01*
X65047219Y-73061966D01*
X65191966Y-72917219D01*
X65191968Y-72917215D01*
X65191971Y-72917213D01*
X65250382Y-72836815D01*
X65312287Y-72751610D01*
X65405220Y-72569219D01*
X65468477Y-72374534D01*
X65500500Y-72172352D01*
X65500500Y-71967648D01*
X65495191Y-71934131D01*
X65468477Y-71765465D01*
X65405218Y-71570776D01*
X65359110Y-71480286D01*
X65312287Y-71388390D01*
X65280108Y-71344099D01*
X65191971Y-71222786D01*
X65047213Y-71078028D01*
X64881614Y-70957715D01*
X64875006Y-70954348D01*
X64788917Y-70910483D01*
X64738123Y-70862511D01*
X64721328Y-70794690D01*
X64743865Y-70728555D01*
X64788917Y-70689516D01*
X64881610Y-70642287D01*
X64961393Y-70584322D01*
X65047213Y-70521971D01*
X65047215Y-70521968D01*
X65047219Y-70521966D01*
X65191966Y-70377219D01*
X65312287Y-70211610D01*
X65312289Y-70211605D01*
X65314462Y-70208615D01*
X65369792Y-70165949D01*
X65414781Y-70157500D01*
X66294804Y-70157500D01*
X66294805Y-70157499D01*
X66416035Y-70133386D01*
X66496784Y-70099937D01*
X66530233Y-70086083D01*
X66633008Y-70017411D01*
X66720411Y-69930008D01*
X72791400Y-63859019D01*
X72852723Y-63825534D01*
X72879081Y-63822700D01*
X82785725Y-63822700D01*
X82852764Y-63842385D01*
G37*
%TD.AperFunction*%
%TA.AperFunction,Conductor*%
G36*
X92926334Y-64070398D02*
G01*
X92982267Y-64112270D01*
X93006684Y-64177734D01*
X93007000Y-64186580D01*
X93007000Y-64544600D01*
X96782500Y-64544600D01*
X96791185Y-64547150D01*
X96800146Y-64545862D01*
X96824184Y-64556840D01*
X96849539Y-64564285D01*
X96855466Y-64571126D01*
X96863702Y-64574887D01*
X96877990Y-64597120D01*
X96895294Y-64617089D01*
X96897581Y-64627602D01*
X96901477Y-64633664D01*
X96906500Y-64668599D01*
X96906501Y-64820599D01*
X96886817Y-64887639D01*
X96834013Y-64933394D01*
X96782501Y-64944600D01*
X93007001Y-64944600D01*
X93007001Y-65421424D01*
X93020809Y-65526316D01*
X93018173Y-65543215D01*
X93020608Y-65560147D01*
X93012901Y-65577022D01*
X93010043Y-65595351D01*
X92998688Y-65608143D01*
X92991583Y-65623703D01*
X92975976Y-65633732D01*
X92963662Y-65647607D01*
X92946895Y-65652421D01*
X92932805Y-65661477D01*
X92897870Y-65666500D01*
X92842957Y-65666500D01*
X92775918Y-65646815D01*
X92774066Y-65645602D01*
X92682785Y-65584609D01*
X92682772Y-65584602D01*
X92537101Y-65524264D01*
X92537089Y-65524261D01*
X92382445Y-65493500D01*
X92382442Y-65493500D01*
X92224758Y-65493500D01*
X92224755Y-65493500D01*
X92070110Y-65524261D01*
X92070098Y-65524264D01*
X91924427Y-65584602D01*
X91924414Y-65584609D01*
X91793311Y-65672210D01*
X91793307Y-65672213D01*
X91681813Y-65783707D01*
X91681810Y-65783711D01*
X91594209Y-65914814D01*
X91594202Y-65914827D01*
X91533864Y-66060498D01*
X91533861Y-66060510D01*
X91503100Y-66215153D01*
X91503100Y-66372846D01*
X91533861Y-66527489D01*
X91533864Y-66527501D01*
X91594202Y-66673172D01*
X91594209Y-66673185D01*
X91681810Y-66804288D01*
X91681813Y-66804292D01*
X91793307Y-66915786D01*
X91793311Y-66915789D01*
X91924414Y-67003390D01*
X91924427Y-67003397D01*
X92070098Y-67063735D01*
X92070103Y-67063737D01*
X92224753Y-67094499D01*
X92224756Y-67094500D01*
X92224758Y-67094500D01*
X92382444Y-67094500D01*
X92382445Y-67094499D01*
X92537097Y-67063737D01*
X92682779Y-67003394D01*
X92733111Y-66969763D01*
X92774066Y-66942398D01*
X92840743Y-66921520D01*
X92842957Y-66921500D01*
X99504762Y-66921500D01*
X99504763Y-66921499D01*
X99625993Y-66897386D01*
X99706742Y-66863937D01*
X99740191Y-66850083D01*
X99842966Y-66781411D01*
X99930369Y-66694008D01*
X100333819Y-66290556D01*
X100395142Y-66257072D01*
X100464833Y-66262056D01*
X100520767Y-66303927D01*
X100545184Y-66369392D01*
X100545500Y-66378238D01*
X100545500Y-66474446D01*
X100576261Y-66629089D01*
X100576264Y-66629101D01*
X100636602Y-66774772D01*
X100636609Y-66774785D01*
X100724210Y-66905888D01*
X100724213Y-66905892D01*
X100835707Y-67017386D01*
X100835711Y-67017389D01*
X100966814Y-67104990D01*
X100972191Y-67107864D01*
X100971415Y-67109315D01*
X101019644Y-67148182D01*
X101041707Y-67214477D01*
X101024427Y-67282176D01*
X100973288Y-67329785D01*
X100917786Y-67342900D01*
X100903192Y-67342900D01*
X100781973Y-67367011D01*
X100781973Y-67367012D01*
X100781970Y-67367013D01*
X100781966Y-67367014D01*
X100715070Y-67394723D01*
X100715068Y-67394723D01*
X100667769Y-67414315D01*
X100652825Y-67424301D01*
X100637111Y-67434801D01*
X100619969Y-67446255D01*
X100564989Y-67482990D01*
X100564988Y-67482991D01*
X99668381Y-68379599D01*
X99607058Y-68413084D01*
X99537366Y-68408100D01*
X99493019Y-68379599D01*
X99079010Y-67965590D01*
X99056386Y-67950473D01*
X99006114Y-67916883D01*
X98976233Y-67896917D01*
X98942784Y-67883062D01*
X98937173Y-67880738D01*
X98937166Y-67880734D01*
X98862035Y-67849614D01*
X98862027Y-67849612D01*
X98740807Y-67825500D01*
X98740803Y-67825500D01*
X90790603Y-67825500D01*
X90666996Y-67825500D01*
X90666994Y-67825500D01*
X90545770Y-67849613D01*
X90545760Y-67849616D01*
X90431574Y-67896913D01*
X90431556Y-67896923D01*
X90328792Y-67965587D01*
X90328785Y-67965593D01*
X86888200Y-71406181D01*
X86826877Y-71439666D01*
X86800519Y-71442500D01*
X85734781Y-71442500D01*
X85667742Y-71422815D01*
X85634462Y-71391385D01*
X85632289Y-71388394D01*
X85632287Y-71388390D01*
X85511966Y-71222781D01*
X85367219Y-71078034D01*
X85367213Y-71078028D01*
X85201614Y-70957715D01*
X85195006Y-70954348D01*
X85108917Y-70910483D01*
X85058123Y-70862511D01*
X85041328Y-70794690D01*
X85063865Y-70728555D01*
X85108917Y-70689516D01*
X85201610Y-70642287D01*
X85281393Y-70584322D01*
X85367213Y-70521971D01*
X85367215Y-70521968D01*
X85367219Y-70521966D01*
X85511966Y-70377219D01*
X85632287Y-70211610D01*
X85632289Y-70211605D01*
X85634462Y-70208615D01*
X85689792Y-70165949D01*
X85734781Y-70157500D01*
X86538604Y-70157500D01*
X86538605Y-70157499D01*
X86659835Y-70133386D01*
X86740584Y-70099937D01*
X86774033Y-70086083D01*
X86876808Y-70017411D01*
X86964211Y-69930008D01*
X92795321Y-64098897D01*
X92856642Y-64065414D01*
X92926334Y-64070398D01*
G37*
%TD.AperFunction*%
%TA.AperFunction,Conductor*%
G36*
X82853289Y-61302385D02*
G01*
X82899044Y-61355189D01*
X82908988Y-61424347D01*
X82904181Y-61445019D01*
X82852009Y-61605582D01*
X82820000Y-61807682D01*
X82820000Y-62012317D01*
X82852009Y-62214417D01*
X82914059Y-62405381D01*
X82916054Y-62475222D01*
X82879974Y-62535055D01*
X82817274Y-62565884D01*
X82796128Y-62567700D01*
X72505995Y-62567700D01*
X72384770Y-62591813D01*
X72384760Y-62591816D01*
X72270573Y-62639113D01*
X72270558Y-62639121D01*
X72228786Y-62667034D01*
X72228784Y-62667036D01*
X72167789Y-62707790D01*
X72167788Y-62707791D01*
X66009400Y-68866181D01*
X65948077Y-68899666D01*
X65921719Y-68902500D01*
X65414781Y-68902500D01*
X65347742Y-68882815D01*
X65314462Y-68851385D01*
X65312289Y-68848394D01*
X65312287Y-68848390D01*
X65191966Y-68682781D01*
X65047219Y-68538034D01*
X65047213Y-68538028D01*
X64881614Y-68417715D01*
X64862743Y-68408100D01*
X64788917Y-68370483D01*
X64738123Y-68322511D01*
X64721328Y-68254690D01*
X64743865Y-68188555D01*
X64788917Y-68149516D01*
X64881610Y-68102287D01*
X64927818Y-68068715D01*
X65047213Y-67981971D01*
X65047215Y-67981968D01*
X65047219Y-67981966D01*
X65191966Y-67837219D01*
X65312287Y-67671610D01*
X65312289Y-67671605D01*
X65314462Y-67668615D01*
X65369792Y-67625949D01*
X65414781Y-67617500D01*
X66294804Y-67617500D01*
X66294805Y-67617499D01*
X66416035Y-67593386D01*
X66496784Y-67559937D01*
X66530233Y-67546083D01*
X66633008Y-67477411D01*
X66720411Y-67390008D01*
X72791400Y-61319019D01*
X72852723Y-61285534D01*
X72879081Y-61282700D01*
X82786250Y-61282700D01*
X82853289Y-61302385D01*
G37*
%TD.AperFunction*%
%TA.AperFunction,Conductor*%
G36*
X106239954Y-61505585D02*
G01*
X106285709Y-61558389D01*
X106295653Y-61627547D01*
X106266628Y-61691103D01*
X106260596Y-61697581D01*
X102289897Y-65668281D01*
X102262969Y-65682984D01*
X102237151Y-65699577D01*
X102230950Y-65700468D01*
X102228574Y-65701766D01*
X102202216Y-65704600D01*
X102161000Y-65704600D01*
X102093961Y-65684915D01*
X102048206Y-65632111D01*
X102037000Y-65580600D01*
X102037000Y-65165539D01*
X102020631Y-65083251D01*
X102010445Y-65032043D01*
X101999475Y-65005557D01*
X101958356Y-64906288D01*
X101958354Y-64906285D01*
X101958352Y-64906281D01*
X101882735Y-64793113D01*
X101882732Y-64793109D01*
X101593818Y-64504195D01*
X101560333Y-64442872D01*
X101557499Y-64416514D01*
X101557499Y-64067736D01*
X101542046Y-63950346D01*
X101542044Y-63950341D01*
X101542044Y-63950338D01*
X101481536Y-63804259D01*
X101385282Y-63678818D01*
X101259841Y-63582564D01*
X101113762Y-63522056D01*
X101113760Y-63522055D01*
X100996370Y-63506601D01*
X100996367Y-63506600D01*
X100996361Y-63506600D01*
X100996354Y-63506600D01*
X100958500Y-63506600D01*
X100891461Y-63486915D01*
X100845706Y-63434111D01*
X100834500Y-63382600D01*
X100834500Y-62334081D01*
X100854185Y-62267042D01*
X100870819Y-62246400D01*
X101595000Y-61522219D01*
X101656323Y-61488734D01*
X101682681Y-61485900D01*
X106172915Y-61485900D01*
X106239954Y-61505585D01*
G37*
%TD.AperFunction*%
%TA.AperFunction,Conductor*%
G36*
X138696643Y-64385788D02*
G01*
X138711849Y-64385137D01*
X138729485Y-64395431D01*
X138749078Y-64401185D01*
X138759974Y-64413229D01*
X138772190Y-64420360D01*
X138792525Y-64449208D01*
X138798949Y-64461818D01*
X138923890Y-64633786D01*
X139074213Y-64784109D01*
X139246182Y-64909050D01*
X139254946Y-64913516D01*
X139305742Y-64961491D01*
X139322536Y-65029312D01*
X139299998Y-65095447D01*
X139254946Y-65134484D01*
X139246182Y-65138949D01*
X139074213Y-65263890D01*
X138923890Y-65414213D01*
X138798949Y-65586181D01*
X138792525Y-65598792D01*
X138744552Y-65649589D01*
X138682039Y-65666500D01*
X124648681Y-65666500D01*
X124581642Y-65646815D01*
X124535887Y-65594011D01*
X124525943Y-65524853D01*
X124554968Y-65461297D01*
X124561000Y-65454819D01*
X125598000Y-64417819D01*
X125659323Y-64384334D01*
X125685681Y-64381500D01*
X138682039Y-64381500D01*
X138696643Y-64385788D01*
G37*
%TD.AperFunction*%
%TA.AperFunction,Conductor*%
G36*
X138488186Y-61844050D02*
G01*
X138497148Y-61842762D01*
X138521188Y-61853740D01*
X138546540Y-61861185D01*
X138552467Y-61868025D01*
X138560704Y-61871787D01*
X138574993Y-61894021D01*
X138592295Y-61913989D01*
X138594582Y-61924503D01*
X138598478Y-61930565D01*
X138603501Y-61965500D01*
X138603501Y-62111876D01*
X138609908Y-62171483D01*
X138660202Y-62306328D01*
X138660206Y-62306335D01*
X138746452Y-62421544D01*
X138746455Y-62421547D01*
X138861664Y-62507793D01*
X138861671Y-62507797D01*
X138993082Y-62556810D01*
X139049016Y-62598681D01*
X139073433Y-62664145D01*
X139058582Y-62732418D01*
X139037431Y-62760673D01*
X138923889Y-62874215D01*
X138798949Y-63046181D01*
X138792525Y-63058792D01*
X138744552Y-63109589D01*
X138682039Y-63126500D01*
X125918681Y-63126500D01*
X125851642Y-63106815D01*
X125805887Y-63054011D01*
X125795943Y-62984853D01*
X125824968Y-62921297D01*
X125831000Y-62914819D01*
X126868000Y-61877819D01*
X126929323Y-61844334D01*
X126955681Y-61841500D01*
X138479501Y-61841500D01*
X138488186Y-61844050D01*
G37*
%TD.AperFunction*%
%TA.AperFunction,Conductor*%
G36*
X143460539Y-55520185D02*
G01*
X143506294Y-55572989D01*
X143517500Y-55624500D01*
X143517500Y-111375500D01*
X143497815Y-111442539D01*
X143445011Y-111488294D01*
X143393500Y-111499500D01*
X60618683Y-111499500D01*
X60551644Y-111479815D01*
X60505889Y-111427011D01*
X60494683Y-111375474D01*
X60495233Y-108740360D01*
X60495487Y-107522790D01*
X60500116Y-85344000D01*
X60505713Y-58522135D01*
X62499500Y-58522135D01*
X62499500Y-60217870D01*
X62499501Y-60217876D01*
X62505908Y-60277483D01*
X62556202Y-60412328D01*
X62556206Y-60412335D01*
X62642452Y-60527544D01*
X62642455Y-60527547D01*
X62757664Y-60613793D01*
X62757671Y-60613797D01*
X62802618Y-60630561D01*
X62892517Y-60664091D01*
X62929441Y-60668060D01*
X62993989Y-60694796D01*
X63033838Y-60752188D01*
X63036333Y-60822013D01*
X63000681Y-60882102D01*
X62989071Y-60891666D01*
X62952784Y-60918030D01*
X62808028Y-61062786D01*
X62687715Y-61228386D01*
X62594781Y-61410776D01*
X62531522Y-61605465D01*
X62499500Y-61807648D01*
X62499500Y-62012351D01*
X62531522Y-62214534D01*
X62594781Y-62409223D01*
X62645008Y-62507797D01*
X62682273Y-62580934D01*
X62687715Y-62591613D01*
X62808028Y-62757213D01*
X62952786Y-62901971D01*
X63066866Y-62984853D01*
X63118390Y-63022287D01*
X63180652Y-63054011D01*
X63211080Y-63069515D01*
X63261876Y-63117490D01*
X63278671Y-63185311D01*
X63256134Y-63251446D01*
X63211080Y-63290485D01*
X63118386Y-63337715D01*
X62952786Y-63458028D01*
X62808028Y-63602786D01*
X62687715Y-63768386D01*
X62594781Y-63950776D01*
X62531522Y-64145465D01*
X62499500Y-64347648D01*
X62499500Y-64552351D01*
X62531522Y-64754534D01*
X62594781Y-64949223D01*
X62635589Y-65029312D01*
X62680134Y-65116736D01*
X62687715Y-65131613D01*
X62808028Y-65297213D01*
X62952786Y-65441971D01*
X63094445Y-65544890D01*
X63118390Y-65562287D01*
X63180652Y-65594011D01*
X63211080Y-65609515D01*
X63261876Y-65657490D01*
X63278671Y-65725311D01*
X63256134Y-65791446D01*
X63211080Y-65830485D01*
X63118386Y-65877715D01*
X62952786Y-65998028D01*
X62808028Y-66142786D01*
X62687715Y-66308386D01*
X62594781Y-66490776D01*
X62531522Y-66685465D01*
X62499500Y-66887648D01*
X62499500Y-67092351D01*
X62531522Y-67294534D01*
X62594781Y-67489223D01*
X62687715Y-67671613D01*
X62808028Y-67837213D01*
X62952786Y-67981971D01*
X63107749Y-68094556D01*
X63118390Y-68102287D01*
X63209840Y-68148883D01*
X63211080Y-68149515D01*
X63261876Y-68197490D01*
X63278671Y-68265311D01*
X63256134Y-68331446D01*
X63211080Y-68370485D01*
X63118386Y-68417715D01*
X62952786Y-68538028D01*
X62808028Y-68682786D01*
X62687715Y-68848386D01*
X62594781Y-69030776D01*
X62531522Y-69225465D01*
X62499500Y-69427648D01*
X62499500Y-69632351D01*
X62531522Y-69834534D01*
X62594781Y-70029223D01*
X62687715Y-70211613D01*
X62808028Y-70377213D01*
X62952786Y-70521971D01*
X63107749Y-70634556D01*
X63118390Y-70642287D01*
X63209840Y-70688883D01*
X63211080Y-70689515D01*
X63261876Y-70737490D01*
X63278671Y-70805311D01*
X63256134Y-70871446D01*
X63211080Y-70910485D01*
X63118386Y-70957715D01*
X62952786Y-71078028D01*
X62808028Y-71222786D01*
X62687715Y-71388386D01*
X62594781Y-71570776D01*
X62531522Y-71765465D01*
X62499500Y-71967648D01*
X62499500Y-72172352D01*
X62501266Y-72183500D01*
X62531522Y-72374534D01*
X62594781Y-72569223D01*
X62687715Y-72751613D01*
X62808028Y-72917213D01*
X62952786Y-73061971D01*
X63107749Y-73174556D01*
X63118390Y-73182287D01*
X63209840Y-73228883D01*
X63211080Y-73229515D01*
X63261876Y-73277490D01*
X63278671Y-73345311D01*
X63256134Y-73411446D01*
X63211080Y-73450485D01*
X63118386Y-73497715D01*
X62952786Y-73618028D01*
X62808028Y-73762786D01*
X62687715Y-73928386D01*
X62594781Y-74110776D01*
X62531522Y-74305465D01*
X62499500Y-74507648D01*
X62499500Y-74712351D01*
X62531522Y-74914534D01*
X62594781Y-75109223D01*
X62635589Y-75189312D01*
X62675530Y-75267700D01*
X62687715Y-75291613D01*
X62808028Y-75457213D01*
X62952786Y-75601971D01*
X63107749Y-75714556D01*
X63118390Y-75722287D01*
X63209840Y-75768883D01*
X63211080Y-75769515D01*
X63261876Y-75817490D01*
X63278671Y-75885311D01*
X63256134Y-75951446D01*
X63211080Y-75990485D01*
X63118386Y-76037715D01*
X62952786Y-76158028D01*
X62808028Y-76302786D01*
X62687715Y-76468386D01*
X62594781Y-76650776D01*
X62531522Y-76845465D01*
X62499500Y-77047648D01*
X62499500Y-77252351D01*
X62531522Y-77454534D01*
X62594781Y-77649223D01*
X62635589Y-77729312D01*
X62675530Y-77807700D01*
X62687715Y-77831613D01*
X62808028Y-77997213D01*
X62952786Y-78141971D01*
X63107749Y-78254556D01*
X63118390Y-78262287D01*
X63198225Y-78302965D01*
X63211080Y-78309515D01*
X63261876Y-78357490D01*
X63278671Y-78425311D01*
X63256134Y-78491446D01*
X63211080Y-78530485D01*
X63118386Y-78577715D01*
X62952786Y-78698028D01*
X62808028Y-78842786D01*
X62687715Y-79008386D01*
X62594781Y-79190776D01*
X62531522Y-79385465D01*
X62499500Y-79587648D01*
X62499500Y-79792351D01*
X62531522Y-79994534D01*
X62594781Y-80189223D01*
X62639707Y-80277393D01*
X62675530Y-80347700D01*
X62687715Y-80371613D01*
X62808028Y-80537213D01*
X62952786Y-80681971D01*
X63102859Y-80791003D01*
X63118390Y-80802287D01*
X63198814Y-80843265D01*
X63211080Y-80849515D01*
X63261876Y-80897490D01*
X63278671Y-80965311D01*
X63256134Y-81031446D01*
X63211080Y-81070485D01*
X63118386Y-81117715D01*
X62952786Y-81238028D01*
X62808028Y-81382786D01*
X62687715Y-81548386D01*
X62594781Y-81730776D01*
X62531522Y-81925465D01*
X62499500Y-82127648D01*
X62499500Y-82332351D01*
X62531522Y-82534534D01*
X62594781Y-82729223D01*
X62636601Y-82811297D01*
X62683266Y-82902883D01*
X62687715Y-82911613D01*
X62808028Y-83077213D01*
X62952786Y-83221971D01*
X63107749Y-83334556D01*
X63118390Y-83342287D01*
X63190035Y-83378792D01*
X63211080Y-83389515D01*
X63261876Y-83437490D01*
X63278671Y-83505311D01*
X63256134Y-83571446D01*
X63211080Y-83610485D01*
X63118386Y-83657715D01*
X62952786Y-83778028D01*
X62808028Y-83922786D01*
X62687715Y-84088386D01*
X62594781Y-84270776D01*
X62531522Y-84465465D01*
X62499500Y-84667648D01*
X62499500Y-84872351D01*
X62531522Y-85074534D01*
X62594781Y-85269223D01*
X62687715Y-85451613D01*
X62808028Y-85617213D01*
X62952786Y-85761971D01*
X63064204Y-85842919D01*
X63118390Y-85882287D01*
X63190035Y-85918792D01*
X63211080Y-85929515D01*
X63261876Y-85977490D01*
X63278671Y-86045311D01*
X63256134Y-86111446D01*
X63211080Y-86150485D01*
X63118386Y-86197715D01*
X62952786Y-86318028D01*
X62808028Y-86462786D01*
X62687715Y-86628386D01*
X62594781Y-86810776D01*
X62531522Y-87005465D01*
X62499500Y-87207648D01*
X62499500Y-87412351D01*
X62531522Y-87614534D01*
X62594781Y-87809223D01*
X62653009Y-87923500D01*
X62674875Y-87966415D01*
X62687715Y-87991613D01*
X62808028Y-88157213D01*
X62952786Y-88301971D01*
X63107749Y-88414556D01*
X63118390Y-88422287D01*
X63207897Y-88467893D01*
X63211080Y-88469515D01*
X63261876Y-88517490D01*
X63278671Y-88585311D01*
X63256134Y-88651446D01*
X63211080Y-88690485D01*
X63118386Y-88737715D01*
X62952786Y-88858028D01*
X62808028Y-89002786D01*
X62687715Y-89168386D01*
X62594781Y-89350776D01*
X62531522Y-89545465D01*
X62499500Y-89747648D01*
X62499500Y-89952351D01*
X62531522Y-90154534D01*
X62594781Y-90349223D01*
X62638595Y-90435211D01*
X62682757Y-90521884D01*
X62687715Y-90531613D01*
X62808028Y-90697213D01*
X62952786Y-90841971D01*
X63072242Y-90928759D01*
X63118390Y-90962287D01*
X63209840Y-91008883D01*
X63211080Y-91009515D01*
X63261876Y-91057490D01*
X63278671Y-91125311D01*
X63256134Y-91191446D01*
X63211080Y-91230485D01*
X63118386Y-91277715D01*
X62952786Y-91398028D01*
X62808028Y-91542786D01*
X62687715Y-91708386D01*
X62594781Y-91890776D01*
X62531522Y-92085465D01*
X62499500Y-92287648D01*
X62499500Y-92492351D01*
X62531522Y-92694534D01*
X62594781Y-92889223D01*
X62647855Y-92993385D01*
X62686054Y-93068355D01*
X62687715Y-93071613D01*
X62808028Y-93237213D01*
X62952786Y-93381971D01*
X63052751Y-93454598D01*
X63118390Y-93502287D01*
X63180652Y-93534011D01*
X63211080Y-93549515D01*
X63261876Y-93597490D01*
X63278671Y-93665311D01*
X63256134Y-93731446D01*
X63211080Y-93770485D01*
X63118386Y-93817715D01*
X62952786Y-93938028D01*
X62808028Y-94082786D01*
X62687715Y-94248386D01*
X62594781Y-94430776D01*
X62531522Y-94625465D01*
X62499500Y-94827648D01*
X62499500Y-95032351D01*
X62531522Y-95234534D01*
X62594781Y-95429223D01*
X62642280Y-95522443D01*
X62682482Y-95601344D01*
X62687715Y-95611613D01*
X62808028Y-95777213D01*
X62952786Y-95921971D01*
X63107749Y-96034556D01*
X63118390Y-96042287D01*
X63199059Y-96083390D01*
X63211080Y-96089515D01*
X63261876Y-96137490D01*
X63278671Y-96205311D01*
X63256134Y-96271446D01*
X63211080Y-96310485D01*
X63118386Y-96357715D01*
X62952786Y-96478028D01*
X62808028Y-96622786D01*
X62687715Y-96788386D01*
X62594781Y-96970776D01*
X62531522Y-97165465D01*
X62499500Y-97367648D01*
X62499500Y-97572351D01*
X62531522Y-97774534D01*
X62594781Y-97969223D01*
X62687715Y-98151613D01*
X62808028Y-98317213D01*
X62952786Y-98461971D01*
X63107749Y-98574556D01*
X63118390Y-98582287D01*
X63201446Y-98624606D01*
X63211080Y-98629515D01*
X63261876Y-98677490D01*
X63278671Y-98745311D01*
X63256134Y-98811446D01*
X63211080Y-98850485D01*
X63118386Y-98897715D01*
X62952786Y-99018028D01*
X62808028Y-99162786D01*
X62687715Y-99328386D01*
X62594781Y-99510776D01*
X62531522Y-99705465D01*
X62499500Y-99907648D01*
X62499500Y-100112351D01*
X62531522Y-100314534D01*
X62594781Y-100509223D01*
X62635589Y-100589312D01*
X62678536Y-100673600D01*
X62687715Y-100691613D01*
X62808028Y-100857213D01*
X62952786Y-101001971D01*
X63107749Y-101114556D01*
X63118390Y-101122287D01*
X63174417Y-101150834D01*
X63211080Y-101169515D01*
X63261876Y-101217490D01*
X63278671Y-101285311D01*
X63256134Y-101351446D01*
X63211080Y-101390485D01*
X63118386Y-101437715D01*
X62952786Y-101558028D01*
X62808028Y-101702786D01*
X62687715Y-101868386D01*
X62594781Y-102050776D01*
X62531522Y-102245465D01*
X62499500Y-102447648D01*
X62499500Y-102652351D01*
X62531522Y-102854534D01*
X62594781Y-103049223D01*
X62687715Y-103231613D01*
X62808028Y-103397213D01*
X62952786Y-103541971D01*
X63077091Y-103632282D01*
X63118390Y-103662287D01*
X63165811Y-103686449D01*
X63211080Y-103709515D01*
X63261876Y-103757490D01*
X63278671Y-103825311D01*
X63256134Y-103891446D01*
X63211080Y-103930485D01*
X63118386Y-103977715D01*
X62952786Y-104098028D01*
X62808028Y-104242786D01*
X62687715Y-104408386D01*
X62594781Y-104590776D01*
X62531522Y-104785465D01*
X62499500Y-104987648D01*
X62499500Y-105192351D01*
X62531522Y-105394534D01*
X62594781Y-105589223D01*
X62639614Y-105677211D01*
X62682482Y-105761344D01*
X62687715Y-105771613D01*
X62808028Y-105937213D01*
X62952786Y-106081971D01*
X63118385Y-106202284D01*
X63118387Y-106202285D01*
X63118390Y-106202287D01*
X63184116Y-106235776D01*
X63211628Y-106249794D01*
X63262424Y-106297769D01*
X63279219Y-106365590D01*
X63256682Y-106431724D01*
X63211627Y-106470764D01*
X63200160Y-106476606D01*
X63200159Y-106476607D01*
X63870589Y-107147037D01*
X63807007Y-107164075D01*
X63692993Y-107229901D01*
X63599901Y-107322993D01*
X63534075Y-107437007D01*
X63517037Y-107500588D01*
X62804686Y-106788237D01*
X62804685Y-106788238D01*
X62688147Y-106948640D01*
X62688141Y-106948649D01*
X62595244Y-107130968D01*
X62532009Y-107325582D01*
X62500000Y-107527682D01*
X62500000Y-107732317D01*
X62532009Y-107934417D01*
X62595244Y-108129031D01*
X62688142Y-108311352D01*
X62804684Y-108471760D01*
X62804686Y-108471761D01*
X63517037Y-107759410D01*
X63534075Y-107822993D01*
X63599901Y-107937007D01*
X63692993Y-108030099D01*
X63807007Y-108095925D01*
X63870589Y-108112962D01*
X63200159Y-108783391D01*
X63300965Y-108834753D01*
X63300972Y-108834756D01*
X63495582Y-108897990D01*
X63697683Y-108930000D01*
X64302317Y-108930000D01*
X64504417Y-108897990D01*
X64699031Y-108834755D01*
X64799838Y-108783390D01*
X64129410Y-108112962D01*
X64192993Y-108095925D01*
X64307007Y-108030099D01*
X64400099Y-107937007D01*
X64465925Y-107822993D01*
X64482962Y-107759410D01*
X65195312Y-108471761D01*
X65195312Y-108471760D01*
X65311859Y-108311349D01*
X65404755Y-108129031D01*
X65467990Y-107934417D01*
X65500000Y-107732317D01*
X65500000Y-107527682D01*
X65467990Y-107325582D01*
X65404755Y-107130968D01*
X65311859Y-106948650D01*
X65195312Y-106788238D01*
X65195312Y-106788237D01*
X64482962Y-107500588D01*
X64465925Y-107437007D01*
X64400099Y-107322993D01*
X64307007Y-107229901D01*
X64192993Y-107164075D01*
X64129410Y-107147037D01*
X64799839Y-106476608D01*
X64788371Y-106470765D01*
X64737575Y-106422792D01*
X64720779Y-106354971D01*
X64743316Y-106288836D01*
X64788370Y-106249795D01*
X64788920Y-106249515D01*
X64881610Y-106202287D01*
X64936883Y-106162129D01*
X65047213Y-106081971D01*
X65047215Y-106081968D01*
X65047219Y-106081966D01*
X65191966Y-105937219D01*
X65191968Y-105937215D01*
X65191971Y-105937213D01*
X65282618Y-105812446D01*
X65312287Y-105771610D01*
X65405220Y-105589219D01*
X65468477Y-105394534D01*
X65500500Y-105192352D01*
X65500500Y-104987648D01*
X65480270Y-104859925D01*
X65468477Y-104785465D01*
X65405218Y-104590776D01*
X65339857Y-104462500D01*
X65312287Y-104408390D01*
X65301831Y-104393999D01*
X65191971Y-104242786D01*
X65047213Y-104098028D01*
X64881614Y-103977715D01*
X64875006Y-103974348D01*
X64788917Y-103930483D01*
X64738123Y-103882511D01*
X64721328Y-103814690D01*
X64743865Y-103748555D01*
X64788917Y-103709516D01*
X64881610Y-103662287D01*
X65020984Y-103561027D01*
X65047213Y-103541971D01*
X65047215Y-103541968D01*
X65047219Y-103541966D01*
X65191966Y-103397219D01*
X65191968Y-103397215D01*
X65191971Y-103397213D01*
X65278054Y-103278728D01*
X65312287Y-103231610D01*
X65405220Y-103049219D01*
X65468477Y-102854534D01*
X65500500Y-102652352D01*
X65500500Y-102447648D01*
X65478602Y-102309394D01*
X65468477Y-102245465D01*
X65405218Y-102050776D01*
X65359110Y-101960286D01*
X65312287Y-101868390D01*
X65286936Y-101833497D01*
X65191971Y-101702786D01*
X65047213Y-101558028D01*
X64881614Y-101437715D01*
X64875006Y-101434348D01*
X64788917Y-101390483D01*
X64738123Y-101342511D01*
X64721328Y-101274690D01*
X64743865Y-101208555D01*
X64788917Y-101169516D01*
X64881610Y-101122287D01*
X64902770Y-101106913D01*
X65047213Y-101001971D01*
X65047215Y-101001968D01*
X65047219Y-101001966D01*
X65191966Y-100857219D01*
X65312287Y-100691610D01*
X65312289Y-100691605D01*
X65314462Y-100688615D01*
X65369792Y-100645949D01*
X65414781Y-100637500D01*
X65891319Y-100637500D01*
X65958358Y-100657185D01*
X65979000Y-100673819D01*
X74594989Y-109289808D01*
X74682392Y-109377211D01*
X74682394Y-109377213D01*
X74682396Y-109377214D01*
X74785156Y-109445876D01*
X74785158Y-109445877D01*
X74785167Y-109445883D01*
X74810172Y-109456240D01*
X74832471Y-109465477D01*
X74874654Y-109482949D01*
X74899366Y-109493186D01*
X75020592Y-109517299D01*
X75020596Y-109517300D01*
X75020597Y-109517300D01*
X138060004Y-109517300D01*
X138060005Y-109517299D01*
X138181235Y-109493186D01*
X138261984Y-109459737D01*
X138295433Y-109445883D01*
X138398208Y-109377211D01*
X138485611Y-109289808D01*
X139498298Y-108277119D01*
X139559619Y-108243636D01*
X139624298Y-108246872D01*
X139637757Y-108251246D01*
X139847713Y-108284500D01*
X139847714Y-108284500D01*
X140060286Y-108284500D01*
X140060287Y-108284500D01*
X140270243Y-108251246D01*
X140472412Y-108185557D01*
X140661816Y-108089051D01*
X140705797Y-108057097D01*
X140833786Y-107964109D01*
X140833788Y-107964106D01*
X140833792Y-107964104D01*
X140984104Y-107813792D01*
X140984106Y-107813788D01*
X140984109Y-107813786D01*
X141109048Y-107641820D01*
X141109047Y-107641820D01*
X141109051Y-107641816D01*
X141205557Y-107452412D01*
X141271246Y-107250243D01*
X141304500Y-107040287D01*
X141304500Y-106827713D01*
X141271246Y-106617757D01*
X141205557Y-106415588D01*
X141109051Y-106226184D01*
X141109049Y-106226181D01*
X141109048Y-106226179D01*
X140984109Y-106054213D01*
X140833786Y-105903890D01*
X140661817Y-105778949D01*
X140652504Y-105774204D01*
X140601707Y-105726230D01*
X140584912Y-105658409D01*
X140607449Y-105592274D01*
X140652507Y-105553232D01*
X140661555Y-105548622D01*
X140715716Y-105509270D01*
X140715717Y-105509270D01*
X140083408Y-104876962D01*
X140146993Y-104859925D01*
X140261007Y-104794099D01*
X140354099Y-104701007D01*
X140419925Y-104586993D01*
X140436962Y-104523408D01*
X141069270Y-105155717D01*
X141069270Y-105155716D01*
X141108622Y-105101554D01*
X141205095Y-104912217D01*
X141270757Y-104710130D01*
X141270757Y-104710127D01*
X141304000Y-104500246D01*
X141304000Y-104287753D01*
X141270757Y-104077872D01*
X141270757Y-104077869D01*
X141205095Y-103875782D01*
X141108624Y-103686449D01*
X141069270Y-103632282D01*
X141069269Y-103632282D01*
X140436962Y-104264590D01*
X140419925Y-104201007D01*
X140354099Y-104086993D01*
X140261007Y-103993901D01*
X140146993Y-103928075D01*
X140083409Y-103911037D01*
X140715716Y-103278728D01*
X140661547Y-103239373D01*
X140661547Y-103239372D01*
X140652500Y-103234763D01*
X140601706Y-103186788D01*
X140584912Y-103118966D01*
X140607451Y-103052832D01*
X140652508Y-103013793D01*
X140661816Y-103009051D01*
X140741007Y-102951515D01*
X140833786Y-102884109D01*
X140833788Y-102884106D01*
X140833792Y-102884104D01*
X140984104Y-102733792D01*
X140984106Y-102733788D01*
X140984109Y-102733786D01*
X141109048Y-102561820D01*
X141109047Y-102561820D01*
X141109051Y-102561816D01*
X141205557Y-102372412D01*
X141271246Y-102170243D01*
X141304500Y-101960287D01*
X141304500Y-101747713D01*
X141271246Y-101537757D01*
X141205557Y-101335588D01*
X141109051Y-101146184D01*
X141109049Y-101146181D01*
X141109048Y-101146179D01*
X140984109Y-100974213D01*
X140833786Y-100823890D01*
X140661820Y-100698951D01*
X140661115Y-100698591D01*
X140653054Y-100694485D01*
X140602259Y-100646512D01*
X140585463Y-100578692D01*
X140607999Y-100512556D01*
X140653054Y-100473515D01*
X140661816Y-100469051D01*
X140683789Y-100453086D01*
X140833786Y-100344109D01*
X140833788Y-100344106D01*
X140833792Y-100344104D01*
X140984104Y-100193792D01*
X140984106Y-100193788D01*
X140984109Y-100193786D01*
X141109048Y-100021820D01*
X141109047Y-100021820D01*
X141109051Y-100021816D01*
X141205557Y-99832412D01*
X141271246Y-99630243D01*
X141304500Y-99420287D01*
X141304500Y-99207713D01*
X141271246Y-98997757D01*
X141205557Y-98795588D01*
X141109051Y-98606184D01*
X141109049Y-98606181D01*
X141109048Y-98606179D01*
X140984109Y-98434213D01*
X140833786Y-98283890D01*
X140661820Y-98158951D01*
X140661115Y-98158591D01*
X140653054Y-98154485D01*
X140602259Y-98106512D01*
X140585463Y-98038692D01*
X140607999Y-97972556D01*
X140653054Y-97933515D01*
X140661816Y-97929051D01*
X140683789Y-97913086D01*
X140833786Y-97804109D01*
X140833788Y-97804106D01*
X140833792Y-97804104D01*
X140984104Y-97653792D01*
X140984106Y-97653788D01*
X140984109Y-97653786D01*
X141109048Y-97481820D01*
X141109047Y-97481820D01*
X141109051Y-97481816D01*
X141205557Y-97292412D01*
X141271246Y-97090243D01*
X141304500Y-96880287D01*
X141304500Y-96667713D01*
X141271246Y-96457757D01*
X141205557Y-96255588D01*
X141109051Y-96066184D01*
X141109049Y-96066181D01*
X141109048Y-96066179D01*
X140984109Y-95894213D01*
X140833786Y-95743890D01*
X140661820Y-95618951D01*
X140661115Y-95618591D01*
X140653054Y-95614485D01*
X140602259Y-95566512D01*
X140585463Y-95498692D01*
X140607999Y-95432556D01*
X140653054Y-95393515D01*
X140661816Y-95389051D01*
X140786253Y-95298643D01*
X140833786Y-95264109D01*
X140833788Y-95264106D01*
X140833792Y-95264104D01*
X140984104Y-95113792D01*
X140984106Y-95113788D01*
X140984109Y-95113786D01*
X141109048Y-94941820D01*
X141109047Y-94941820D01*
X141109051Y-94941816D01*
X141205557Y-94752412D01*
X141271246Y-94550243D01*
X141304500Y-94340287D01*
X141304500Y-94127713D01*
X141271246Y-93917757D01*
X141205557Y-93715588D01*
X141109051Y-93526184D01*
X141109049Y-93526181D01*
X141109048Y-93526179D01*
X140984109Y-93354213D01*
X140833786Y-93203890D01*
X140661820Y-93078951D01*
X140661115Y-93078591D01*
X140653054Y-93074485D01*
X140602259Y-93026512D01*
X140585463Y-92958692D01*
X140607999Y-92892556D01*
X140653054Y-92853515D01*
X140661816Y-92849051D01*
X140704565Y-92817992D01*
X140833786Y-92724109D01*
X140833788Y-92724106D01*
X140833792Y-92724104D01*
X140984104Y-92573792D01*
X140984106Y-92573788D01*
X140984109Y-92573786D01*
X141109048Y-92401820D01*
X141109047Y-92401820D01*
X141109051Y-92401816D01*
X141205557Y-92212412D01*
X141271246Y-92010243D01*
X141304500Y-91800287D01*
X141304500Y-91587713D01*
X141271246Y-91377757D01*
X141205557Y-91175588D01*
X141109051Y-90986184D01*
X141109049Y-90986181D01*
X141109048Y-90986179D01*
X140984109Y-90814213D01*
X140833786Y-90663890D01*
X140661820Y-90538951D01*
X140661115Y-90538591D01*
X140653054Y-90534485D01*
X140602259Y-90486512D01*
X140585463Y-90418692D01*
X140607999Y-90352556D01*
X140653054Y-90313515D01*
X140661816Y-90309051D01*
X140712774Y-90272028D01*
X140833786Y-90184109D01*
X140833788Y-90184106D01*
X140833792Y-90184104D01*
X140984104Y-90033792D01*
X140984106Y-90033788D01*
X140984109Y-90033786D01*
X141109048Y-89861820D01*
X141109047Y-89861820D01*
X141109051Y-89861816D01*
X141205557Y-89672412D01*
X141271246Y-89470243D01*
X141304500Y-89260287D01*
X141304500Y-89047713D01*
X141271246Y-88837757D01*
X141205557Y-88635588D01*
X141109051Y-88446184D01*
X141109049Y-88446181D01*
X141109048Y-88446179D01*
X140984109Y-88274213D01*
X140833786Y-88123890D01*
X140661820Y-87998951D01*
X140661115Y-87998591D01*
X140653054Y-87994485D01*
X140602259Y-87946512D01*
X140585463Y-87878692D01*
X140607999Y-87812556D01*
X140653054Y-87773515D01*
X140661816Y-87769051D01*
X140742050Y-87710758D01*
X140833786Y-87644109D01*
X140833788Y-87644106D01*
X140833792Y-87644104D01*
X140984104Y-87493792D01*
X140984106Y-87493788D01*
X140984109Y-87493786D01*
X141109048Y-87321820D01*
X141109047Y-87321820D01*
X141109051Y-87321816D01*
X141205557Y-87132412D01*
X141271246Y-86930243D01*
X141304500Y-86720287D01*
X141304500Y-86507713D01*
X141271246Y-86297757D01*
X141205557Y-86095588D01*
X141109051Y-85906184D01*
X141109049Y-85906181D01*
X141109048Y-85906179D01*
X140984109Y-85734213D01*
X140833786Y-85583890D01*
X140661820Y-85458951D01*
X140661115Y-85458591D01*
X140653054Y-85454485D01*
X140602259Y-85406512D01*
X140585463Y-85338692D01*
X140607999Y-85272556D01*
X140653054Y-85233515D01*
X140661816Y-85229051D01*
X140712774Y-85192028D01*
X140833786Y-85104109D01*
X140833788Y-85104106D01*
X140833792Y-85104104D01*
X140984104Y-84953792D01*
X140984106Y-84953788D01*
X140984109Y-84953786D01*
X141109048Y-84781820D01*
X141109047Y-84781820D01*
X141109051Y-84781816D01*
X141205557Y-84592412D01*
X141271246Y-84390243D01*
X141304500Y-84180287D01*
X141304500Y-83967713D01*
X141271246Y-83757757D01*
X141205557Y-83555588D01*
X141109051Y-83366184D01*
X141109049Y-83366181D01*
X141109048Y-83366179D01*
X140984109Y-83194213D01*
X140833786Y-83043890D01*
X140661820Y-82918951D01*
X140661115Y-82918591D01*
X140653054Y-82914485D01*
X140602259Y-82866512D01*
X140585463Y-82798692D01*
X140607999Y-82732556D01*
X140653054Y-82693515D01*
X140661816Y-82689051D01*
X140712774Y-82652028D01*
X140833786Y-82564109D01*
X140833788Y-82564106D01*
X140833792Y-82564104D01*
X140984104Y-82413792D01*
X140984106Y-82413788D01*
X140984109Y-82413786D01*
X141109048Y-82241820D01*
X141109047Y-82241820D01*
X141109051Y-82241816D01*
X141205557Y-82052412D01*
X141271246Y-81850243D01*
X141304500Y-81640287D01*
X141304500Y-81427713D01*
X141271246Y-81217757D01*
X141205557Y-81015588D01*
X141109051Y-80826184D01*
X141109049Y-80826181D01*
X141109048Y-80826179D01*
X140984109Y-80654213D01*
X140833786Y-80503890D01*
X140661820Y-80378951D01*
X140661115Y-80378591D01*
X140653054Y-80374485D01*
X140602259Y-80326512D01*
X140585463Y-80258692D01*
X140607999Y-80192556D01*
X140653054Y-80153515D01*
X140661816Y-80149051D01*
X140718080Y-80108173D01*
X140833786Y-80024109D01*
X140833788Y-80024106D01*
X140833792Y-80024104D01*
X140984104Y-79873792D01*
X140984106Y-79873788D01*
X140984109Y-79873786D01*
X141109048Y-79701820D01*
X141109047Y-79701820D01*
X141109051Y-79701816D01*
X141205557Y-79512412D01*
X141271246Y-79310243D01*
X141304500Y-79100287D01*
X141304500Y-78887713D01*
X141271246Y-78677757D01*
X141205557Y-78475588D01*
X141109051Y-78286184D01*
X141109049Y-78286181D01*
X141109048Y-78286179D01*
X140984109Y-78114213D01*
X140833786Y-77963890D01*
X140661820Y-77838951D01*
X140661115Y-77838591D01*
X140653054Y-77834485D01*
X140602259Y-77786512D01*
X140585463Y-77718692D01*
X140607999Y-77652556D01*
X140653054Y-77613515D01*
X140661816Y-77609051D01*
X140712774Y-77572028D01*
X140833786Y-77484109D01*
X140833788Y-77484106D01*
X140833792Y-77484104D01*
X140984104Y-77333792D01*
X140984106Y-77333788D01*
X140984109Y-77333786D01*
X141109048Y-77161820D01*
X141109047Y-77161820D01*
X141109051Y-77161816D01*
X141205557Y-76972412D01*
X141271246Y-76770243D01*
X141304500Y-76560287D01*
X141304500Y-76347713D01*
X141271246Y-76137757D01*
X141205557Y-75935588D01*
X141109051Y-75746184D01*
X141109049Y-75746181D01*
X141109048Y-75746179D01*
X140984109Y-75574213D01*
X140833786Y-75423890D01*
X140661820Y-75298951D01*
X140661115Y-75298591D01*
X140653054Y-75294485D01*
X140602259Y-75246512D01*
X140585463Y-75178692D01*
X140607999Y-75112556D01*
X140653054Y-75073515D01*
X140661816Y-75069051D01*
X140712774Y-75032028D01*
X140833786Y-74944109D01*
X140833788Y-74944106D01*
X140833792Y-74944104D01*
X140984104Y-74793792D01*
X140984106Y-74793788D01*
X140984109Y-74793786D01*
X141109048Y-74621820D01*
X141109047Y-74621820D01*
X141109051Y-74621816D01*
X141205557Y-74432412D01*
X141271246Y-74230243D01*
X141304500Y-74020287D01*
X141304500Y-73807713D01*
X141271246Y-73597757D01*
X141205557Y-73395588D01*
X141109051Y-73206184D01*
X141109049Y-73206181D01*
X141109048Y-73206179D01*
X140984109Y-73034213D01*
X140833786Y-72883890D01*
X140661820Y-72758951D01*
X140661115Y-72758591D01*
X140653054Y-72754485D01*
X140602259Y-72706512D01*
X140585463Y-72638692D01*
X140607999Y-72572556D01*
X140653054Y-72533515D01*
X140661816Y-72529051D01*
X140740722Y-72471723D01*
X140833786Y-72404109D01*
X140833788Y-72404106D01*
X140833792Y-72404104D01*
X140984104Y-72253792D01*
X140984106Y-72253788D01*
X140984109Y-72253786D01*
X141109048Y-72081820D01*
X141109047Y-72081820D01*
X141109051Y-72081816D01*
X141205557Y-71892412D01*
X141271246Y-71690243D01*
X141304500Y-71480287D01*
X141304500Y-71267713D01*
X141271246Y-71057757D01*
X141205557Y-70855588D01*
X141109051Y-70666184D01*
X141109049Y-70666181D01*
X141109048Y-70666179D01*
X140984109Y-70494213D01*
X140833786Y-70343890D01*
X140661820Y-70218951D01*
X140661115Y-70218591D01*
X140653054Y-70214485D01*
X140602259Y-70166512D01*
X140585463Y-70098692D01*
X140607999Y-70032556D01*
X140653054Y-69993515D01*
X140661816Y-69989051D01*
X140740177Y-69932119D01*
X140833786Y-69864109D01*
X140833788Y-69864106D01*
X140833792Y-69864104D01*
X140984104Y-69713792D01*
X140984106Y-69713788D01*
X140984109Y-69713786D01*
X141109048Y-69541820D01*
X141109047Y-69541820D01*
X141109051Y-69541816D01*
X141205557Y-69352412D01*
X141271246Y-69150243D01*
X141304500Y-68940287D01*
X141304500Y-68727713D01*
X141271246Y-68517757D01*
X141205557Y-68315588D01*
X141109051Y-68126184D01*
X141109049Y-68126181D01*
X141109048Y-68126179D01*
X140984109Y-67954213D01*
X140833786Y-67803890D01*
X140661820Y-67678951D01*
X140661115Y-67678591D01*
X140653054Y-67674485D01*
X140602259Y-67626512D01*
X140585463Y-67558692D01*
X140607999Y-67492556D01*
X140653054Y-67453515D01*
X140661816Y-67449051D01*
X140720406Y-67406483D01*
X140833786Y-67324109D01*
X140833788Y-67324106D01*
X140833792Y-67324104D01*
X140984104Y-67173792D01*
X140984106Y-67173788D01*
X140984109Y-67173786D01*
X141107902Y-67003397D01*
X141109051Y-67001816D01*
X141205557Y-66812412D01*
X141271246Y-66610243D01*
X141304500Y-66400287D01*
X141304500Y-66187713D01*
X141271246Y-65977757D01*
X141205557Y-65775588D01*
X141109051Y-65586184D01*
X141109049Y-65586181D01*
X141109048Y-65586179D01*
X140984109Y-65414213D01*
X140833786Y-65263890D01*
X140661820Y-65138951D01*
X140661115Y-65138591D01*
X140653054Y-65134485D01*
X140602259Y-65086512D01*
X140585463Y-65018692D01*
X140607999Y-64952556D01*
X140653054Y-64913515D01*
X140661816Y-64909051D01*
X140691287Y-64887639D01*
X140833786Y-64784109D01*
X140833788Y-64784106D01*
X140833792Y-64784104D01*
X140984104Y-64633792D01*
X140984106Y-64633788D01*
X140984109Y-64633786D01*
X141109048Y-64461820D01*
X141109047Y-64461820D01*
X141109051Y-64461816D01*
X141205557Y-64272412D01*
X141271246Y-64070243D01*
X141304500Y-63860287D01*
X141304500Y-63647713D01*
X141271246Y-63437757D01*
X141205557Y-63235588D01*
X141109051Y-63046184D01*
X141109049Y-63046181D01*
X141109048Y-63046179D01*
X140984109Y-62874213D01*
X140870569Y-62760673D01*
X140837084Y-62699350D01*
X140842068Y-62629658D01*
X140883940Y-62573725D01*
X140914915Y-62556810D01*
X141046331Y-62507796D01*
X141161546Y-62421546D01*
X141247796Y-62306331D01*
X141298091Y-62171483D01*
X141304500Y-62111873D01*
X141304499Y-60316128D01*
X141298091Y-60256517D01*
X141297531Y-60255016D01*
X141247796Y-60121669D01*
X141247793Y-60121664D01*
X141161547Y-60006455D01*
X141161544Y-60006452D01*
X141046335Y-59920206D01*
X141046328Y-59920202D01*
X140911482Y-59869908D01*
X140911483Y-59869908D01*
X140851883Y-59863501D01*
X140851881Y-59863500D01*
X140851873Y-59863500D01*
X140851864Y-59863500D01*
X139056129Y-59863500D01*
X139056123Y-59863501D01*
X138996516Y-59869908D01*
X138861671Y-59920202D01*
X138861664Y-59920206D01*
X138746455Y-60006452D01*
X138746452Y-60006455D01*
X138660206Y-60121664D01*
X138660204Y-60121669D01*
X138609908Y-60256517D01*
X138604984Y-60302320D01*
X138603501Y-60316123D01*
X138603500Y-60316135D01*
X138603500Y-60462500D01*
X138583815Y-60529539D01*
X138531011Y-60575294D01*
X138479500Y-60586500D01*
X126582592Y-60586500D01*
X126461373Y-60610611D01*
X126461373Y-60610612D01*
X126461370Y-60610613D01*
X126461366Y-60610614D01*
X126394470Y-60638323D01*
X126394468Y-60638323D01*
X126347170Y-60657915D01*
X126244389Y-60726590D01*
X126244388Y-60726591D01*
X122623532Y-64347449D01*
X121443792Y-65527189D01*
X121410834Y-65560147D01*
X121356387Y-65614593D01*
X121287720Y-65717360D01*
X121287713Y-65717373D01*
X121280385Y-65735067D01*
X121280385Y-65735068D01*
X121240415Y-65831562D01*
X121240412Y-65831572D01*
X121227996Y-65893993D01*
X121216300Y-65952792D01*
X121216300Y-69438917D01*
X121207655Y-69468357D01*
X121201132Y-69498344D01*
X121197377Y-69503359D01*
X121196615Y-69505956D01*
X121179981Y-69526598D01*
X121099398Y-69607181D01*
X121038075Y-69640666D01*
X121011717Y-69643500D01*
X119649998Y-69643500D01*
X119649981Y-69643501D01*
X119547203Y-69654000D01*
X119547200Y-69654001D01*
X119380668Y-69709185D01*
X119380663Y-69709187D01*
X119231342Y-69801289D01*
X119107289Y-69925342D01*
X119015187Y-70074663D01*
X119015185Y-70074668D01*
X119003705Y-70109312D01*
X118960001Y-70241203D01*
X118960001Y-70241204D01*
X118960000Y-70241204D01*
X118949500Y-70343983D01*
X118949500Y-71544001D01*
X118949501Y-71544018D01*
X118960000Y-71646796D01*
X118960001Y-71646799D01*
X119015185Y-71813331D01*
X119015187Y-71813336D01*
X119050069Y-71869888D01*
X119107288Y-71962656D01*
X119231344Y-72086712D01*
X119380666Y-72178814D01*
X119462570Y-72205954D01*
X119520015Y-72245727D01*
X119546838Y-72310243D01*
X119534523Y-72379018D01*
X119496451Y-72423978D01*
X119402787Y-72492028D01*
X119402782Y-72492032D01*
X119258034Y-72636780D01*
X119231439Y-72673386D01*
X119137713Y-72802390D01*
X119137710Y-72802394D01*
X119135538Y-72805385D01*
X119080208Y-72848051D01*
X119035219Y-72856500D01*
X118423081Y-72856500D01*
X118356042Y-72836815D01*
X118335400Y-72820181D01*
X117580019Y-72064800D01*
X117546534Y-72003477D01*
X117543700Y-71977119D01*
X117543700Y-67451396D01*
X117542417Y-67444947D01*
X117538310Y-67424300D01*
X117519586Y-67330166D01*
X117479255Y-67232799D01*
X117474779Y-67221992D01*
X117472286Y-67215972D01*
X117472279Y-67215960D01*
X117403612Y-67113193D01*
X117365429Y-67075010D01*
X117316208Y-67025789D01*
X116580976Y-66290557D01*
X115835311Y-65544891D01*
X115835310Y-65544890D01*
X115797474Y-65519609D01*
X115797472Y-65519607D01*
X115793361Y-65516861D01*
X115732533Y-65476217D01*
X115689801Y-65458517D01*
X115683112Y-65455746D01*
X115683110Y-65455745D01*
X115618335Y-65428914D01*
X115618327Y-65428912D01*
X115497107Y-65404800D01*
X115497103Y-65404800D01*
X110896354Y-65404800D01*
X110829315Y-65385115D01*
X110783560Y-65332311D01*
X110778648Y-65319804D01*
X110760120Y-65263890D01*
X110759814Y-65262966D01*
X110667712Y-65113644D01*
X110543656Y-64989588D01*
X110413084Y-64909051D01*
X110394336Y-64897487D01*
X110394331Y-64897485D01*
X110392862Y-64896998D01*
X110227797Y-64842301D01*
X110227794Y-64842300D01*
X110201174Y-64839581D01*
X110136482Y-64813184D01*
X110096331Y-64756003D01*
X110093468Y-64686192D01*
X110128803Y-64625916D01*
X110191116Y-64594311D01*
X110201172Y-64592865D01*
X110244897Y-64588399D01*
X110411434Y-64533214D01*
X110560756Y-64441112D01*
X110684812Y-64317056D01*
X110776914Y-64167734D01*
X110832099Y-64001197D01*
X110842600Y-63898409D01*
X110842599Y-62898392D01*
X110832099Y-62795603D01*
X110776914Y-62629066D01*
X110684812Y-62479744D01*
X110560756Y-62355688D01*
X110560755Y-62355687D01*
X110556918Y-62351850D01*
X110523434Y-62290527D01*
X110522564Y-62286149D01*
X110520600Y-62275244D01*
X110520600Y-62263542D01*
X110498308Y-62151478D01*
X110498111Y-62150380D01*
X110498530Y-62146493D01*
X110498530Y-62104208D01*
X110520600Y-61993260D01*
X110520600Y-61992630D01*
X110520693Y-61992311D01*
X110521197Y-61987198D01*
X110522166Y-61987293D01*
X110540285Y-61925591D01*
X110556919Y-61904949D01*
X110620368Y-61841500D01*
X110684812Y-61777056D01*
X110776914Y-61627734D01*
X110832099Y-61461197D01*
X110842600Y-61358409D01*
X110842599Y-60358392D01*
X110838282Y-60316135D01*
X110832099Y-60255603D01*
X110832098Y-60255600D01*
X110819595Y-60217870D01*
X110776914Y-60089066D01*
X110684812Y-59939744D01*
X110560756Y-59815688D01*
X110411434Y-59723586D01*
X110244897Y-59668401D01*
X110244895Y-59668400D01*
X110142110Y-59657900D01*
X109517098Y-59657900D01*
X109517080Y-59657901D01*
X109414303Y-59668400D01*
X109414300Y-59668401D01*
X109247768Y-59723585D01*
X109247763Y-59723587D01*
X109098442Y-59815689D01*
X109004781Y-59909351D01*
X108943458Y-59942836D01*
X108873766Y-59937852D01*
X108829419Y-59909351D01*
X108735757Y-59815689D01*
X108735756Y-59815688D01*
X108586434Y-59723586D01*
X108419897Y-59668401D01*
X108419895Y-59668400D01*
X108317110Y-59657900D01*
X107692098Y-59657900D01*
X107692080Y-59657901D01*
X107589303Y-59668400D01*
X107589300Y-59668401D01*
X107422768Y-59723585D01*
X107422763Y-59723587D01*
X107273442Y-59815689D01*
X107149389Y-59939742D01*
X107057287Y-60089063D01*
X107057285Y-60089068D01*
X107038452Y-60145904D01*
X106998679Y-60203349D01*
X106934163Y-60230172D01*
X106920746Y-60230900D01*
X101309595Y-60230900D01*
X101188370Y-60255013D01*
X101188360Y-60255016D01*
X101074173Y-60302313D01*
X101074160Y-60302320D01*
X100971392Y-60370988D01*
X100971388Y-60370991D01*
X100059681Y-61282700D01*
X99806992Y-61535389D01*
X99783992Y-61558389D01*
X99719586Y-61622794D01*
X99719585Y-61622796D01*
X99650923Y-61725556D01*
X99650914Y-61725573D01*
X99645007Y-61739831D01*
X99645008Y-61739832D01*
X99603614Y-61839764D01*
X99603612Y-61839772D01*
X99579500Y-61960992D01*
X99579500Y-62070719D01*
X99559815Y-62137758D01*
X99507011Y-62183513D01*
X99437853Y-62193457D01*
X99374297Y-62164432D01*
X99367819Y-62158400D01*
X98164610Y-60955191D01*
X98164605Y-60955187D01*
X98160482Y-60952432D01*
X98061839Y-60886520D01*
X98061826Y-60886513D01*
X98028385Y-60872662D01*
X97947635Y-60839214D01*
X97947627Y-60839212D01*
X97826407Y-60815100D01*
X97826403Y-60815100D01*
X88550881Y-60815100D01*
X88483842Y-60795415D01*
X88463200Y-60778781D01*
X87852211Y-60167791D01*
X87852206Y-60167787D01*
X87788027Y-60124905D01*
X87783184Y-60121669D01*
X87749433Y-60099117D01*
X87715984Y-60085262D01*
X87710121Y-60082833D01*
X87710111Y-60082828D01*
X87635235Y-60051814D01*
X87635227Y-60051812D01*
X87514007Y-60027700D01*
X87514003Y-60027700D01*
X85844397Y-60027700D01*
X85777358Y-60008015D01*
X85731603Y-59955211D01*
X85721659Y-59886053D01*
X85726463Y-59865392D01*
X85788477Y-59674534D01*
X85820500Y-59472352D01*
X85820500Y-59267648D01*
X85788477Y-59065466D01*
X85725220Y-58870781D01*
X85725218Y-58870778D01*
X85725218Y-58870776D01*
X85691503Y-58804607D01*
X85632287Y-58688390D01*
X85624556Y-58677749D01*
X85511971Y-58522786D01*
X85367213Y-58378028D01*
X85201613Y-58257715D01*
X85201612Y-58257714D01*
X85201610Y-58257713D01*
X85144653Y-58228691D01*
X85019223Y-58164781D01*
X84824534Y-58101522D01*
X84649995Y-58073878D01*
X84622352Y-58069500D01*
X84017648Y-58069500D01*
X83993329Y-58073351D01*
X83815465Y-58101522D01*
X83620776Y-58164781D01*
X83438386Y-58257715D01*
X83272786Y-58378028D01*
X83128028Y-58522786D01*
X83007715Y-58688386D01*
X82914781Y-58870776D01*
X82851522Y-59065465D01*
X82819500Y-59267648D01*
X82819500Y-59472351D01*
X82851522Y-59674534D01*
X82867461Y-59723587D01*
X82913534Y-59865384D01*
X82915529Y-59935222D01*
X82879449Y-59995055D01*
X82816749Y-60025884D01*
X82795603Y-60027700D01*
X72505995Y-60027700D01*
X72384770Y-60051813D01*
X72384760Y-60051816D01*
X72270571Y-60099114D01*
X72270569Y-60099115D01*
X72236816Y-60121669D01*
X72236815Y-60121670D01*
X72167789Y-60167790D01*
X72167788Y-60167791D01*
X66009400Y-66326181D01*
X65948077Y-66359666D01*
X65921719Y-66362500D01*
X65414781Y-66362500D01*
X65347742Y-66342815D01*
X65314462Y-66311385D01*
X65312289Y-66308394D01*
X65312287Y-66308390D01*
X65191966Y-66142781D01*
X65047219Y-65998034D01*
X65047213Y-65998028D01*
X64881614Y-65877715D01*
X64875006Y-65874348D01*
X64788917Y-65830483D01*
X64738123Y-65782511D01*
X64721328Y-65714690D01*
X64743865Y-65648555D01*
X64788917Y-65609516D01*
X64881610Y-65562287D01*
X64905555Y-65544890D01*
X65047213Y-65441971D01*
X65047215Y-65441968D01*
X65047219Y-65441966D01*
X65191966Y-65297219D01*
X65191968Y-65297215D01*
X65191971Y-65297213D01*
X65306953Y-65138951D01*
X65312287Y-65131610D01*
X65405220Y-64949219D01*
X65468477Y-64754534D01*
X65500500Y-64552352D01*
X65500500Y-64347648D01*
X65472004Y-64167734D01*
X65468477Y-64145465D01*
X65421601Y-64001197D01*
X65405220Y-63950781D01*
X65405218Y-63950778D01*
X65405218Y-63950776D01*
X65341236Y-63825206D01*
X65312287Y-63768390D01*
X65249968Y-63682614D01*
X65191971Y-63602786D01*
X65047213Y-63458028D01*
X64881614Y-63337715D01*
X64853089Y-63323181D01*
X64788917Y-63290483D01*
X64738123Y-63242511D01*
X64721328Y-63174690D01*
X64743865Y-63108555D01*
X64788917Y-63069516D01*
X64881610Y-63022287D01*
X64933134Y-62984853D01*
X65047213Y-62901971D01*
X65047215Y-62901968D01*
X65047219Y-62901966D01*
X65191966Y-62757219D01*
X65191968Y-62757215D01*
X65191971Y-62757213D01*
X65257489Y-62667034D01*
X65312287Y-62591610D01*
X65405220Y-62409219D01*
X65468477Y-62214534D01*
X65500500Y-62012352D01*
X65500500Y-61807648D01*
X65487500Y-61725573D01*
X65468477Y-61605465D01*
X65421601Y-61461197D01*
X65405220Y-61410781D01*
X65405218Y-61410778D01*
X65405218Y-61410776D01*
X65341403Y-61285534D01*
X65312287Y-61228390D01*
X65304556Y-61217749D01*
X65191971Y-61062786D01*
X65047219Y-60918034D01*
X65010930Y-60891669D01*
X64968264Y-60836339D01*
X64962285Y-60766726D01*
X64994890Y-60704931D01*
X65055728Y-60670573D01*
X65070562Y-60668060D01*
X65107483Y-60664091D01*
X65176568Y-60638324D01*
X65242331Y-60613796D01*
X65357546Y-60527546D01*
X65443796Y-60412331D01*
X65494091Y-60277483D01*
X65500500Y-60217873D01*
X65500499Y-58522128D01*
X65494091Y-58462517D01*
X65443796Y-58327669D01*
X65443795Y-58327668D01*
X65443793Y-58327664D01*
X65357547Y-58212455D01*
X65357544Y-58212452D01*
X65242335Y-58126206D01*
X65242328Y-58126202D01*
X65107482Y-58075908D01*
X65107483Y-58075908D01*
X65047883Y-58069501D01*
X65047881Y-58069500D01*
X65047873Y-58069500D01*
X65047864Y-58069500D01*
X62952129Y-58069500D01*
X62952123Y-58069501D01*
X62892516Y-58075908D01*
X62757671Y-58126202D01*
X62757664Y-58126206D01*
X62642455Y-58212452D01*
X62642452Y-58212455D01*
X62556206Y-58327664D01*
X62556202Y-58327671D01*
X62505908Y-58462517D01*
X62499860Y-58518780D01*
X62499501Y-58522123D01*
X62499500Y-58522135D01*
X60505713Y-58522135D01*
X60506318Y-55624473D01*
X60526017Y-55557439D01*
X60578830Y-55511695D01*
X60630318Y-55500500D01*
X143393500Y-55500500D01*
X143460539Y-55520185D01*
G37*
%TD.AperFunction*%
%TD*%
M02*
